<svg width="49" height="48" viewBox="0 0 49 48" fill="none" xmlns="http://www.w3.org/2000/svg">
<path d="M27.921 12.4578V12.1999C27.921 11.8816 27.7935 11.5765 27.5665 11.3514C27.3395 11.1264 27.0316 11 26.7105 11H24.2895C23.9684 11 23.6605 11.1264 23.4335 11.3514C23.2065 11.5765 23.079 11.8816 23.079 12.1999V12.4578C20.3034 13.0503 17.847 14.6396 16.1828 16.9196C14.5186 19.1997 13.7641 22.0094 14.0646 24.8078C14.3652 27.6063 15.6995 30.1956 17.8107 32.0773C19.9219 33.9589 22.6608 35 25.5 35C28.3392 35 31.0781 33.9589 33.1893 32.0773C35.3005 30.1956 36.6348 27.6063 36.9354 24.8078C37.2359 22.0094 36.4814 19.1997 34.8172 16.9196C33.153 14.6396 30.6966 13.0503 27.921 12.4578ZM25.5 33.7976C23.4649 33.7976 21.4756 33.1995 19.7835 32.0788C18.0914 30.9581 16.7726 29.3653 15.9938 27.5016C15.215 25.638 15.0112 23.5874 15.4083 21.609C15.8053 19.6306 16.7853 17.8133 18.2243 16.3869C19.6633 14.9606 21.4967 13.9892 23.4926 13.5957C25.4886 13.2022 27.5574 13.4042 29.4376 14.1761C31.3178 14.948 32.9247 16.2553 34.0554 17.9325C35.186 19.6097 35.7894 21.5815 35.7894 23.5987C35.7894 26.3036 34.7054 28.8978 32.7757 30.8104C30.8461 32.7231 28.2289 33.7976 25.5 33.7976ZM30.911 25.6085C30.8678 25.7233 30.79 25.8222 30.6883 25.892C30.5866 25.9617 30.4658 25.9988 30.3421 25.9984C30.2699 25.9991 30.1981 25.9869 30.1303 25.9624L25.2882 24.1626C25.1723 24.1197 25.0725 24.0427 25.0022 23.9419C24.9318 23.841 24.8943 23.7213 24.8947 23.5987V16.9994C24.8947 16.8403 24.9585 16.6877 25.072 16.5752C25.1855 16.4626 25.3395 16.3994 25.5 16.3994C25.6605 16.3994 25.8145 16.4626 25.928 16.5752C26.0415 16.6877 26.1053 16.8403 26.1053 16.9994V23.1847L30.5539 24.8346C30.6288 24.8619 30.6975 24.9037 30.756 24.9575C30.8145 25.0113 30.8617 25.076 30.8949 25.1479C30.9281 25.2198 30.9466 25.2975 30.9494 25.3766C30.9521 25.4556 30.9391 25.5344 30.911 25.6085Z" fill="#D9FFD9" stroke="#23CC23" stroke-width="1.2"/>
</svg>
