<svg width="16" height="12" viewBox="0 0 16 12" fill="none" xmlns="http://www.w3.org/2000/svg">
<path d="M6.13967 5.44772C5.34155 4.65361 4.57815 3.89286 3.81398 3.13174C3.15989 2.48185 2.50579 1.83296 1.8517 1.18507C1.63773 0.973977 1.37962 0.908739 1.08867 0.99385C0.797723 1.07896 0.624513 1.28405 0.560362 1.57388C0.498474 1.85583 0.606777 2.08716 0.80527 2.28626C1.71245 3.1871 2.61888 4.0882 3.52455 4.98955C4.196 5.65644 4.86796 6.32295 5.54042 6.98909C5.9091 7.35278 6.3359 7.35465 6.70308 6.99471C7.21327 6.4948 7.72007 5.99113 8.22347 5.48372C8.28045 5.42673 8.3163 5.34912 8.35668 5.28913L12.5967 9.50567C12.5364 9.50942 12.4782 9.51579 12.4197 9.51617C11.9292 9.51617 11.4386 9.51129 10.948 9.51916C10.6239 9.52404 10.3797 9.68039 10.2465 9.97321C10.1193 10.2529 10.1616 10.5244 10.3597 10.7628C10.4308 10.8512 10.5213 10.9222 10.6244 10.9703C10.7274 11.0184 10.8402 11.0423 10.9541 11.0403C12.1284 11.0429 13.3058 11.0452 14.4817 11.0392C14.9258 11.0369 15.2545 10.7017 15.256 10.2612C15.2598 9.09886 15.2598 7.93656 15.256 6.77425C15.256 6.33258 14.9077 5.98688 14.4858 5.99063C14.0639 5.99438 13.7386 6.32433 13.7311 6.76713C13.7239 7.2418 13.7292 7.71684 13.7292 8.19189V8.38873L13.6605 8.43297C13.6178 8.36616 13.5701 8.30262 13.5179 8.24288C12.0165 6.74838 10.5139 5.25501 9.01027 3.76276C8.61895 3.3747 8.19592 3.37395 7.80611 3.75938C7.29415 4.2658 6.78308 4.77384 6.27288 5.2835C6.22911 5.32737 6.19401 5.38136 6.13967 5.44772Z" fill="#EE3A3A"/>
</svg>
