<svg width="16" height="12" viewBox="0 0 16 12" fill="none" xmlns="http://www.w3.org/2000/svg">
<path d="M6.13967 6.55228C5.34155 7.34639 4.57815 8.10714 3.81398 8.86826C3.15989 9.51815 2.50579 10.167 1.8517 10.8149C1.63773 11.026 1.37962 11.0913 1.08867 11.0062C0.797723 10.921 0.624513 10.716 0.560362 10.4261C0.498474 10.1442 0.606777 9.91284 0.80527 9.71374C1.71245 8.8129 2.61888 7.9118 3.52455 7.01045C4.196 6.34356 4.86796 5.67705 5.54042 5.01091C5.9091 4.64722 6.3359 4.64535 6.70308 5.00529C7.21327 5.5052 7.72007 6.00887 8.22347 6.51628C8.28045 6.57327 8.3163 6.65088 8.35668 6.71087L12.5967 2.49433C12.5364 2.49058 12.4782 2.48421 12.4197 2.48383C11.9292 2.48383 11.4386 2.48871 10.948 2.48084C10.6239 2.47596 10.3797 2.31961 10.2465 2.02679C10.1193 1.74708 10.1616 1.47563 10.3597 1.23717C10.4308 1.14879 10.5213 1.07781 10.6244 1.0297C10.7274 0.981599 10.8402 0.957654 10.9541 0.959716C12.1284 0.957092 13.3058 0.954842 14.4817 0.960841C14.9258 0.963091 15.2545 1.29828 15.256 1.73884C15.2598 2.90114 15.2598 4.06344 15.256 5.22575C15.256 5.66742 14.9077 6.01312 14.4858 6.00937C14.0639 6.00562 13.7386 5.67567 13.7311 5.23287C13.7239 4.7582 13.7292 4.28316 13.7292 3.80811V3.61127L13.6605 3.56703C13.6178 3.63384 13.5701 3.69738 13.5179 3.75712C12.0165 5.25162 10.5139 6.74499 9.01027 8.23724C8.61895 8.6253 8.19592 8.62605 7.80611 8.24062C7.29415 7.7342 6.78308 7.22616 6.27288 6.7165C6.22911 6.67263 6.19401 6.61864 6.13967 6.55228Z" fill="#099F06"/>
</svg>
