<svg width="29" height="29" viewBox="0 0 29 29" fill="none" xmlns="http://www.w3.org/2000/svg">
<path d="M24.1673 9.96908V21.7503C24.1673 25.3753 22.0044 26.5837 19.334 26.5837H9.66732C6.9969 26.5837 4.83398 25.3753 4.83398 21.7503V9.96908C4.83398 6.04199 6.9969 5.13574 9.66732 5.13574C9.66732 5.88491 9.96937 6.56157 10.4648 7.05699C10.9602 7.5524 11.6369 7.85449 12.3861 7.85449H16.6152C18.1136 7.85449 19.334 6.63408 19.334 5.13574C22.0044 5.13574 24.1673 6.04199 24.1673 9.96908Z" stroke="#9372C1" stroke-width="2" stroke-linecap="round" stroke-linejoin="round"/>
<path d="M19.3327 5.13574C19.3327 6.63408 18.1123 7.85449 16.6139 7.85449H12.3848C11.6356 7.85449 10.9589 7.5524 10.4635 7.05699C9.96807 6.56157 9.66602 5.88491 9.66602 5.13574C9.66602 3.63741 10.8864 2.41699 12.3848 2.41699H16.6139C17.3631 2.41699 18.0398 2.71908 18.5352 3.2145C19.0306 3.70991 19.3327 4.38658 19.3327 5.13574Z" stroke="#9372C1" stroke-width="2" stroke-linecap="round" stroke-linejoin="round"/>
<path d="M9.66602 15.708H14.4993" stroke="#9372C1" stroke-width="2" stroke-linecap="round" stroke-linejoin="round"/>
<path d="M9.66602 20.542H19.3327" stroke="#9372C1" stroke-width="2" stroke-linecap="round" stroke-linejoin="round"/>
</svg>
