<svg width="24" height="25" viewBox="0 0 24 25" fill="none" xmlns="http://www.w3.org/2000/svg">
<path d="M13.6699 0.621094C14.1043 0.743541 14.4793 0.881043 14.7988 1.12109H14.7998C15.6461 1.75343 16.0077 2.88205 15.6807 3.88281C15.3603 4.85608 14.5118 5.52404 13.5293 5.6084L13.3311 5.61719C12.6616 5.61721 12.0104 5.62996 11.3564 5.61719C10.8075 5.6023 10.3564 5.46373 9.98828 5.22168C9.66514 5.00917 9.38915 4.70588 9.16504 4.30273L9.07129 4.12402C9.01867 4.01189 8.93751 3.87892 8.79297 3.78809C8.68104 3.7179 8.56442 3.69348 8.46094 3.6875L8.37402 3.68652C7.92346 3.68973 7.47427 3.68945 7.02344 3.68945L5.66699 3.69238C5.25096 3.69293 4.87046 3.81785 4.59375 4.09473C4.31658 4.37219 4.19238 4.75407 4.19238 5.17285V21.9219C4.19238 22.3436 4.31322 22.7308 4.59277 23.0117C4.8726 23.2927 5.25879 23.415 5.68262 23.415H18.9805C19.3996 23.4149 19.7823 23.2916 20.0605 23.0156C20.3392 22.7392 20.4639 22.358 20.4639 21.9414V5.16602C20.4638 4.76291 20.3529 4.39324 20.0879 4.11816C19.8239 3.84423 19.4579 3.71656 19.0547 3.69336H19.0557C18.7557 3.67467 18.5247 3.43261 18.5322 3.09766C18.5397 2.80896 18.781 2.56608 19.0742 2.55859C20.4245 2.52563 21.5986 3.65671 21.5986 4.99902C21.6051 10.7021 21.5986 16.4054 21.5986 22.1094C21.5984 23.2464 20.7682 24.2473 19.5742 24.5068L19.5615 24.5098L19.5498 24.5127C19.5172 24.522 19.4849 24.5373 19.4561 24.5488H5.1875C5.15864 24.5373 5.1264 24.522 5.09375 24.5127L5.08301 24.5098L5.07129 24.5068L4.84766 24.4482C3.7583 24.1123 3.05078 23.1624 3.05078 22.0059V5.03809C3.05078 3.66997 4.16327 2.55838 5.54199 2.55273L5.54102 2.55176C6.49409 2.55176 7.43824 2.54578 8.39062 2.55859H8.39648C8.50761 2.55859 8.65569 2.54463 8.7959 2.45703C8.93844 2.36791 9.01616 2.2389 9.06445 2.12891C9.36817 1.44534 9.86364 0.990004 10.5703 0.749023C10.7148 0.701043 10.8269 0.670193 10.9844 0.621094H13.6699ZM11.3906 1.75488H11.3896C10.6239 1.76369 9.9966 2.33906 9.99414 3.1084C9.98489 3.89263 10.631 4.47161 11.3984 4.48242V4.4834H13.25L13.249 4.48242C14.0256 4.47272 14.6645 3.89177 14.6553 3.1084C14.6466 2.39092 14.099 1.83731 13.4014 1.76367L13.2598 1.75488C12.6368 1.74842 12.0136 1.74842 11.3906 1.75488Z" fill="#FCFCFC" stroke="#FCFCFC" stroke-width="0.797086"/>
<path d="M11.4199 9.89551H17.0996C17.3152 9.89556 17.4726 9.96548 17.5723 10.0586C17.6699 10.15 17.7344 10.2844 17.7344 10.4629C17.7343 10.6408 17.6701 10.772 17.5732 10.8613C17.4738 10.953 17.3146 11.0234 17.0928 11.0234H11.4131C11.0193 11.0233 10.7967 10.7827 10.791 10.4688C10.7911 10.2841 10.8565 10.1484 10.9521 10.0576C11.0496 9.9653 11.2044 9.89551 11.4199 9.89551Z" fill="#FCFCFC" stroke="#FCFCFC" stroke-width="0.797086"/>
<path d="M14.2695 13.752H17.1191C17.5023 13.752 17.7284 13.9937 17.7285 14.3184C17.7285 14.6363 17.5034 14.8788 17.1133 14.8789H11.4072C11.0151 14.8788 10.7908 14.6403 10.7852 14.3184C10.7852 14.1337 10.8506 13.998 10.9463 13.9072C11.0436 13.815 11.1981 13.7453 11.4131 13.7451C12.3702 13.7516 13.3206 13.752 14.2695 13.752Z" fill="#FCFCFC" stroke="#FCFCFC" stroke-width="0.797086"/>
<path d="M10.7852 18.1875C10.7832 18.006 10.8478 17.872 10.9434 17.7812C11.0412 17.6886 11.1958 17.6192 11.4072 17.6191H11.4102C12.3647 17.6127 13.3132 17.6123 14.2695 17.6123H17.1191C17.5024 17.6123 17.7285 17.8549 17.7285 18.1797C17.7284 18.5026 17.5045 18.746 17.1133 18.7461H11.4072C11.0071 18.7459 10.7852 18.5005 10.7852 18.1924V18.1875Z" fill="#FCFCFC" stroke="#FCFCFC" stroke-width="0.797086"/>
<path d="M7.49068 9.49121C8.02696 9.49121 8.45341 9.91606 8.45341 10.4568C8.45341 11.0039 8.0205 11.4288 7.47129 11.4224C6.93501 11.4159 6.52148 10.9846 6.52148 10.4439C6.52148 9.90963 6.95439 9.49121 7.49068 9.49121Z" fill="#FCFCFC"/>
<path d="M8.45596 14.3127C8.45596 14.8534 8.03598 15.2782 7.49969 15.2847C6.94402 15.2911 6.51758 14.8662 6.51758 14.3127C6.51758 13.7719 6.94402 13.3535 7.48031 13.3535C8.02952 13.3535 8.45596 13.7719 8.45596 14.3127Z" fill="#FCFCFC"/>
<path d="M7.49068 17.2139C8.02696 17.2139 8.45341 17.6387 8.45341 18.1794C8.45341 18.7266 8.0205 19.1515 7.47129 19.145C6.93501 19.1386 6.52148 18.7137 6.52148 18.1666C6.52148 17.6323 6.94793 17.2139 7.49068 17.2139Z" fill="#FCFCFC"/>
</svg>
