<svg width="24" height="25" viewBox="0 0 24 25" fill="none" xmlns="http://www.w3.org/2000/svg">
<path d="M14.55 22.17C18.84 21.04 22 17.14 22 12.5C22 6.98 17.56 2.5 12 2.5C5.33 2.5 2 8.06 2 8.06M2 8.06V3.5M2 8.06H4.01H6.44" stroke="#626262" stroke-width="1.5" stroke-linecap="round" stroke-linejoin="round"/>
<path d="M11.9555 18.4941C12.2369 18.4973 12.4667 18.2702 12.4667 17.9888V17.7467C12.4667 17.3744 12.7451 17.0676 13.1024 16.9626C14.3442 16.5978 15 15.7332 15 14.8206C15 13.6284 14.1649 12.9312 12.5123 12.3687C11.1088 11.8854 10.5228 11.5368 10.5228 10.8425C10.5228 10.3064 10.9895 9.68828 12.2246 9.68828C12.7648 9.6857 13.2977 9.77781 13.7894 9.95685C14.0444 10.0497 14.3392 9.94838 14.4516 9.70147C14.5594 9.46476 14.4583 9.18295 14.2136 9.095C13.8925 8.97962 13.5558 8.89788 13.2111 8.85153C12.8539 8.80349 12.5614 8.51528 12.5614 8.15486V7.99825C12.5614 7.72307 12.3383 7.5 12.0632 7.5C11.788 7.5 11.5649 7.72307 11.5649 7.99825V8.22289C11.5649 8.58417 11.295 8.88205 10.9483 8.98357C9.83228 9.31036 9.14386 10.0635 9.14386 11.0124C9.14386 12.1842 10.1544 12.7935 11.7895 13.3296C12.9789 13.7309 13.6035 14.185 13.6035 14.9232C13.6035 15.6614 12.8351 16.2356 11.6947 16.2356C11.0582 16.2314 10.4332 16.1081 9.8649 15.8773C9.60149 15.7703 9.28884 15.876 9.17671 16.1372C9.07714 16.3693 9.17302 16.6411 9.40675 16.7366C9.83957 16.9134 10.3021 17.0333 10.7779 17.0924C11.1508 17.1386 11.4561 17.4391 11.4561 17.8148V17.9888C11.4561 18.2656 11.6788 18.4909 11.9555 18.4941Z" fill="#F0806C" stroke="#F0806C" stroke-width="0.3"/>
<path d="M2 12.5C2 18.02 6.48 22.5 12 22.5" stroke="#626262" stroke-width="1.5" stroke-linecap="round" stroke-linejoin="round" stroke-dasharray="3 3"/>
</svg>
