<svg width="21" height="20" viewBox="0 0 21 20" fill="none" xmlns="http://www.w3.org/2000/svg">
<g clip-path="url(#clip0_58018_21137)">
<path d="M5.37199 -0.0158157C5.45012 -0.0160387 5.52825 -0.0163108 5.60637 -0.0166281C5.81775 -0.017327 6.02912 -0.0172832 6.24051 -0.01706C6.41736 -0.016939 6.59422 -0.0171775 6.77108 -0.0174131C7.18855 -0.0179612 7.60602 -0.0179012 8.02349 -0.017456C8.45325 -0.0170078 8.883 -0.0175571 9.31275 -0.0186043C9.68256 -0.0194715 10.0524 -0.0197287 10.4222 -0.0194997C10.6427 -0.0193685 10.8632 -0.0194602 11.0837 -0.0201346C11.2911 -0.0207414 11.4986 -0.0205815 11.7061 -0.0198492C11.7819 -0.0197059 11.8577 -0.0198246 11.9335 -0.0202354C12.761 -0.0243736 13.3021 0.175265 13.9077 0.755507C13.9824 0.826723 14.0578 0.897097 14.1334 0.967375C14.375 1.19226 14.615 1.4178 14.8464 1.65326C14.9159 1.72146 14.9881 1.78482 15.062 1.84811C15.1944 1.96178 15.318 2.08284 15.4405 2.207C15.5846 2.3531 15.7324 2.49147 15.8886 2.62463C16.0193 2.74124 16.1403 2.8675 16.2634 2.99206C16.3441 3.07173 16.426 3.14665 16.5122 3.22018C16.6633 3.34931 16.8022 3.48939 16.9416 3.63085C17.0447 3.73494 17.1497 3.8338 17.2617 3.92819C17.6879 4.29774 18.0215 4.74281 18.1162 5.31247C18.1275 5.48808 18.1271 5.66331 18.1267 5.83924C18.1268 5.89267 18.127 5.9461 18.1272 5.99952C18.1277 6.14578 18.1277 6.29203 18.1276 6.43828C18.1276 6.59624 18.128 6.7542 18.1284 6.91216C18.129 7.22142 18.1292 7.53069 18.1293 7.83995C18.1293 8.09142 18.1295 8.34288 18.1297 8.59435C18.1304 9.30779 18.1308 10.0212 18.1307 10.7347C18.1307 10.7731 18.1307 10.8115 18.1307 10.8511C18.1307 10.8896 18.1307 10.9281 18.1307 10.9678C18.1307 11.5913 18.1314 12.2149 18.1325 12.8385C18.1336 13.4793 18.1342 14.12 18.1341 14.7608C18.1341 15.1204 18.1343 15.4799 18.1351 15.8394C18.1359 16.1456 18.136 16.4517 18.1355 16.7579C18.1352 16.9139 18.1352 17.07 18.1359 17.2261C18.1365 17.3692 18.1364 17.5123 18.1357 17.6555C18.1356 17.7312 18.1361 17.807 18.1368 17.8827C18.1323 18.459 17.9202 18.9791 17.5279 19.4043C17.0663 19.8375 16.5305 20.0184 15.9058 20.0151C15.8576 20.0153 15.8095 20.0155 15.7598 20.0157C15.6271 20.0162 15.4944 20.0161 15.3617 20.0159C15.2182 20.0157 15.0746 20.0162 14.9311 20.0166C14.6503 20.0172 14.3695 20.0173 14.0887 20.0171C13.8604 20.0169 13.6321 20.017 13.4037 20.0172C13.3712 20.0172 13.3386 20.0172 13.3051 20.0173C13.2389 20.0173 13.1728 20.0174 13.1067 20.0174C12.487 20.018 11.8674 20.0178 11.2477 20.0173C10.6815 20.0169 10.1153 20.0174 9.54902 20.0184C8.96687 20.0193 8.38473 20.0197 7.80258 20.0194C7.47604 20.0193 7.1495 20.0194 6.82297 20.0201C6.54499 20.0206 6.26701 20.0207 5.98903 20.02C5.84736 20.0197 5.70569 20.0196 5.56402 20.0202C5.41008 20.0208 5.25615 20.0202 5.10221 20.0195C5.05794 20.0199 5.01367 20.0203 4.96806 20.0207C4.4067 20.0155 3.89012 19.7923 3.47756 19.4116C2.98427 18.886 2.864 18.3063 2.86672 17.6086C2.86655 17.5403 2.86634 17.472 2.86608 17.4037C2.86552 17.2166 2.86568 17.0296 2.86597 16.8425C2.86615 16.6405 2.86567 16.4385 2.86527 16.2365C2.86459 15.841 2.86456 15.4456 2.86477 15.0501C2.86492 14.7286 2.86487 14.4071 2.86466 14.0856C2.86463 14.0399 2.8646 13.9941 2.86457 13.9469C2.86451 13.8539 2.86445 13.7609 2.86439 13.6679C2.86385 12.796 2.86407 11.9241 2.86451 11.0522C2.8649 10.2548 2.8644 9.45745 2.86346 8.66008C2.86251 7.84099 2.86213 7.02189 2.86239 6.20279C2.86253 5.74308 2.86244 5.28336 2.86176 4.82365C2.86118 4.4323 2.86116 4.04096 2.86184 3.64961C2.86217 3.45003 2.86226 3.25045 2.86166 3.05087C2.86112 2.86798 2.8613 2.68511 2.86206 2.50222C2.8622 2.43624 2.86209 2.37027 2.86168 2.30429C2.85792 1.65037 3.01593 1.08798 3.47024 0.595671C4.03066 0.0696828 4.6352 -0.0177157 5.37199 -0.0158157ZM4.2759 1.54049C4.08502 1.83035 4.04891 2.08263 4.04871 2.42631C4.04864 2.45303 4.04857 2.47976 4.0485 2.50729C4.04832 2.59655 4.04842 2.68581 4.04851 2.77507C4.04844 2.83983 4.04835 2.90459 4.04824 2.96935C4.04801 3.14709 4.04801 3.32483 4.04806 3.50258C4.04807 3.69435 4.04785 3.88613 4.04766 4.0779C4.04734 4.45353 4.04723 4.82916 4.04721 5.20479C4.04719 5.51009 4.04711 5.8154 4.04699 6.1207C4.04664 6.98628 4.04646 7.85186 4.04649 8.71743C4.04649 8.76409 4.0465 8.81075 4.0465 8.85882C4.0465 8.90553 4.0465 8.95225 4.0465 9.00038C4.04652 9.75767 4.04614 10.515 4.04559 11.2722C4.04503 12.0498 4.04476 12.8274 4.0448 13.6049C4.04481 14.0415 4.0447 14.478 4.04428 14.9146C4.04393 15.2862 4.04384 15.6578 4.04411 16.0295C4.04423 16.2191 4.04424 16.4087 4.0439 16.5983C4.04359 16.7719 4.04365 16.9455 4.04399 17.1192C4.04405 17.1819 4.04398 17.2446 4.04376 17.3074C4.04232 17.7518 4.04141 18.1522 4.32717 18.5156C4.66634 18.8374 5.03654 18.834 5.47604 18.8333C5.52069 18.8334 5.56534 18.8335 5.61135 18.8336C5.76083 18.8338 5.91031 18.8338 6.05979 18.8338C6.16702 18.8339 6.27424 18.834 6.38147 18.8342C6.64242 18.8345 6.90337 18.8346 7.16432 18.8346C7.37648 18.8346 7.58864 18.8347 7.80079 18.8348C8.40265 18.8352 9.00451 18.8354 9.60637 18.8353C9.63879 18.8353 9.67121 18.8353 9.70462 18.8353C9.73708 18.8353 9.76955 18.8353 9.80299 18.8353C10.3292 18.8353 10.8553 18.8357 11.3815 18.8362C11.9221 18.8368 12.4627 18.8371 13.0033 18.837C13.3067 18.837 13.61 18.8371 13.9134 18.8375C14.1717 18.8379 14.4299 18.838 14.6882 18.8377C14.8199 18.8376 14.9516 18.8376 15.0833 18.8379C15.2262 18.8382 15.3692 18.8381 15.5121 18.8377C15.5535 18.8379 15.5948 18.8382 15.6374 18.8384C16.0318 18.8365 16.3708 18.7898 16.6709 18.5156C16.9569 18.1517 16.9502 17.8082 16.9491 17.3634C16.9491 17.3142 16.9491 17.265 16.9492 17.2143C16.9492 17.0782 16.9491 16.9421 16.9489 16.8059C16.9487 16.659 16.9488 16.512 16.9488 16.3651C16.9488 16.1106 16.9487 15.8562 16.9485 15.6017C16.9482 15.2338 16.9481 14.8659 16.948 14.498C16.9479 13.9011 16.9477 13.3042 16.9473 12.7073C16.9469 12.1275 16.9467 11.5477 16.9465 10.9679C16.9465 10.9322 16.9465 10.8964 16.9465 10.8596C16.9464 10.6803 16.9464 10.5009 16.9463 10.3216C16.9459 8.83416 16.9452 7.34675 16.9444 5.85934C16.8967 5.85911 16.849 5.85888 16.7999 5.85865C16.3499 5.85641 15.8999 5.85357 15.4499 5.85013C15.2186 5.84839 14.9873 5.84686 14.7559 5.84581C14.5325 5.84479 14.3092 5.84321 14.0858 5.84125C14.0007 5.8406 13.9156 5.84015 13.8305 5.8399C13.711 5.83953 13.5916 5.83843 13.4721 5.83717C13.4372 5.83723 13.4023 5.83728 13.3663 5.83734C12.9674 5.83142 12.6607 5.70931 12.374 5.42966C12.1305 5.13043 12.0501 4.8606 12.0491 4.48004C12.0485 4.42627 12.0485 4.42627 12.0479 4.37141C12.0467 4.25348 12.046 4.13555 12.0454 4.01761C12.0446 3.93562 12.0439 3.85363 12.0431 3.77164C12.0411 3.55626 12.0395 3.34087 12.0381 3.12548C12.0365 2.90553 12.0345 2.68558 12.0326 2.46564C12.0288 2.03437 12.0255 1.60311 12.0225 1.17184C11.1169 1.17002 10.2113 1.16864 9.3057 1.16779C8.8852 1.16739 8.4647 1.16684 8.04421 1.16595C7.67764 1.16517 7.31107 1.16467 6.94451 1.16449C6.75047 1.16439 6.55643 1.16415 6.36239 1.16358C6.17961 1.16305 5.99683 1.16289 5.81404 1.16301C5.7471 1.16298 5.68017 1.16283 5.61323 1.16253C4.87837 1.15658 4.87837 1.15658 4.2759 1.54049ZM13.1944 1.79684C13.1926 2.14557 13.1912 2.49429 13.1903 2.84302C13.1899 3.00495 13.1894 3.16688 13.1885 3.32881C13.1876 3.48508 13.1872 3.64135 13.1869 3.79762C13.1868 3.85724 13.1865 3.91686 13.1861 3.97647C13.1855 4.05998 13.1855 4.14348 13.1855 4.227C13.1853 4.27453 13.1851 4.32207 13.185 4.37104C13.194 4.48778 13.2047 4.55378 13.2725 4.64841C13.4104 4.69439 13.5191 4.69215 13.6647 4.6919C13.6926 4.69191 13.7204 4.69191 13.7491 4.69192C13.841 4.69189 13.933 4.69159 14.0249 4.69128C14.0887 4.69121 14.1524 4.69115 14.2162 4.69111C14.384 4.69097 14.5518 4.69058 14.7196 4.69015C14.8908 4.68975 15.0621 4.68957 15.2333 4.68937C15.5693 4.68896 15.9053 4.68829 16.2412 4.68747C16.119 4.54212 15.9982 4.39891 15.8582 4.27014C15.8324 4.24617 15.8065 4.2222 15.7799 4.19751C15.7533 4.17309 15.7267 4.14866 15.6992 4.1235C15.3625 3.8115 15.3625 3.8115 15.2061 3.65231C15.1134 3.55805 15.0183 3.4698 14.918 3.38376C14.7933 3.27668 14.6771 3.16376 14.5615 3.04684C14.4484 2.93234 14.3349 2.82169 14.2124 2.71725C14.0815 2.60537 13.9598 2.48577 13.8389 2.36325C13.6365 2.15884 13.4343 1.95683 13.1944 1.79684Z" fill="#F0806C" stroke="#F0806C" stroke-width="0.3"/>
<path d="M6.21821 12.0944C6.25522 12.0942 6.29223 12.094 6.33036 12.0938C6.45445 12.0932 6.57853 12.0935 6.70262 12.0938C6.79155 12.0936 6.88049 12.0933 6.96942 12.093C7.21106 12.0923 7.45269 12.0923 7.69432 12.0926C7.89595 12.0927 8.09758 12.0924 8.29921 12.0922C8.80202 12.0916 9.30483 12.0918 9.80764 12.0922C10.2442 12.0926 10.6808 12.0921 11.1174 12.0912C11.5658 12.0902 12.0141 12.0899 12.4625 12.0901C12.7142 12.0902 12.9659 12.0902 13.2176 12.0895C13.4543 12.0889 13.6909 12.089 13.9276 12.0898C14.0144 12.0899 14.1013 12.0898 14.1882 12.0894C14.3068 12.0889 14.4253 12.0893 14.5438 12.09C14.5955 12.0894 14.5955 12.0894 14.6482 12.0889C14.86 12.0914 14.9811 12.1248 15.1491 12.2658C15.3076 12.4698 15.2966 12.682 15.2663 12.9299C15.1815 13.109 15.093 13.1983 14.9148 13.2815C14.7927 13.2985 14.6718 13.2974 14.5488 13.2966C14.5118 13.2968 14.4748 13.297 14.4367 13.2972C14.3126 13.2978 14.1885 13.2975 14.0644 13.2972C13.9755 13.2975 13.8865 13.2977 13.7976 13.2981C13.556 13.2988 13.3143 13.2987 13.0727 13.2985C12.8711 13.2984 12.6694 13.2986 12.4678 13.2988C11.965 13.2994 11.4622 13.2993 10.9594 13.2988C10.5228 13.2984 10.0862 13.2989 9.64965 13.2999C9.20126 13.3008 8.75287 13.3012 8.30448 13.3009C8.05278 13.3008 7.8011 13.3009 7.54941 13.3016C7.31275 13.3022 7.07611 13.302 6.83946 13.3013C6.75256 13.3011 6.66567 13.3013 6.57878 13.3017C6.46023 13.3022 6.34172 13.3017 6.22317 13.301C6.18873 13.3014 6.15428 13.3018 6.11879 13.3022C5.90699 13.2996 5.78589 13.2663 5.61788 13.1252C5.45943 12.9212 5.47046 12.7091 5.50069 12.4611C5.6581 12.1288 5.8822 12.0922 6.21821 12.0944Z" fill="#F0806C"/>
<path d="M6.21821 8.96944C6.25522 8.96923 6.29223 8.96902 6.33036 8.9688C6.45445 8.96824 6.57853 8.96852 6.70262 8.9688C6.79155 8.96858 6.88049 8.9683 6.96942 8.96799C7.21106 8.96728 7.45269 8.96733 7.69432 8.96755C7.89595 8.96768 8.09758 8.96744 8.29921 8.9672C8.80202 8.96662 9.30483 8.96676 9.80764 8.96724C10.2442 8.96762 10.6808 8.96712 11.1174 8.96618C11.5658 8.96523 12.0141 8.96487 12.4625 8.96512C12.7142 8.96525 12.9659 8.96515 13.2176 8.96448C13.4543 8.96388 13.6909 8.96403 13.9276 8.96477C14.0144 8.96491 14.1013 8.96479 14.1882 8.96438C14.3068 8.96387 14.4253 8.96431 14.5438 8.965C14.5955 8.96444 14.5955 8.96444 14.6482 8.96387C14.86 8.96641 14.9811 8.99978 15.1491 9.14083C15.3076 9.34484 15.2966 9.55698 15.2663 9.80489C15.1815 9.98404 15.093 10.0733 14.9148 10.1565C14.7927 10.1735 14.6718 10.1724 14.5488 10.1716C14.5118 10.1718 14.4748 10.172 14.4367 10.1722C14.3126 10.1728 14.1885 10.1725 14.0644 10.1722C13.9755 10.1725 13.8865 10.1727 13.7976 10.1731C13.556 10.1738 13.3143 10.1737 13.0727 10.1735C12.8711 10.1734 12.6694 10.1736 12.4678 10.1738C11.965 10.1744 11.4622 10.1743 10.9594 10.1738C10.5228 10.1734 10.0862 10.1739 9.64965 10.1749C9.20126 10.1758 8.75287 10.1762 8.30448 10.1759C8.05278 10.1758 7.8011 10.1759 7.54941 10.1766C7.31275 10.1772 7.07611 10.177 6.83946 10.1763C6.75256 10.1761 6.66567 10.1763 6.57878 10.1767C6.46023 10.1772 6.34172 10.1767 6.22317 10.176C6.18873 10.1764 6.15428 10.1768 6.11879 10.1772C5.90699 10.1746 5.78589 10.1413 5.61788 10.0002C5.45943 9.7962 5.47046 9.58406 5.50069 9.33614C5.6581 9.00383 5.8822 8.96715 6.21821 8.96944Z" fill="#F0806C"/>
<path d="M6.17192 15.2188C6.20357 15.2186 6.23523 15.2183 6.26785 15.218C6.37219 15.2173 6.47652 15.2175 6.58086 15.2177C6.65359 15.2175 6.72632 15.2173 6.79904 15.2171C6.95137 15.2167 7.10369 15.2168 7.25602 15.2172C7.45099 15.2176 7.64594 15.2168 7.84091 15.2157C7.99108 15.215 8.14124 15.215 8.2914 15.2152C8.36328 15.2152 8.43515 15.215 8.50702 15.2145C8.60763 15.2139 8.70818 15.2143 8.80879 15.215C8.83832 15.2146 8.86786 15.2143 8.89828 15.2139C9.0996 15.2167 9.21243 15.2647 9.36788 15.3909C9.52164 15.5608 9.54909 15.7001 9.53909 15.9222C9.50858 16.1133 9.4111 16.2152 9.26515 16.3335C9.10876 16.4202 8.98345 16.4286 8.80941 16.4267C8.77775 16.427 8.74609 16.4273 8.71347 16.4275C8.60932 16.4282 8.50523 16.4278 8.40108 16.4272C8.32841 16.4273 8.25574 16.4275 8.18307 16.4277C8.03098 16.4279 7.87889 16.4276 7.7268 16.4269C7.53213 16.426 7.3375 16.4265 7.14283 16.4274C6.99283 16.428 6.84284 16.4278 6.69284 16.4274C6.62108 16.4273 6.54931 16.4274 6.47755 16.4278C6.37713 16.4282 6.27677 16.4276 6.17635 16.4267C6.14688 16.427 6.11741 16.4273 6.08705 16.4277C5.88637 16.4245 5.77268 16.3764 5.61788 16.2502C5.45943 16.0462 5.47046 15.8341 5.50069 15.5862C5.64566 15.2801 5.85034 15.2169 6.17192 15.2188Z" fill="#F0806C"/>
</g>
<defs>
<clipPath id="clip0_58018_21137">
<rect width="20" height="20" fill="white" transform="translate(0.5)"/>
</clipPath>
</defs>
</svg>
