<svg width="20" height="20" viewBox="0 0 20 20" fill="none" xmlns="http://www.w3.org/2000/svg">
<path d="M14.7258 3.08573C14.7513 3.10343 14.7768 3.12113 14.803 3.13936C15.2122 3.42726 15.5799 3.75142 15.9368 4.10135C15.9719 4.13553 15.9719 4.13553 16.0077 4.1704C16.1484 4.30879 16.2773 4.45024 16.4006 4.60428C16.4965 4.72762 16.4965 4.72762 16.6008 4.84354C16.6014 4.76998 16.6014 4.76998 16.6019 4.69493C16.6035 4.51168 16.6061 4.32845 16.6089 4.14521C16.61 4.06615 16.6109 3.98708 16.6114 3.90801C16.6123 3.79386 16.6141 3.67976 16.6161 3.56562C16.6161 3.53069 16.6162 3.49576 16.6162 3.45978C16.6224 3.19065 16.6759 2.93992 16.8656 2.73856C17.1128 2.51601 17.304 2.47981 17.6364 2.48499C17.8846 2.51195 18.0331 2.63024 18.1975 2.80985C18.3731 3.06289 18.3701 3.30028 18.3694 3.59787C18.3697 3.66289 18.3697 3.66289 18.37 3.72922C18.3705 3.87229 18.3705 4.01535 18.3704 4.15842C18.3705 4.25805 18.3707 4.35769 18.3709 4.45732C18.3712 4.66609 18.3712 4.87486 18.371 5.08364C18.3707 5.32439 18.3712 5.56513 18.3721 5.80588C18.3728 6.03815 18.3729 6.2704 18.3728 6.50267C18.3728 6.60119 18.373 6.69971 18.3734 6.79823C18.3739 6.93613 18.3736 7.07401 18.3732 7.21191C18.3735 7.25243 18.3738 7.29294 18.3741 7.33468C18.372 7.62029 18.3411 7.85 18.1511 8.07596C17.9254 8.26494 17.762 8.36341 17.4686 8.36491C17.431 8.36519 17.3935 8.36547 17.3549 8.36576C17.2936 8.36592 17.2936 8.36592 17.231 8.36608C17.1661 8.36646 17.1661 8.36646 17.0999 8.36686C16.9566 8.36763 16.8133 8.36808 16.67 8.36847C16.5965 8.36871 16.5965 8.36871 16.5215 8.36896C16.289 8.36969 16.0565 8.37025 15.8239 8.37058C15.5562 8.37096 15.2885 8.37199 15.0207 8.37357C14.7883 8.37489 14.5559 8.37535 14.3235 8.37551C14.2249 8.3757 14.1263 8.37615 14.0277 8.37688C13.8895 8.37783 13.7513 8.37779 13.6131 8.37752C13.5726 8.37802 13.5321 8.37852 13.4904 8.37904C13.2074 8.37702 12.9506 8.33417 12.7382 8.13341C12.5153 7.88666 12.4793 7.69492 12.4845 7.36261C12.5114 7.11443 12.6297 6.96599 12.8093 6.80155C13.0063 6.6649 13.1822 6.63077 13.4194 6.62796C13.4695 6.62718 13.5195 6.62641 13.571 6.62561C13.6251 6.62514 13.6791 6.62469 13.7331 6.62424C13.7888 6.62351 13.8445 6.62275 13.9002 6.62195C14.0463 6.61995 14.1923 6.6184 14.3383 6.61694C14.4876 6.61538 14.6368 6.61338 14.7861 6.61142C15.0785 6.60765 15.3709 6.60435 15.6633 6.60135C15.6199 6.53258 15.5763 6.46385 15.5328 6.39513C15.5085 6.35685 15.4843 6.31857 15.4593 6.27913C15.1428 5.78918 14.7503 5.32708 14.2961 4.96073C14.2606 4.93157 14.2251 4.90242 14.1886 4.87238C12.7632 3.73599 11.004 3.24027 9.19162 3.41623C7.53132 3.621 5.90786 4.4911 4.86499 5.80545C4.79141 5.90065 4.71926 5.99681 4.64771 6.09354C4.63113 6.11578 4.61456 6.13802 4.59749 6.16093C3.92817 7.07192 3.61382 8.10767 3.41827 9.20519C3.41188 9.23945 3.4055 9.27372 3.39893 9.30902C3.39331 9.33997 3.3877 9.37092 3.38191 9.4028C3.32617 9.61644 3.21319 9.76559 3.04126 9.89969C2.79386 10.0342 2.54065 10.027 2.26489 9.99979C2.03199 9.9141 1.87456 9.75023 1.75487 9.53492C1.62904 9.25489 1.68842 8.94142 1.73755 8.64969C1.74459 8.60729 1.75162 8.56488 1.75887 8.52119C2.05854 6.81888 2.88489 5.34864 4.06177 4.10135C4.09309 4.06792 4.12441 4.03448 4.15668 4.00003C6.80444 1.25678 11.3547 0.907614 14.7258 3.08573Z" fill="#F0806C"/>
<path d="M17.8341 10.037C18.041 10.1617 18.1821 10.3268 18.2811 10.5471C18.346 10.8169 18.3053 11.0739 18.2567 11.343C18.2494 11.3841 18.2422 11.4252 18.2347 11.4676C17.9698 12.9242 17.3591 14.3182 16.367 15.4299C16.333 15.4681 16.2989 15.5064 16.2639 15.5458C16.1567 15.6651 16.0473 15.782 15.9373 15.8986C15.906 15.9321 15.8747 15.9655 15.8424 15.9999C14.4116 17.4824 12.2764 18.3187 10.2348 18.3644C8.47368 18.3911 6.72828 17.9276 5.27326 16.9143C5.24778 16.8966 5.2223 16.8789 5.19605 16.8606C4.78692 16.5727 4.4192 16.2486 4.06232 15.8986C4.03891 15.8758 4.01549 15.8531 3.99137 15.8296C3.85071 15.6912 3.72177 15.5497 3.59846 15.3957C3.50258 15.2724 3.50258 15.2724 3.39826 15.1564C3.3979 15.2055 3.39753 15.2545 3.39715 15.3051C3.39559 15.4883 3.39302 15.6715 3.39015 15.8548C3.38906 15.9338 3.38823 16.0129 3.38768 16.092C3.38683 16.2061 3.38501 16.3202 3.383 16.4344C3.38293 16.4868 3.38293 16.4868 3.38286 16.5402C3.37669 16.8093 3.32323 17.0601 3.13346 17.2614C2.88633 17.484 2.69512 17.5202 2.36265 17.515C2.11447 17.488 1.96602 17.3697 1.80158 17.1901C1.62601 16.9371 1.62901 16.6997 1.62972 16.4021C1.62952 16.3588 1.62932 16.3154 1.62912 16.2708C1.62857 16.1277 1.62861 15.9846 1.6287 15.8416C1.62855 15.7419 1.62838 15.6423 1.62819 15.5427C1.6279 15.3339 1.62791 15.1251 1.62812 14.9163C1.62835 14.6756 1.62787 14.4348 1.62704 14.1941C1.62627 13.9618 1.62615 13.7296 1.62629 13.4973C1.62627 13.3988 1.62606 13.3003 1.62567 13.2018C1.62519 13.0638 1.62545 12.926 1.6259 12.7881C1.62561 12.7476 1.62531 12.707 1.625 12.6653C1.62731 12.346 1.67877 12.0712 1.91389 11.8361C2.11422 11.6976 2.28903 11.6363 2.53054 11.6351C2.5868 11.6346 2.58679 11.6346 2.64419 11.6342C2.68508 11.6341 2.72597 11.634 2.7681 11.6339C2.83301 11.6335 2.83301 11.6335 2.89923 11.6331C3.04253 11.6324 3.18583 11.6319 3.32914 11.6315C3.37812 11.6313 3.4271 11.6312 3.47756 11.631C3.71009 11.6303 3.94262 11.6297 4.17516 11.6294C4.4429 11.629 4.71062 11.628 4.97836 11.6264C5.21078 11.6251 5.44321 11.6246 5.67564 11.6245C5.77424 11.6243 5.87284 11.6238 5.97143 11.6231C6.10962 11.6221 6.24777 11.6222 6.38596 11.6225C6.4467 11.6217 6.4467 11.6217 6.50867 11.6209C6.79167 11.623 7.04845 11.6658 7.26087 11.8666C7.48383 12.1133 7.5198 12.3051 7.51462 12.6374C7.48767 12.8855 7.36937 13.034 7.18976 13.1984C6.99283 13.3351 6.81684 13.3692 6.57966 13.372C6.52963 13.3728 6.47959 13.3736 6.42804 13.3744C6.37403 13.3748 6.32001 13.3753 6.266 13.3757C6.21028 13.3765 6.15457 13.3772 6.09885 13.378C5.95282 13.38 5.8068 13.3816 5.66076 13.383C5.5115 13.3846 5.36225 13.3866 5.21299 13.3886C4.92058 13.3923 4.62818 13.3956 4.33576 13.3986C4.37927 13.4674 4.42283 13.5362 4.46641 13.6049C4.49067 13.6432 4.51492 13.6815 4.53991 13.721C4.89573 14.2721 5.33891 14.7581 5.8592 15.1564C5.89571 15.1853 5.93221 15.2141 5.96982 15.2439C7.3624 16.3233 9.14201 16.7894 10.8893 16.5737C12.6324 16.3164 14.2212 15.4179 15.2868 14.0035C16.0035 13.0291 16.3659 11.9728 16.5816 10.7932C16.5915 10.7413 16.5915 10.7413 16.6015 10.6882C16.6074 10.6568 16.6133 10.6253 16.6193 10.5929C16.6799 10.3493 16.8722 10.1803 17.0701 10.0393C17.3045 9.96114 17.601 9.95118 17.8341 10.037Z" fill="#F0806C"/>
</svg>
