<svg width="24" height="25" viewBox="0 0 24 25" fill="none" xmlns="http://www.w3.org/2000/svg">
<path d="M9 22.5H15C20 22.5 22 20.5 22 15.5V9.5C22 4.5 20 2.5 15 2.5H9C4 2.5 2 4.5 2 9.5V15.5C2 20.5 4 22.5 9 22.5Z" stroke="#FCFCFC" stroke-width="1.5" stroke-linecap="round" stroke-linejoin="round"/>
<path d="M15.5703 18.9996V15.0996" stroke="#FCFCFC" stroke-width="1.5" stroke-miterlimit="10" stroke-linecap="round" stroke-linejoin="round"/>
<path d="M15.5703 7.95V6" stroke="#FCFCFC" stroke-width="1.5" stroke-miterlimit="10" stroke-linecap="round" stroke-linejoin="round"/>
<path d="M15.5707 13.1492C17.0066 13.1492 18.1707 11.9852 18.1707 10.5492C18.1707 9.11328 17.0066 7.94922 15.5707 7.94922C14.1348 7.94922 12.9707 9.11328 12.9707 10.5492C12.9707 11.9852 14.1348 13.1492 15.5707 13.1492Z" stroke="#FCFCFC" stroke-width="1.5" stroke-miterlimit="10" stroke-linecap="round" stroke-linejoin="round"/>
<path d="M8.42969 19.0008V17.0508" stroke="#FCFCFC" stroke-width="1.5" stroke-miterlimit="10" stroke-linecap="round" stroke-linejoin="round"/>
<path d="M8.42969 9.9V6" stroke="#FCFCFC" stroke-width="1.5" stroke-miterlimit="10" stroke-linecap="round" stroke-linejoin="round"/>
<path d="M8.43008 17.0496C9.86602 17.0496 11.0301 15.8855 11.0301 14.4496C11.0301 13.0137 9.86602 11.8496 8.43008 11.8496C6.99414 11.8496 5.83008 13.0137 5.83008 14.4496C5.83008 15.8855 6.99414 17.0496 8.43008 17.0496Z" stroke="#FCFCFC" stroke-width="1.5" stroke-miterlimit="10" stroke-linecap="round" stroke-linejoin="round"/>
</svg>
