<svg width="24" height="25" viewBox="0 0 24 25" fill="none" xmlns="http://www.w3.org/2000/svg">
<path d="M12 1H12.0068C12.0465 0.999438 12.0862 1.0067 12.123 1.02148C12.1598 1.03625 12.1934 1.05819 12.2217 1.08594C12.25 1.11386 12.2727 1.14789 12.2881 1.18457C12.3033 1.22109 12.3115 1.26022 12.3115 1.2998C12.3115 1.33957 12.3034 1.37934 12.2881 1.41602C12.2727 1.45265 12.25 1.48578 12.2217 1.51367C12.1934 1.54154 12.1599 1.56332 12.123 1.57812C12.0862 1.59295 12.0466 1.60115 12.0068 1.60059V1.59961H12C5.97065 1.59961 1.09963 6.47065 1.09961 12.5C1.09961 18.5294 5.97064 23.4004 12 23.4004C18.0293 23.4004 22.9004 18.5294 22.9004 12.5C22.9004 7.37456 19.3717 3.08761 14.6201 1.91504L14.6191 1.91406C14.5807 1.90457 14.5446 1.88771 14.5127 1.86426C14.4807 1.84074 14.4532 1.81132 14.4326 1.77734C14.4122 1.74354 14.3986 1.70602 14.3926 1.66699C14.3866 1.62782 14.388 1.58731 14.3975 1.54883C14.4069 1.51026 14.4247 1.4734 14.4482 1.44141C14.4717 1.40959 14.5013 1.38278 14.5352 1.3623C14.569 1.34185 14.6064 1.32829 14.6455 1.32227C14.6651 1.31927 14.6854 1.31748 14.7051 1.31836L14.7637 1.32715C19.7818 2.56533 23.5 7.10982 23.5 12.5C23.5 18.8418 18.3418 24 12 24C5.65822 24 0.5 18.8418 0.5 12.5C0.500022 6.15823 5.65824 1 12 1Z" fill="#FCFCFC" stroke="#FCFCFC"/>
<path d="M8.66699 10.7334C9.21724 10.7335 9.72147 10.9425 10.1074 11.2891L10.375 11.5283L10.6875 11.3525L11.2041 11.0605L11.2109 11.0566C11.2519 11.0327 11.2983 11.0184 11.3457 11.0156H11.3467C11.4147 11.0115 11.4824 11.031 11.5381 11.0703C11.5937 11.1096 11.6344 11.167 11.6533 11.2324C11.6721 11.2978 11.6687 11.3678 11.6426 11.4307C11.6165 11.4935 11.5693 11.5453 11.5098 11.5781L11.5029 11.582L11.0195 11.8574L10.6934 12.042L10.7803 12.4072C10.8163 12.559 10.833 12.7232 10.833 12.9004C10.833 13.0719 10.8159 13.2333 10.7803 13.3857L10.6953 13.748L11.0176 13.9336L13.0342 15.0918L13.3496 15.2734L13.6191 15.0293C14.0062 14.6787 14.5131 14.4669 15.0664 14.4668C16.2535 14.4668 17.2334 15.4467 17.2334 16.6338C17.2331 17.8207 16.2534 18.7998 15.0664 18.7998C13.8795 18.7997 12.9007 17.8206 12.9004 16.6338C12.9004 16.4566 12.9171 16.2924 12.9531 16.1406L13.04 15.7764L12.7139 15.5908L10.6973 14.4404L10.3828 14.2607L10.1143 14.5039C9.72718 14.8545 9.22025 15.0663 8.66699 15.0664C7.47999 15.0664 6.50023 14.0873 6.5 12.9004C6.5 11.7133 7.47986 10.7334 8.66699 10.7334ZM15.0664 15.0664C14.5217 15.0665 14.0476 15.3367 13.7676 15.7549L13.749 15.7832C13.7472 15.786 13.745 15.789 13.7432 15.792L13.7324 15.8096L13.7227 15.8291C13.7188 15.8365 13.7144 15.8435 13.71 15.8506L13.7021 15.8633L13.6943 15.8779C13.5748 16.0975 13.5 16.3538 13.5 16.6338C13.5003 17.5082 14.192 18.2001 15.0664 18.2002C15.941 18.2002 16.6326 17.5083 16.6328 16.6338C16.6328 15.7591 15.9411 15.0664 15.0664 15.0664ZM8.66699 11.333C7.79227 11.333 7.09961 12.0257 7.09961 12.9004C7.09983 13.7749 7.79241 14.4668 8.66699 14.4668C9.54142 14.4666 10.2332 13.7748 10.2334 12.9004C10.2334 12.0258 9.54155 11.3332 8.66699 11.333ZM15.0664 7C16.2535 7 17.2334 7.97986 17.2334 9.16699C17.2332 10.354 16.2534 11.333 15.0664 11.333C13.8795 11.3329 12.9006 10.3539 12.9004 9.16699C12.9004 7.97993 13.8794 7.00013 15.0664 7ZM15.0664 7.59961C14.1918 7.59973 13.5 8.29235 13.5 9.16699C13.5002 10.0415 14.1919 10.7333 15.0664 10.7334C15.941 10.7334 16.6326 10.0416 16.6328 9.16699C16.6328 8.29227 15.9411 7.59961 15.0664 7.59961Z" fill="#F0806C" stroke="#FCFCFC"/>
</svg>
