<svg width="26" height="26" viewBox="0 0 26 26" fill="none" xmlns="http://www.w3.org/2000/svg">
<path d="M20.2193 4.23164C20.4063 4.41486 20.5896 4.60196 20.7726 4.78988C20.8108 4.82767 20.8489 4.86545 20.8883 4.90438C21.2427 5.26507 21.5308 5.69329 21.8243 6.1108C21.8496 6.14642 21.8749 6.18205 21.9009 6.21875C23.2854 8.1827 24.1529 10.7407 24.1755 13.2144C24.1761 13.2664 24.1767 13.3184 24.1773 13.372C24.1876 14.5606 24.1667 15.7009 23.9279 16.8668C23.9175 16.9211 23.9072 16.9753 23.8965 17.0313C23.7303 17.8798 23.4324 18.6757 23.1318 19.4772C23.1124 19.5289 23.093 19.5807 23.0731 19.634C23.017 19.7831 22.9602 19.932 22.903 20.0807C22.8862 20.1252 22.8693 20.1698 22.852 20.2157C22.7102 20.5798 22.5581 20.9355 22.2376 21.1549C21.9563 21.2758 21.6383 21.2412 21.3402 21.2389C21.2602 21.2392 21.1801 21.2396 21.1 21.2401C20.8803 21.2412 20.6606 21.2406 20.4409 21.2399C20.2038 21.2393 19.9667 21.2402 19.7296 21.2409C19.2653 21.242 18.801 21.2417 18.3367 21.241C17.9594 21.2404 17.582 21.2404 17.2047 21.2406C17.151 21.2407 17.0973 21.2407 17.042 21.2408C16.9329 21.2408 16.8239 21.2409 16.7148 21.241C15.6919 21.2417 14.669 21.2409 13.6461 21.2395C12.7683 21.2384 11.8904 21.2386 11.0126 21.2398C9.99338 21.2411 8.97415 21.2416 7.95492 21.2409C7.84625 21.2408 7.73757 21.2407 7.6289 21.2406C7.57543 21.2406 7.52197 21.2406 7.46688 21.2405C7.08997 21.2403 6.71306 21.2407 6.33615 21.2413C5.87687 21.242 5.41759 21.2418 4.9583 21.2404C4.72394 21.2398 4.48959 21.2395 4.25523 21.2403C4.04069 21.2411 3.82619 21.2407 3.61166 21.2393C3.49727 21.2389 3.38287 21.2398 3.26848 21.2406C2.64576 21.2346 2.64576 21.2346 2.36652 20.9554C2.17572 20.6928 2.05646 20.4095 1.94335 20.1015C1.91801 20.0339 1.91801 20.0339 1.89216 19.9649C1.83795 19.8196 1.78444 19.674 1.73108 19.5283C1.71276 19.4785 1.69444 19.4287 1.67557 19.3775C1.04987 17.6741 0.6451 16.0014 0.555136 14.1621C0.551596 14.0898 0.548056 14.0176 0.544409 13.9432C0.540218 13.7423 0.545591 13.5451 0.555136 13.3444C0.557537 13.2928 0.559938 13.2413 0.562412 13.1882C0.725936 9.97464 1.88814 7.11368 3.94419 4.78988C3.98885 4.73775 4.03352 4.68561 4.07954 4.63189C7.95358 0.249876 14.8477 -0.109733 20.2193 4.23164ZM5.93087 5.67049C5.88259 5.71484 5.83431 5.7592 5.78456 5.80489C3.84792 7.62212 2.73198 10.196 2.5053 12.9355C2.3679 15.1945 2.92081 17.1163 3.71046 19.1941C9.45665 19.1941 15.2028 19.1941 21.1232 19.1941C22.2939 16.0435 22.7555 12.9712 21.5398 9.73514C20.6622 7.54624 19.2303 5.75609 17.3251 4.53828C17.291 4.51648 17.2569 4.49468 17.2218 4.47221C13.6801 2.24475 8.99921 2.77449 5.93087 5.67049Z" fill="#54B48F"/>
<path d="M12.7876 4.72976C13.1509 4.87286 13.3308 5.05351 13.5191 5.35041C13.5615 5.56213 13.5603 5.77084 13.559 5.98521C13.5598 6.04823 13.5605 6.11124 13.5613 6.17616C13.5635 6.3837 13.5636 6.59121 13.5637 6.79876C13.5647 6.94294 13.566 7.08713 13.5673 7.23131C13.5705 7.61026 13.572 7.98921 13.5731 8.36817C13.5745 8.75508 13.5776 9.14198 13.5805 9.52889C13.586 10.2877 13.5897 11.0464 13.5922 11.8052C13.6477 11.8304 13.7032 11.8557 13.7604 11.8818C13.8331 11.9151 13.9057 11.9484 13.9806 11.9827C14.0527 12.0156 14.1248 12.0486 14.199 12.0825C14.9884 12.4618 15.5463 13.0825 15.8089 13.8138C16.0048 14.6831 15.923 15.5541 15.3706 16.3165C14.7731 17.0122 14.0275 17.4948 13.0162 17.6664C11.8818 17.7922 10.9315 17.5527 9.99428 17.007C9.13555 16.2784 8.81636 15.5214 8.81445 14.518C8.82185 14.0884 8.89091 13.7403 9.13022 13.3568C9.1793 13.2759 9.1793 13.2759 9.22937 13.1934C9.67834 12.5091 10.2913 12.1483 11.1052 11.8052C11.1055 11.7251 11.1057 11.6451 11.106 11.5626C11.1087 10.8083 11.1129 10.054 11.1187 9.29968C11.1215 8.91188 11.1239 8.52409 11.125 8.13628C11.1261 7.76201 11.1287 7.38777 11.1321 7.01352C11.1332 6.87074 11.1338 6.72796 11.1339 6.58518C11.134 6.38517 11.136 6.18522 11.1384 5.98521C11.1381 5.9262 11.1377 5.86718 11.1373 5.80637C11.1438 5.45741 11.1955 5.25438 11.4709 4.97802C11.8565 4.66721 12.2835 4.67218 12.7876 4.72976ZM11.3704 14.1404C11.2091 14.4245 11.1932 14.6605 11.2515 14.9705C11.4219 15.2708 11.629 15.4466 11.983 15.5911C12.3483 15.6406 12.6265 15.6271 12.9613 15.4903C13.2235 15.289 13.4163 15.1278 13.4739 14.8216C13.4927 14.4689 13.4413 14.2475 13.1533 13.9775C12.8351 13.7331 12.5742 13.6895 12.1584 13.7054C11.7975 13.7543 11.6076 13.9179 11.3704 14.1404Z" fill="#54B48F"/>
</svg>
