<svg width="49" height="48" viewBox="0 0 49 48" fill="none" xmlns="http://www.w3.org/2000/svg">
<g clip-path="url(#clip0_57917_6723)">
<path d="M32.5419 32L24.5419 24M24.5419 24L16.5419 32M24.5419 24V42M41.3219 36.78C43.2726 35.7165 44.8136 34.0338 45.7017 31.9972C46.5897 29.9607 46.7743 27.6865 46.2263 25.5334C45.6783 23.3803 44.4289 21.471 42.6753 20.1069C40.9216 18.7428 38.7636 18.0015 36.5419 18H34.0219C33.4165 15.6585 32.2882 13.4847 30.7218 11.642C29.1554 9.7993 27.1916 8.3357 24.9781 7.36121C22.7646 6.38673 20.359 5.92672 17.9421 6.01576C15.5253 6.10481 13.16 6.7406 11.0243 7.87533C8.88849 9.01006 7.03774 10.6142 5.61116 12.5672C4.18458 14.5201 3.21929 16.7711 2.78787 19.1508C2.35645 21.5305 2.47012 23.9771 3.12034 26.3065C3.77056 28.636 4.9404 30.7877 6.54191 32.6" stroke="#F0806C" stroke-width="4" stroke-linecap="round" stroke-linejoin="round"/>
</g>
<defs>
<clipPath id="clip0_57917_6723">
<rect width="48" height="48" fill="white" transform="translate(0.541016)"/>
</clipPath>
</defs>
</svg>
