<svg width="327" height="335" viewBox="0 0 327 335" fill="none" xmlns="http://www.w3.org/2000/svg">
<path d="M210.93 122.819C210.93 122.819 246.979 67.9202 186.641 36.0024C111.73 -4.08632 -28.376 97.5398 5.11661 185.378C38.3535 272.96 194.567 170.568 210.93 122.819Z" fill="#FFECE3"/>
<path d="M101.755 308.201C101.755 308.201 74.9102 347.779 117.607 392.464C117.607 392.464 136.526 379.186 141.64 346.758C146.753 314.329 156.468 269.644 101.755 308.201Z" fill="#FFECE3"/>
<path d="M205.305 230.062H151.614L144.967 307.176L239.82 309.985V264.278C239.82 245.383 224.48 230.062 205.305 230.062Z" fill="#252D3B"/>
<path d="M108.916 137.123H89.9967C58.5495 137.123 33.2383 162.657 33.2383 193.809V266.582C33.2383 301.308 61.3618 329.14 95.8771 329.14H139.085C156.726 329.14 170.532 314.586 169.765 296.967C168.231 268.624 166.442 226.493 165.675 192.788C164.908 161.891 139.852 137.123 108.916 137.123Z" fill="#252D3B"/>
<path d="M147.27 133.802C130.908 123.844 118.38 130.483 108.664 129.462C81.8192 126.398 60.8544 127.419 47.5596 168.529C45.2586 175.423 40.6566 191.51 41.6793 197.383C47.0483 230.066 86.1656 212.703 86.1656 212.703C86.1656 212.703 64.9451 275.773 179.485 234.407C179.485 234.407 168.235 212.192 162.355 188.956C157.241 168.784 164.911 144.271 147.27 133.802Z" fill="white" stroke="#252D3B" stroke-width="1.30454" stroke-miterlimit="10" stroke-linecap="round"/>
<path d="M136.019 161.633C136.019 161.633 140.621 169.293 138.576 177.464C136.53 185.635 131.673 200.445 133.207 208.871" stroke="white" stroke-width="1.30454" stroke-miterlimit="10" stroke-linecap="round"/>
<path d="M119.398 194.064C119.398 194.064 86.1612 177.978 69.2871 186.149L119.398 194.064Z" fill="white"/>
<path d="M119.398 194.064C119.398 194.064 86.1612 177.978 69.2871 186.149" stroke="#252D3B" stroke-width="1.30454" stroke-miterlimit="10" stroke-linecap="round"/>
<path d="M87.1867 165.463C87.1867 165.463 81.3063 171.591 78.2383 183.592L87.1867 165.463Z" fill="white"/>
<path d="M87.1867 165.463C87.1867 165.463 81.3063 171.591 78.2383 183.592" stroke="#252D3B" stroke-width="1.30454" stroke-miterlimit="10" stroke-linecap="round"/>
<path d="M119.91 115.418C92.5532 129.206 112.495 117.46 106.104 118.737C97.4109 121.291 85.1388 112.098 88.9739 106.736C93.8316 100.097 83.8605 104.183 86.9285 95.5011C87.4399 93.969 89.4852 93.203 89.4852 91.4156C89.4852 87.0748 91.2749 84.5214 95.6213 81.4572C103.547 75.5844 109.172 82.4786 109.172 82.4786C109.172 82.4786 109.939 79.4145 115.819 79.9252C122.978 80.6912 122.722 86.5641 126.557 88.6068C132.949 92.1816 128.091 101.885 121.444 106.736C116.842 109.8 117.353 113.886 119.91 115.418Z" fill="#393837"/>
<path d="M115.056 95.2427C118.635 92.9446 122.982 91.9233 123.749 96.7748C124.26 99.8389 124.516 100.605 125.794 105.456C128.351 115.415 121.703 122.564 112.244 119.756C102.528 116.947 100.227 112.606 100.738 100.86C100.994 92.1786 106.108 95.2427 106.108 95.2427C106.108 95.2427 109.687 98.8175 115.056 95.2427Z" fill="white"/>
<path d="M122.472 101.372C122.472 102.138 122.216 102.904 121.705 102.904C121.193 102.904 120.938 102.138 120.938 101.372C120.938 100.606 121.193 99.8398 121.705 99.8398C121.96 100.095 122.472 100.606 122.472 101.372Z" fill="#252D3B"/>
<path d="M113.261 102.391C113.517 103.157 113.261 103.923 113.006 103.923C112.75 104.178 112.239 103.667 111.983 102.901C111.727 102.135 111.983 101.369 112.239 101.369C112.494 101.114 113.006 101.624 113.261 102.391Z" fill="#252D3B"/>
<path d="M119.395 120.01C119.395 120.01 118.628 124.861 121.441 128.947C121.441 128.947 123.742 136.862 121.441 145.033C120.674 147.587 117.606 148.353 115.816 146.821C111.725 143.246 105.334 137.118 103.544 130.223C103.544 130.223 103.8 117.712 102.266 111.328C102.266 111.073 118.373 119.244 119.395 120.01Z" fill="white"/>
<path d="M119.399 120.013C119.399 120.013 115.053 121.035 109.94 118.481C105.082 115.928 111.985 125.376 119.655 125.12C119.911 125.12 119.144 123.333 119.399 120.013Z" fill="#252D3B"/>
<path d="M119.4 97.2858C119.4 97.2858 121.446 97.0304 123.235 98.0518C125.025 98.8178 121.19 93.9663 119.4 97.2858Z" fill="#252D3B"/>
<path d="M111.727 98.8184C111.727 98.8184 109.682 99.5844 108.915 100.606C107.892 101.883 108.404 96.265 111.727 98.8184Z" fill="#252D3B"/>
<path d="M103.292 106.739C103.292 106.739 100.735 103.93 97.9226 104.441C95.3659 104.952 97.1556 112.867 102.78 111.335C108.661 110.058 103.292 106.739 103.292 106.739Z" fill="white"/>
<path d="M101.506 108.009C101.506 108.009 100.739 105.966 98.6934 106.221" stroke="#252D3B" stroke-width="1.30454" stroke-miterlimit="10" stroke-linecap="round"/>
<path d="M100.735 104.694C100.735 104.694 106.104 101.885 106.104 92.4378C106.104 82.9902 92.2977 93.4592 100.735 104.694Z" fill="#363636"/>
<path d="M102.266 111.844C102.266 111.844 104.311 121.802 103.288 129.718" stroke="#252D3B" stroke-width="1.30454" stroke-miterlimit="10" stroke-linecap="round"/>
<path d="M119.4 120.527C119.4 123.081 120.423 128.698 121.957 129.72" stroke="#252D3B" stroke-width="1.30454" stroke-miterlimit="10" stroke-linecap="round"/>
<path d="M137.295 246.151C137.295 246.151 141.641 237.98 156.726 232.618C172.577 227.001 189.963 228.533 204.791 236.448C220.643 245.13 241.608 262.748 259.249 299.007C285.071 346.756 299.644 366.417 299.644 366.417C299.644 366.417 270.498 376.631 238.54 368.205C238.54 368.205 228.313 352.884 216.041 334.5C203.769 315.86 189.707 293.9 182.293 280.367C166.952 253.045 137.295 246.151 137.295 246.151Z" fill="#F0806C"/>
<path d="M216.551 336.537C216.551 336.537 231.635 293.384 219.875 269.382C208.114 245.635 159.281 232.357 159.281 232.357" stroke="#252D3B" stroke-width="1.30454" stroke-miterlimit="10" stroke-linecap="round"/>
<path d="M222.691 314.326C222.691 314.326 235.219 338.839 258.996 371.012" stroke="#252D3B" stroke-width="1.30454" stroke-miterlimit="10" stroke-linecap="round"/>
<path d="M125.282 102.904C126.816 113.118 125.282 120.012 117.867 120.268" stroke="#252D3B" stroke-width="1.30454" stroke-miterlimit="10" stroke-linecap="round"/>
<path d="M115.31 112.348C115.31 112.348 114.798 114.646 118.122 114.901" stroke="#252D3B" stroke-width="1.30454" stroke-miterlimit="10" stroke-linecap="round"/>
<path d="M111.477 208.102C111.477 208.102 111.988 196.867 119.914 194.058C119.914 194.058 132.441 194.058 142.157 190.739C151.872 187.419 157.241 206.315 157.241 206.315C157.241 206.315 154.685 208.868 148.804 201.208C148.548 200.953 148.293 201.208 148.548 201.463L150.083 207.336" fill="white"/>
<path d="M111.477 208.102C111.477 208.102 111.988 196.867 119.914 194.058C119.914 194.058 132.441 194.058 142.157 190.739C151.872 187.419 157.241 206.315 157.241 206.315C157.241 206.315 154.685 208.868 148.804 201.208C148.548 200.953 148.293 201.208 148.548 201.463L150.083 207.336" stroke="#252D3B" stroke-width="1.30454" stroke-miterlimit="10" stroke-linecap="round"/>
<path d="M136.529 199.164C136.529 199.164 140.364 195.844 142.665 195.334C144.966 194.823 148.546 201.207 148.546 201.207" fill="white"/>
<path d="M136.529 199.164C136.529 199.164 140.364 195.844 142.665 195.334C144.966 194.823 148.546 201.207 148.546 201.207" stroke="#252D3B" stroke-width="1.30454" stroke-miterlimit="10" stroke-linecap="round"/>
<path d="M136.018 202.229C136.018 202.229 143.943 199.165 143.432 205.037L136.018 202.229Z" fill="white"/>
<path d="M136.018 202.229C136.018 202.229 143.943 199.165 143.432 205.037" stroke="#252D3B" stroke-width="1.30454" stroke-miterlimit="10" stroke-linecap="round"/>
<path d="M98.9453 128.697C98.9453 128.697 104.059 137.889 116.331 136.357C128.603 134.825 123.745 128.441 123.745 128.441" stroke="#252D3B" stroke-width="1.30454" stroke-miterlimit="10" stroke-linecap="round"/>
<path d="M102.525 79.4164C94.8551 78.3951 85.1397 83.2466 90.253 93.9709" stroke="#393837" stroke-width="1.30454" stroke-miterlimit="10" stroke-linecap="round"/>
<path d="M123.742 87.3301C123.742 87.3301 132.179 91.9262 132.435 95.501C132.435 99.3312 130.134 101.119 130.134 101.119" stroke="#393837" stroke-width="1.30454" stroke-miterlimit="10" stroke-linecap="round"/>
<path d="M177.95 205.041H130.651C129.884 205.041 129.373 205.552 129.373 206.318C129.373 207.084 129.884 207.594 130.651 207.594H177.95C178.717 207.594 179.228 207.084 179.228 206.318C179.484 205.552 178.717 205.041 177.95 205.041Z" fill="white" stroke="#252D3B" stroke-width="1.30454" stroke-miterlimit="10" stroke-linecap="round"/>
<path d="M151.613 196.615H280.214C283.538 196.615 286.35 193.806 286.35 190.487L300.667 110.054C300.667 106.735 297.855 103.926 294.531 103.926H165.93C162.606 103.926 159.794 106.735 159.794 110.054L145.477 190.487C145.477 194.062 148.289 196.615 151.613 196.615Z" fill="#252D3B"/>
<path d="M155.702 196.615H284.304C287.627 196.615 290.44 193.806 290.44 190.487L304.757 110.054C304.757 106.735 301.945 103.926 298.621 103.926H170.02C166.696 103.926 163.884 106.735 163.884 110.054L149.566 190.487C149.566 194.062 152.379 196.615 155.702 196.615Z" fill="white" stroke="#252D3B" stroke-width="1.30454" stroke-miterlimit="10" stroke-linecap="round"/>
<path d="M200.444 178.227H248.765C250.043 178.227 251.066 177.205 251.066 175.928L256.435 145.798C256.435 144.521 255.412 143.5 254.134 143.5H205.813C204.534 143.5 203.512 144.521 203.512 145.798L198.143 175.928C198.143 177.205 199.165 178.227 200.444 178.227Z" fill="#FFECE3"/>
<path d="M206.58 203.51H234.959L243.652 160.357C244.163 157.804 243.141 155.506 240.328 155.506H220.13C217.574 155.506 215.273 157.549 215.273 160.357L206.58 203.51Z" fill="white" stroke="#252D3B" stroke-width="1.30454" stroke-miterlimit="10" stroke-linecap="round"/>
<path d="M240.583 203.252H194.307C193.028 203.252 191.75 204.273 191.75 205.805C191.75 207.082 192.773 208.359 194.307 208.359H240.583C241.861 208.359 243.139 207.337 243.139 205.805C242.884 204.273 241.861 203.252 240.583 203.252Z" fill="#252D3B"/>
<path d="M60.3404 328.118C60.3404 328.118 49.091 361.823 69.2888 393.997C69.2888 393.997 76.4476 379.953 90.2537 393.997C106.616 410.338 91.0207 415.445 121.701 437.405C121.701 437.405 183.317 433.83 170.534 312.287" stroke="#252D3B" stroke-width="1.30454" stroke-miterlimit="10" stroke-linecap="round"/>
<path d="M84.8859 238.491C84.8859 238.491 102.271 230.064 133.463 230.575C152.894 230.83 182.296 238.491 197.891 250.492C210.419 260.195 221.924 274.749 222.947 295.177C224.225 322.243 204.283 376.375 204.283 376.375C204.283 376.375 177.949 380.716 149.059 369.992C149.059 369.992 150.593 324.03 162.353 300.539C163.376 298.496 161.842 296.198 159.541 296.198C141.644 295.943 83.0962 293.9 84.8859 273.728C86.9312 250.236 84.8859 238.491 84.8859 238.491Z" fill="#F0806C"/>
<path d="M117.607 263.514C117.607 263.514 141.385 282.409 182.547 282.409C186.127 282.409 188.683 285.984 187.405 289.303C182.036 304.879 169.252 342.67 164.395 374.332" stroke="#252D3B" stroke-width="1.30454" stroke-miterlimit="10" stroke-linecap="round"/>
<path d="M120.166 230.064H66.4755L59.8281 307.178L154.681 309.987V264.28C154.681 245.385 139.341 230.064 120.166 230.064Z" fill="#252D3B"/>
<path d="M86.4167 229.555H58.5488" stroke="white" stroke-width="1.30454" stroke-miterlimit="10" stroke-linecap="round"/>
<path d="M154.68 296.197V308.198" stroke="white" stroke-width="1.30454" stroke-miterlimit="10" stroke-linecap="round"/>
<path d="M73.12 216.019H295.296C297.597 216.019 299.387 214.231 299.387 211.933C299.387 209.635 297.597 207.848 295.296 207.848H73.12C70.819 207.848 69.0293 209.635 69.0293 211.933C69.0293 214.231 70.819 216.019 73.12 216.019Z" fill="#252D3B"/>
<path d="M201.214 20.4303C213.23 23.239 216.298 26.0478 219.111 38.3042C219.366 39.0702 220.389 39.0702 220.389 38.3042C223.201 26.3031 226.014 23.239 238.286 20.4303C239.053 20.1749 239.053 19.1535 238.286 19.1535C226.269 16.3448 223.201 13.536 220.389 1.2796C220.133 0.513572 219.111 0.513572 219.111 1.2796C216.298 13.2807 213.486 16.3448 201.214 19.1535C200.447 19.1535 200.447 20.1749 201.214 20.4303Z" fill="white"/>
<path d="M201.214 20.4303C213.23 23.239 216.298 26.0478 219.111 38.3042C219.366 39.0702 220.389 39.0702 220.389 38.3042C223.201 26.3031 226.014 23.239 238.286 20.4303C239.053 20.1749 239.053 19.1535 238.286 19.1535C226.269 16.3448 223.201 13.536 220.389 1.2796C220.133 0.513572 219.111 0.513572 219.111 1.2796C216.298 13.2807 213.486 16.3448 201.214 19.1535C200.447 19.1535 200.447 20.1749 201.214 20.4303Z" stroke="#F0806C" stroke-width="1.30454" stroke-miterlimit="10" stroke-linecap="round"/>
<path d="M258.482 65.3712C263.001 65.3712 266.664 61.7129 266.664 57.2002C266.664 52.6876 263.001 49.0293 258.482 49.0293C253.964 49.0293 250.301 52.6876 250.301 57.2002C250.301 61.7129 253.964 65.3712 258.482 65.3712Z" fill="#252D3B"/>
</svg>
