<svg width="411" height="230" viewBox="0 0 411 230" fill="none" xmlns="http://www.w3.org/2000/svg">
<g clip-path="url(#clip0_1173_24934)">
<path d="M97.793 90.7593C97.793 90.7593 105.44 96.1765 106.964 95.2886C108.488 94.4007 109.584 89.3427 109.584 89.3427C110.426 89.4625 111.079 89.6769 111.901 89.4425C112.673 89.0484 111.308 85.6265 111.452 83.1723C111.597 80.7181 112.309 77.4858 111.532 75.9844" stroke="black" stroke-width="1.56" stroke-miterlimit="10"/>
<path d="M89.6426 91.04C91.2465 89.5462 92.6892 87.8877 93.9467 86.0918" stroke="black" stroke-width="1.56" stroke-miterlimit="10"/>
<path d="M102.117 94.3613C102.117 94.3613 97.9371 99.2548 97.967 101.15" stroke="black" stroke-width="1.56" stroke-miterlimit="10"/>
<path d="M91.3321 89.3691L97.9575 100.203L89.7578 90.9404L91.3321 89.3691Z" fill="black"/>
<path d="M91.7404 87.9958C91.307 86.8435 86.8436 71.8439 91.2971 68.6814C95.7506 65.5189 103.651 64.651 109.395 67.1002C115.139 69.5494 114.96 74.2283 111.532 75.9842C108.105 77.74 101.494 75.4404 100.777 76.5927C100.456 77.1748 100.237 77.8074 100.129 78.4633C100.104 78.6043 100.048 78.7379 99.9637 78.854C99.8798 78.97 99.7708 79.0656 99.6449 79.1337C99.519 79.2018 99.3793 79.2405 99.2364 79.2471C99.0934 79.2536 98.9509 79.2278 98.8193 79.1716C98.2947 78.9204 97.6979 78.8639 97.1355 79.012C95.4069 79.446 96.468 86.6588 95.1728 87.5218C93.8776 88.3847 91.7404 87.9958 91.7404 87.9958Z" fill="black"/>
<path d="M85.7188 229.003C85.9399 210.333 93.5021 192.502 106.766 179.377C120.029 166.253 137.925 158.893 156.572 158.893C175.219 158.893 193.114 166.253 206.378 179.377C219.641 192.502 227.204 210.333 227.425 229.003H85.7188Z" fill="#FFD9D2"/>
<path d="M101.449 104.732L100.951 109.106C100.94 109.206 100.902 109.301 100.842 109.381C100.782 109.462 100.701 109.526 100.608 109.565C100.513 109.605 100.411 109.62 100.309 109.61C100.208 109.598 100.112 109.561 100.03 109.501L99.7658 109.296L99.8903 107.63C99.9977 106.214 99.719 104.795 99.0837 103.526C98.4485 102.256 97.4806 101.184 96.2836 100.422L86.5197 94.2068C86.1634 93.9902 85.7797 93.8224 85.3789 93.708L87.5908 91.2587C87.7544 91.083 87.9529 90.9438 88.1736 90.8498C88.3969 90.7546 88.6385 90.7103 88.881 90.7201C89.1219 90.7254 89.3587 90.7836 89.5747 90.8904C89.7907 90.9973 89.9807 91.1503 90.1313 91.3386L101.449 104.732Z" stroke="black" stroke-width="1.56" stroke-miterlimit="10"/>
<path d="M85.3945 93.6738C85.7954 93.7882 86.1791 93.956 86.5353 94.1726L96.2993 100.388C97.4962 101.149 98.464 102.222 99.0992 103.492C99.7345 104.761 100.013 106.18 99.9059 107.596L99.7614 109.262" stroke="black" stroke-width="1.56" stroke-miterlimit="10"/>
<path d="M96.0249 142.229L93.6836 156.694" stroke="black" stroke-width="1.56" stroke-miterlimit="10"/>
<path d="M99.7607 109.291L97.0059 130.501" stroke="black" stroke-width="1.56" stroke-miterlimit="10"/>
<path d="M138.447 183.585L121.739 226.009H112.214L121.759 177.016C119.517 178.467 115.911 179.889 111.492 181.041C100.996 183.759 85.9316 184.922 73.7467 181.24C63.664 178.188 55.5938 171.818 53.7258 160.29C53.4817 158.794 53.3023 157.297 53.1777 155.801C60.2566 160.729 111.826 153.406 128.898 159.108C132.474 160.29 145.013 166.271 138.447 183.585Z" fill="#F0806C"/>
<path d="M53.1577 155.791C53.078 155.731 53.0033 155.681 52.9336 155.621" stroke="black" stroke-width="1.56" stroke-miterlimit="10"/>
<path d="M53.1582 155.791C57.9804 126.441 72.1779 102.832 81.3889 94.5964C81.9224 94.11 82.5701 93.7668 83.2718 93.5988C83.9722 93.4348 84.7029 93.4536 85.394 93.6536" stroke="black" stroke-width="1.56" stroke-miterlimit="10"/>
<path d="M398.626 229.611H95.168" stroke="black" stroke-width="1.56" stroke-miterlimit="10"/>
<path d="M44.4658 229.611H-0.00976562" stroke="black" stroke-width="1.56" stroke-miterlimit="10"/>
<path d="M111.479 181.051C100.978 183.769 85.8834 184.932 73.7383 181.245" stroke="black" stroke-width="1.56" stroke-miterlimit="10"/>
<path d="M109.226 184.648C99.4388 186.846 90.7907 187.946 83.2818 187.946C70.9723 187.946 61.627 185.003 54.9766 179.112C38.6171 164.591 41.5661 135.215 44.6846 104.104L44.9686 101.181C45.066 100.407 45.4616 99.7012 46.0712 99.2148C46.6807 98.7284 47.456 98.4997 48.2315 98.5774C49.0061 98.6558 49.7196 99.0338 50.2201 99.6309C50.7207 100.228 50.9687 100.997 50.9115 101.775L50.6077 104.733C47.6487 134.248 44.854 162.207 58.9269 174.682C62.688 178.024 67.5949 180.219 73.7272 181.291C85.9121 184.973 100.976 183.785 111.468 181.092C111.554 181.472 111.564 181.866 111.497 182.251C111.43 182.635 111.288 183.002 111.079 183.331C110.659 183.998 109.993 184.471 109.226 184.648V184.648Z" stroke="black" stroke-width="1.56" stroke-miterlimit="10"/>
<path d="M95.1673 229.601H44.4648C48.5996 226.798 58.4132 224.822 69.816 224.822C81.2189 224.822 91.0326 226.798 95.1673 229.601Z" stroke="black" stroke-width="1.56" stroke-miterlimit="10"/>
<path d="M73.996 187.188L69.8164 224.828" stroke="black" stroke-width="1.56" stroke-miterlimit="10"/>
<path d="M150.389 131.908C150.389 131.908 161.667 137.44 160.925 137.665C159.864 138.054 156.023 136.447 156.023 136.447C156.023 136.447 154.335 138.064 153.468 137.854C152.373 137.601 151.313 137.212 150.314 136.697" stroke="black" stroke-width="1.56" stroke-miterlimit="10"/>
<path d="M111.479 229.601L112.191 226.02H120.54C124.525 226.02 128.421 227.646 131.888 229.601H111.479Z" stroke="black" stroke-miterlimit="10"/>
<path d="M121.741 226.019H112.216L121.76 177.025C119.519 178.477 115.912 179.898 111.493 181.051C100.997 183.769 85.933 184.932 73.748 181.25" stroke="black" stroke-width="1.56" stroke-miterlimit="10"/>
<path d="M53.1582 155.791C57.3925 158.744 77.5679 157.287 96.742 156.893" stroke="black" stroke-width="1.56" stroke-miterlimit="10"/>
<path d="M111.473 181.051C100.976 183.769 85.9121 184.932 73.7272 181.25C63.6444 178.198 55.5743 171.828 53.7062 160.3C53.4621 158.803 53.2827 157.307 53.1582 155.811" stroke="black" stroke-width="1.56" stroke-miterlimit="10"/>
<path d="M121.735 226.029H112.186L121.735 177.025" stroke="black" stroke-width="1.56" stroke-miterlimit="10"/>
<path d="M229.85 139.689H142.135V145.466H229.85" stroke="black" stroke-width="1.16" stroke-miterlimit="10"/>
<path d="M150.607 145.451V229.841" stroke="black" stroke-width="1.16" stroke-miterlimit="10"/>
<path d="M90.8399 105.979L97.022 130.5L147.296 131.448L148.063 138.078L92.7279 142.357C91.4968 142.456 90.2655 142.17 89.2031 141.54C88.1407 140.909 87.2993 139.965 86.7948 138.836L78.127 116.299" stroke="black" stroke-width="1.56" stroke-miterlimit="10"/>
<path d="M180.522 138.018H149.99V139.768H180.522V138.018Z" fill="black"/>
<path d="M178.594 138.069L188.876 114.799L190.081 115.198L180.292 138.019L178.594 138.069Z" stroke="black" stroke-miterlimit="10"/>
<path d="M148.157 137.554L150.03 137.479L150.344 131.528L147.295 131.453" stroke="black" stroke-width="1.56" stroke-miterlimit="10"/>
<path d="M95.2279 146.313C95.2279 146.313 86.3806 146.772 85.0655 143.69C81.3443 134.975 77.8223 116.549 77.8223 116.549C77.8223 116.549 85.0954 135.933 86.7891 138.836C88.4828 141.739 91.0583 142.447 93.5392 142.328L96.03 142.218L95.2279 146.313Z" fill="black"/>
<path d="M314.023 196.5H347.569L344.232 229.612H316.594L314.023 196.5Z" stroke="black" stroke-miterlimit="10"/>
<path d="M296.504 229.072C297.186 229.072 316.495 222.428 316.495 222.428L316.993 229.411L296.504 229.072Z" fill="black"/>
<path d="M315.922 155.736L329.985 167.648C329.985 167.648 329.771 190.733 329.796 192.285" stroke="black" stroke-miterlimit="10"/>
<path d="M326.438 164.639L330.209 139.444L351.57 126.799" stroke="black" stroke-miterlimit="10" stroke-linecap="round"/>
<path d="M339.001 134.243L321.261 100.298L303.049 90.332" stroke="black" stroke-miterlimit="10" stroke-linecap="round"/>
<path d="M322.857 155.921C322.359 156.53 321.059 156.275 321.059 156.275C321.059 156.275 320.511 155.043 320.989 154.44C321.078 154.294 321.197 154.168 321.339 154.072C321.48 153.976 321.641 153.911 321.809 153.881C321.977 153.852 322.15 153.859 322.316 153.901C322.481 153.944 322.636 154.021 322.77 154.128C322.903 154.235 323.012 154.369 323.09 154.521C323.168 154.674 323.212 154.841 323.221 155.012C323.229 155.183 323.201 155.354 323.138 155.513C323.075 155.673 322.98 155.817 322.857 155.936V155.921Z" fill="#F0806C"/>
<path d="M320.944 158.644C320.446 158.05 320.944 156.808 320.944 156.808C320.944 156.808 322.259 156.524 322.752 157.118C322.891 157.229 323.004 157.37 323.082 157.53C323.161 157.691 323.202 157.866 323.205 158.045C323.207 158.223 323.17 158.4 323.096 158.562C323.022 158.724 322.913 158.868 322.776 158.983C322.64 159.098 322.48 159.181 322.308 159.227C322.136 159.273 321.955 159.28 321.78 159.247C321.605 159.215 321.439 159.144 321.294 159.039C321.15 158.935 321.03 158.8 320.944 158.644Z" fill="#F0806C"/>
<path d="M318.895 157.013C319.597 157.328 320.658 156.515 320.658 156.515C320.658 156.515 320.579 155.173 319.876 154.853C319.731 154.758 319.566 154.695 319.394 154.67C319.221 154.644 319.045 154.656 318.878 154.704C318.711 154.752 318.556 154.836 318.424 154.95C318.292 155.064 318.186 155.205 318.114 155.364C318.041 155.523 318.004 155.695 318.004 155.869C318.004 156.044 318.042 156.216 318.115 156.375C318.187 156.533 318.293 156.674 318.425 156.788C318.558 156.901 318.713 156.985 318.88 157.033L318.895 157.013Z" fill="#F0806C"/>
<path d="M313.72 151.91C314.298 152.409 313.969 153.731 313.969 153.731C313.969 153.731 312.709 154.23 312.136 153.696C311.986 153.603 311.858 153.478 311.761 153.33C311.664 153.182 311.601 153.015 311.575 152.84C311.55 152.666 311.563 152.487 311.613 152.318C311.664 152.149 311.751 151.992 311.868 151.86C311.985 151.728 312.13 151.623 312.292 151.553C312.454 151.483 312.629 151.449 312.806 151.454C312.982 151.458 313.155 151.502 313.313 151.58C313.471 151.659 313.61 151.772 313.72 151.91Z" fill="#F0806C"/>
<path d="M316.326 153.965C315.703 154.424 314.493 153.835 314.493 153.835C314.493 153.835 314.284 152.499 314.906 152.04C315.029 151.914 315.177 151.817 315.341 151.755C315.505 151.692 315.68 151.667 315.855 151.679C316.03 151.691 316.2 151.741 316.354 151.825C316.507 151.91 316.641 152.027 316.745 152.168C316.849 152.309 316.921 152.471 316.957 152.643C316.992 152.815 316.99 152.992 316.95 153.163C316.91 153.334 316.834 153.494 316.726 153.633C316.618 153.771 316.482 153.885 316.326 153.965Z" fill="#F0806C"/>
<path d="M314.581 155.931C314.935 155.248 314.168 154.141 314.168 154.141C314.168 154.141 312.818 154.141 312.464 154.824C312.358 154.965 312.285 155.126 312.248 155.298C312.211 155.47 312.212 155.648 312.25 155.82C312.289 155.992 312.365 156.153 312.472 156.292C312.579 156.432 312.715 156.546 312.871 156.627C313.027 156.709 313.198 156.755 313.374 156.764C313.549 156.772 313.724 156.742 313.887 156.676C314.05 156.61 314.196 156.509 314.316 156.38C314.436 156.252 314.526 156.099 314.581 155.931Z" fill="#F0806C"/>
<path d="M318.582 164.085C319.025 163.457 320.36 163.626 320.36 163.626C320.36 163.626 320.983 164.823 320.539 165.457C320.463 165.615 320.354 165.755 320.218 165.867C320.083 165.978 319.925 166.059 319.755 166.104C319.585 166.148 319.408 166.155 319.235 166.124C319.062 166.093 318.898 166.025 318.755 165.924C318.611 165.823 318.491 165.693 318.403 165.541C318.314 165.389 318.26 165.22 318.244 165.045C318.227 164.87 318.249 164.693 318.307 164.528C318.366 164.362 318.459 164.211 318.582 164.085Z" fill="#F0806C"/>
<path d="M320.321 161.263C320.849 161.827 320.405 163.099 320.405 163.099C320.405 163.099 319.105 163.458 318.582 162.894C318.445 162.787 318.333 162.651 318.253 162.496C318.173 162.342 318.128 162.171 318.12 161.997C318.113 161.823 318.143 161.65 318.208 161.488C318.274 161.327 318.373 161.182 318.5 161.063C318.627 160.944 318.779 160.853 318.944 160.798C319.109 160.743 319.284 160.725 319.457 160.744C319.63 160.763 319.796 160.819 319.945 160.909C320.095 160.998 320.223 161.119 320.321 161.263Z" fill="#F0806C"/>
<path d="M322.478 162.769C321.755 162.495 320.744 163.383 320.744 163.383C320.744 163.383 320.904 164.725 321.621 164.999C321.772 165.084 321.939 165.135 322.111 165.15C322.284 165.164 322.457 165.141 322.62 165.082C322.783 165.024 322.931 164.931 323.055 164.809C323.178 164.688 323.274 164.542 323.336 164.38C323.399 164.219 323.425 164.045 323.415 163.873C323.404 163.7 323.356 163.531 323.275 163.378C323.193 163.225 323.08 163.092 322.942 162.987C322.805 162.882 322.646 162.808 322.478 162.769Z" fill="#F0806C"/>
<path d="M333.233 158.251C332.466 158.161 331.982 156.904 331.982 156.904C331.982 156.904 332.74 155.786 333.507 155.876C333.683 155.867 333.858 155.896 334.022 155.962C334.185 156.028 334.332 156.128 334.453 156.257C334.573 156.385 334.665 156.538 334.72 156.706C334.775 156.873 334.793 157.051 334.773 157.226C334.753 157.401 334.695 157.57 334.603 157.72C334.511 157.87 334.387 157.999 334.241 158.096C334.094 158.194 333.928 158.258 333.754 158.285C333.58 158.311 333.402 158.3 333.233 158.251Z" fill="#F0806C"/>
<path d="M329.91 158.065C330.154 157.332 331.484 157.117 331.484 157.117C331.484 157.117 332.421 158.09 332.177 158.823C332.149 158.997 332.083 159.162 331.985 159.307C331.887 159.453 331.758 159.575 331.608 159.666C331.458 159.757 331.29 159.814 331.116 159.833C330.941 159.852 330.765 159.834 330.598 159.778C330.432 159.722 330.28 159.631 330.152 159.511C330.025 159.39 329.924 159.244 329.859 159.081C329.794 158.918 329.764 158.743 329.773 158.567C329.782 158.392 329.829 158.221 329.91 158.065Z" fill="#F0806C"/>
<path d="M330.225 155.451C330.324 156.214 331.585 156.683 331.585 156.683C331.585 156.683 332.691 155.905 332.581 155.142C332.583 154.968 332.548 154.797 332.479 154.638C332.409 154.48 332.306 154.339 332.177 154.223C332.048 154.108 331.896 154.022 331.73 153.971C331.565 153.921 331.391 153.906 331.219 153.928C331.048 153.951 330.883 154.01 330.737 154.101C330.59 154.193 330.465 154.315 330.37 154.46C330.274 154.604 330.211 154.767 330.184 154.938C330.158 155.109 330.168 155.284 330.215 155.451H330.225Z" fill="#F0806C"/>
<path d="M334.303 144.477C333.536 144.387 333.053 143.13 333.053 143.13C333.053 143.13 333.81 142.017 334.577 142.102C334.753 142.093 334.929 142.122 335.092 142.188C335.255 142.254 335.403 142.354 335.523 142.483C335.644 142.611 335.735 142.764 335.79 142.932C335.845 143.099 335.864 143.277 335.844 143.452C335.823 143.627 335.765 143.796 335.673 143.946C335.581 144.096 335.458 144.225 335.311 144.322C335.164 144.42 334.998 144.484 334.824 144.511C334.65 144.538 334.472 144.526 334.303 144.477Z" fill="#F0806C"/>
<path d="M330.99 144.293C331.239 143.56 332.569 143.346 332.569 143.346C332.569 143.346 333.501 144.343 333.257 145.052C333.229 145.225 333.163 145.39 333.065 145.536C332.967 145.681 332.838 145.803 332.688 145.894C332.538 145.985 332.37 146.042 332.196 146.062C332.021 146.081 331.845 146.062 331.679 146.006C331.512 145.951 331.36 145.86 331.232 145.739C331.105 145.619 331.004 145.472 330.939 145.309C330.874 145.146 330.844 144.971 330.853 144.796C330.862 144.62 330.909 144.449 330.99 144.293Z" fill="#F0806C"/>
<path d="M331.296 141.685C331.395 142.448 332.661 142.917 332.661 142.917C332.661 142.917 333.762 142.139 333.657 141.376C333.659 141.203 333.625 141.031 333.555 140.873C333.485 140.714 333.382 140.573 333.253 140.458C333.124 140.343 332.972 140.257 332.806 140.206C332.641 140.155 332.467 140.14 332.296 140.162C332.124 140.185 331.96 140.244 331.813 140.336C331.666 140.427 331.541 140.55 331.446 140.694C331.35 140.838 331.287 141.002 331.261 141.173C331.234 141.344 331.244 141.519 331.291 141.685H331.296Z" fill="#F0806C"/>
<path d="M335.041 168.386C334.324 168.67 333.303 167.787 333.303 167.787C333.303 167.787 333.447 166.445 334.165 166.166C334.315 166.078 334.482 166.024 334.654 166.008C334.827 165.991 335.002 166.012 335.166 166.068C335.33 166.125 335.479 166.217 335.605 166.337C335.73 166.458 335.828 166.604 335.892 166.765C335.956 166.927 335.984 167.1 335.975 167.274C335.965 167.447 335.919 167.617 335.838 167.771C335.757 167.925 335.644 168.059 335.507 168.165C335.369 168.271 335.21 168.347 335.041 168.386Z" fill="#F0806C"/>
<path d="M332.032 169.783C331.903 169.025 332.974 168.207 332.974 168.207C332.974 168.207 334.259 168.626 334.384 169.384C334.437 169.549 334.455 169.724 334.435 169.896C334.416 170.069 334.359 170.235 334.269 170.383C334.18 170.532 334.059 170.659 333.916 170.757C333.773 170.855 333.61 170.92 333.439 170.949C333.268 170.978 333.093 170.97 332.926 170.925C332.758 170.88 332.602 170.8 332.469 170.689C332.335 170.578 332.227 170.44 332.152 170.284C332.077 170.128 332.036 169.957 332.032 169.783Z" fill="#F0806C"/>
<path d="M331.065 167.338C331.513 167.966 332.848 167.782 332.848 167.782C332.848 167.782 333.456 166.575 333.007 165.946C332.93 165.788 332.819 165.649 332.682 165.539C332.546 165.428 332.387 165.349 332.216 165.306C332.046 165.263 331.868 165.258 331.696 165.291C331.523 165.324 331.36 165.393 331.217 165.496C331.074 165.598 330.955 165.73 330.869 165.883C330.782 166.036 330.73 166.206 330.715 166.382C330.701 166.557 330.724 166.733 330.785 166.898C330.845 167.063 330.941 167.213 331.065 167.338Z" fill="#F0806C"/>
<path d="M325.522 179.096C326.284 179.211 326.717 180.488 326.717 180.488C326.717 180.488 325.92 181.575 325.158 181.455C324.985 181.455 324.813 181.416 324.656 181.343C324.499 181.27 324.359 181.164 324.246 181.032C324.133 180.9 324.05 180.745 324.003 180.578C323.955 180.411 323.945 180.236 323.971 180.064C323.998 179.892 324.061 179.728 324.156 179.583C324.252 179.438 324.378 179.316 324.525 179.224C324.672 179.132 324.837 179.073 325.009 179.051C325.181 179.029 325.356 179.044 325.522 179.096Z" fill="#F0806C"/>
<path d="M328.819 179.385C328.55 180.109 327.21 180.273 327.21 180.273C327.21 180.273 326.313 179.275 326.587 178.542C326.624 178.373 326.697 178.213 326.801 178.075C326.905 177.936 327.037 177.821 327.189 177.738C327.342 177.656 327.51 177.607 327.683 177.595C327.855 177.583 328.029 177.608 328.191 177.669C328.353 177.731 328.5 177.826 328.622 177.949C328.743 178.072 328.837 178.221 328.897 178.383C328.957 178.546 328.981 178.72 328.967 178.893C328.954 179.066 328.903 179.234 328.819 179.385Z" fill="#F0806C"/>
<path d="M328.415 181.983C328.34 181.215 327.095 180.701 327.095 180.701C327.095 180.701 325.964 181.439 326.039 182.198C326.03 182.37 326.059 182.543 326.123 182.704C326.187 182.864 326.285 183.009 326.41 183.129C326.535 183.248 326.684 183.339 326.847 183.396C327.011 183.453 327.184 183.474 327.356 183.457C327.528 183.441 327.695 183.388 327.844 183.302C327.994 183.216 328.123 183.098 328.224 182.957C328.324 182.817 328.393 182.656 328.426 182.486C328.459 182.316 328.455 182.141 328.415 181.973V181.983Z" fill="#F0806C"/>
<path d="M325.148 143.834C325.741 144.333 325.447 145.645 325.447 145.645C325.447 145.645 324.202 146.143 323.614 145.645C323.466 145.554 323.338 145.433 323.241 145.288C323.144 145.144 323.079 144.98 323.051 144.808C323.023 144.637 323.032 144.461 323.078 144.293C323.125 144.125 323.206 143.969 323.318 143.836C323.43 143.703 323.57 143.596 323.727 143.521C323.884 143.447 324.056 143.408 324.229 143.406C324.403 143.405 324.575 143.441 324.734 143.512C324.893 143.583 325.034 143.688 325.148 143.819V143.834Z" fill="#F0806C"/>
<path d="M327.808 145.82C327.201 146.294 325.97 145.736 325.97 145.736C325.97 145.736 325.731 144.409 326.339 143.935C326.459 143.813 326.604 143.718 326.764 143.657C326.923 143.595 327.094 143.569 327.265 143.578C327.436 143.587 327.603 143.633 327.755 143.712C327.907 143.79 328.04 143.901 328.146 144.035C328.253 144.169 328.33 144.324 328.372 144.49C328.414 144.656 328.42 144.829 328.391 144.998C328.361 145.167 328.296 145.327 328.2 145.469C328.104 145.611 327.979 145.73 327.833 145.82H327.808Z" fill="#F0806C"/>
<path d="M326.114 147.83C326.452 147.136 325.655 146.049 325.655 146.049C325.655 146.049 324.31 146.089 323.972 146.782C323.873 146.925 323.806 147.088 323.776 147.259C323.746 147.43 323.753 147.606 323.797 147.774C323.841 147.942 323.921 148.099 324.031 148.233C324.141 148.368 324.278 148.477 324.434 148.553C324.59 148.629 324.761 148.671 324.934 148.675C325.108 148.679 325.28 148.646 325.44 148.577C325.599 148.509 325.742 148.406 325.858 148.277C325.975 148.148 326.062 147.995 326.114 147.83Z" fill="#F0806C"/>
<path d="M299.806 85.4931C300.394 85.9919 300.105 87.3088 300.105 87.3088C300.105 87.3088 298.854 87.8076 298.267 87.3088C298.116 87.2186 297.987 87.0967 297.888 86.9517C297.789 86.8067 297.723 86.642 297.694 86.4688C297.665 86.2957 297.674 86.1183 297.721 85.949C297.767 85.7796 297.849 85.6223 297.962 85.488C298.075 85.3537 298.216 85.2456 298.375 85.1711C298.533 85.0966 298.706 85.0576 298.882 85.0567C299.057 85.0557 299.231 85.0929 299.39 85.1657C299.55 85.2384 299.692 85.3451 299.806 85.4781V85.4931Z" fill="#F0806C"/>
<path d="M302.462 87.4768C301.854 87.9757 300.629 87.3969 300.629 87.3969C300.629 87.3969 300.384 86.0702 300.992 85.5963C301.113 85.4795 301.257 85.3892 301.415 85.3314C301.573 85.2736 301.741 85.2494 301.908 85.2604C302.076 85.2714 302.239 85.3173 302.388 85.3953C302.537 85.4733 302.668 85.5817 302.773 85.7133C302.877 85.8449 302.953 85.997 302.996 86.1598C303.038 86.3225 303.046 86.4923 303.019 86.6583C302.992 86.8244 302.931 86.983 302.839 87.1239C302.748 87.2648 302.627 87.3851 302.487 87.4768H302.462Z" fill="#F0806C"/>
<path d="M300.773 89.4937C301.112 88.8003 300.31 87.7129 300.31 87.7129C300.31 87.7129 298.965 87.7528 298.626 88.4461C298.524 88.5896 298.455 88.7534 298.423 88.9264C298.391 89.0994 298.396 89.2774 298.44 89.4479C298.483 89.6184 298.563 89.7774 298.674 89.9139C298.785 90.0503 298.925 90.161 299.083 90.238C299.241 90.3151 299.413 90.3567 299.589 90.3602C299.765 90.3636 299.939 90.3287 300.1 90.2579C300.261 90.1871 300.404 90.082 300.521 89.95C300.637 89.818 300.723 89.6624 300.773 89.4937Z" fill="#F0806C"/>
<path d="M305.303 95.564C305.712 94.9056 307.052 95.0054 307.052 95.0054C307.052 95.0054 307.734 96.1676 307.331 96.826C307.264 96.9891 307.162 97.1357 307.033 97.2554C306.904 97.3752 306.75 97.4654 306.583 97.5196C306.415 97.5738 306.238 97.5909 306.064 97.5695C305.889 97.5481 305.721 97.4888 305.571 97.3957C305.422 97.3027 305.295 97.1782 305.198 97.0308C305.102 96.8833 305.038 96.7167 305.013 96.5423C304.987 96.3679 305 96.19 305.05 96.0211C305.1 95.8521 305.187 95.6961 305.303 95.564Z" fill="#F0806C"/>
<path d="M305.182 93.4858C305.735 94.0195 305.361 95.3165 305.361 95.3165C305.361 95.3165 304.086 95.7455 303.528 95.2118C303.383 95.1123 303.261 94.9824 303.172 94.8312C303.082 94.68 303.026 94.511 303.008 94.336C302.99 94.1611 303.011 93.9844 303.068 93.8181C303.125 93.6518 303.217 93.4999 303.339 93.373C303.461 93.2461 303.608 93.1472 303.772 93.0832C303.936 93.0192 304.111 92.9916 304.286 93.0023C304.462 93.013 304.633 93.0619 304.787 93.1454C304.942 93.2289 305.076 93.345 305.182 93.4858Z" fill="#F0806C"/>
<path d="M308.694 95.0375C307.962 94.803 307 95.7459 307 95.7459C307 95.7459 307.229 97.0776 307.967 97.3121C308.122 97.3886 308.292 97.4306 308.465 97.4353C308.638 97.44 308.81 97.4073 308.97 97.3394C309.129 97.2715 309.272 97.17 309.389 97.0419C309.505 96.9137 309.593 96.7619 309.646 96.5967C309.699 96.4316 309.716 96.2569 309.695 96.0847C309.674 95.9125 309.617 95.7467 309.526 95.5987C309.436 95.4508 309.315 95.3242 309.171 95.2273C309.027 95.1305 308.865 95.0656 308.694 95.0375Z" fill="#F0806C"/>
<path d="M315.212 94.916C314.858 95.5994 313.513 95.6093 313.513 95.6093C313.513 95.6093 312.736 94.502 313.095 93.8186C313.15 93.6541 313.241 93.5035 313.36 93.3773C313.48 93.2511 313.625 93.1522 313.786 93.0873C313.947 93.0224 314.12 92.9931 314.293 93.0014C314.466 93.0096 314.636 93.0552 314.79 93.1351C314.944 93.215 315.079 93.3273 315.186 93.4643C315.293 93.6012 315.369 93.7596 315.409 93.9287C315.449 94.0978 315.452 94.2736 315.418 94.444C315.384 94.6144 315.314 94.7754 315.212 94.916Z" fill="#F0806C"/>
<path d="M315.389 95.0581C314.791 94.5593 315.06 93.2473 315.06 93.2473C315.06 93.2473 316.301 92.7185 316.899 93.2074C317.052 93.2933 317.184 93.4117 317.287 93.5542C317.389 93.6967 317.46 93.8599 317.493 94.0324C317.526 94.205 317.521 94.3827 317.478 94.5532C317.436 94.7236 317.357 94.8827 317.246 95.0194C317.136 95.156 316.997 95.2668 316.84 95.3442C316.682 95.4215 316.51 95.4635 316.334 95.4672C316.159 95.4708 315.985 95.4361 315.824 95.3655C315.663 95.2948 315.52 95.1899 315.404 95.0581H315.389Z" fill="#F0806C"/>
<path d="M311.103 95.4248C311.855 95.6044 312.737 94.5818 312.737 94.5818C312.737 94.5818 312.403 93.2749 311.651 93.0854C311.49 93.0213 311.317 92.9927 311.144 93.0016C310.971 93.0104 310.802 93.0564 310.649 93.1365C310.495 93.2166 310.36 93.329 310.254 93.4659C310.148 93.6028 310.072 93.761 310.032 93.9298C309.992 94.0986 309.989 94.2739 310.023 94.444C310.057 94.614 310.128 94.7748 310.229 94.9152C310.331 95.0557 310.462 95.1726 310.612 95.2579C310.763 95.3433 310.93 95.395 311.103 95.4098V95.4248Z" fill="#F0806C"/>
<path d="M319.894 97.269C319.291 97.7678 318.055 97.2092 318.055 97.2092C318.055 97.2092 317.796 95.8873 318.399 95.4034C318.516 95.2724 318.661 95.1684 318.822 95.0988C318.983 95.0293 319.158 94.9957 319.334 95.0004C319.509 95.0052 319.682 95.0483 319.839 95.1266C319.997 95.2049 320.135 95.3165 320.245 95.4537C320.355 95.591 320.434 95.7505 320.476 95.9214C320.518 96.0922 320.523 96.2702 320.489 96.443C320.456 96.6157 320.385 96.779 320.282 96.9217C320.179 97.0643 320.047 97.1828 319.894 97.269Z" fill="#F0806C"/>
<path d="M323.499 101.225C323.156 100.532 323.938 99.4395 323.938 99.4395C323.938 99.4395 325.283 99.4394 325.632 100.148C325.735 100.29 325.807 100.453 325.842 100.625C325.876 100.798 325.873 100.976 325.832 101.147C325.791 101.318 325.713 101.478 325.604 101.616C325.495 101.754 325.357 101.867 325.2 101.946C325.043 102.025 324.871 102.07 324.696 102.075C324.52 102.081 324.345 102.049 324.183 101.98C324.021 101.912 323.876 101.809 323.758 101.678C323.64 101.548 323.552 101.393 323.499 101.225Z" fill="#F0806C"/>
<path d="M321.86 99.1704C322.472 99.6393 323.693 99.0657 323.693 99.0657C323.693 99.0657 323.917 97.7388 323.304 97.2699C323.183 97.1458 323.037 97.0493 322.875 96.987C322.714 96.9246 322.541 96.8979 322.368 96.9085C322.195 96.9192 322.026 96.967 321.874 97.0487C321.721 97.1305 321.588 97.2443 321.483 97.3823C321.378 97.5203 321.304 97.6793 321.266 97.8484C321.228 98.0176 321.227 98.193 321.262 98.3627C321.298 98.5324 321.37 98.6923 321.473 98.8317C321.576 98.9711 321.708 99.0866 321.86 99.1704Z" fill="#F0806C"/>
<path d="M333.721 114.089C333.123 114.588 331.887 114.029 331.887 114.029C331.887 114.029 331.628 112.707 332.231 112.223C332.349 112.098 332.493 112 332.653 111.935C332.812 111.87 332.984 111.84 333.156 111.847C333.328 111.854 333.497 111.898 333.651 111.975C333.804 112.053 333.94 112.163 334.047 112.297C334.155 112.432 334.233 112.588 334.275 112.755C334.318 112.922 334.324 113.097 334.293 113.266C334.263 113.436 334.197 113.597 334.099 113.739C334.001 113.881 333.873 114 333.726 114.089H333.721Z" fill="#F0806C"/>
<path d="M331.259 116.315C330.91 115.622 331.697 114.529 331.697 114.529C331.697 114.529 333.042 114.529 333.391 115.238C333.495 115.38 333.567 115.543 333.601 115.715C333.636 115.888 333.633 116.066 333.592 116.237C333.551 116.408 333.473 116.568 333.364 116.706C333.255 116.844 333.117 116.957 332.96 117.036C332.803 117.115 332.631 117.159 332.455 117.165C332.279 117.171 332.105 117.139 331.943 117.07C331.781 117.001 331.636 116.898 331.518 116.768C331.4 116.638 331.311 116.483 331.259 116.315Z" fill="#F0806C"/>
<path d="M329.615 114.249C330.233 114.717 331.449 114.144 331.449 114.144C331.449 114.144 331.678 112.817 331.06 112.348C330.939 112.224 330.793 112.127 330.631 112.065C330.47 112.003 330.296 111.976 330.124 111.987C329.951 111.997 329.782 112.045 329.629 112.127C329.477 112.209 329.343 112.322 329.238 112.46C329.134 112.598 329.06 112.757 329.022 112.927C328.984 113.096 328.982 113.271 329.018 113.441C329.054 113.611 329.126 113.77 329.229 113.91C329.332 114.049 329.464 114.165 329.615 114.249Z" fill="#F0806C"/>
<path d="M314.71 102.607C315.208 102.019 316.519 102.303 316.519 102.303C316.519 102.303 317.017 103.55 316.519 104.144C316.427 104.291 316.306 104.416 316.162 104.512C316.018 104.608 315.855 104.671 315.685 104.699C315.514 104.726 315.34 104.716 315.173 104.67C315.007 104.624 314.852 104.542 314.72 104.431C314.587 104.32 314.48 104.182 314.406 104.025C314.332 103.869 314.292 103.699 314.289 103.526C314.286 103.353 314.321 103.181 314.39 103.023C314.459 102.864 314.562 102.723 314.69 102.607H314.71Z" fill="#F0806C"/>
<path d="M316.679 99.9379C317.177 100.546 316.609 101.779 316.609 101.779C316.609 101.779 315.284 102.028 314.805 101.419C314.686 101.299 314.593 101.155 314.532 100.996C314.472 100.838 314.445 100.668 314.455 100.498C314.465 100.329 314.51 100.163 314.588 100.012C314.665 99.8616 314.774 99.7289 314.907 99.623C315.039 99.5171 315.193 99.4403 315.357 99.3978C315.521 99.3553 315.692 99.3479 315.86 99.3763C316.027 99.4046 316.186 99.4679 316.327 99.5621C316.469 99.6563 316.588 99.7793 316.679 99.9229V99.9379Z" fill="#F0806C"/>
<path d="M318.697 101.624C318.005 101.29 316.924 102.093 316.924 102.093C316.924 102.093 316.964 103.44 317.661 103.779C317.805 103.88 317.969 103.949 318.142 103.98C318.315 104.012 318.492 104.005 318.662 103.961C318.832 103.917 318.991 103.836 319.126 103.724C319.262 103.612 319.372 103.472 319.448 103.314C319.524 103.155 319.565 102.982 319.568 102.806C319.57 102.63 319.535 102.456 319.463 102.295C319.392 102.134 319.286 101.991 319.154 101.875C319.022 101.759 318.866 101.674 318.697 101.624Z" fill="#F0806C"/>
<path d="M328.022 125.602C328.52 125.008 329.83 125.293 329.83 125.293C329.83 125.293 330.328 126.54 329.83 127.133C329.742 127.286 329.621 127.417 329.476 127.517C329.332 127.618 329.167 127.686 328.994 127.716C328.821 127.747 328.643 127.739 328.473 127.693C328.303 127.648 328.144 127.566 328.009 127.453C327.874 127.34 327.765 127.199 327.69 127.04C327.615 126.88 327.575 126.707 327.574 126.53C327.573 126.354 327.61 126.18 327.683 126.019C327.756 125.859 327.863 125.717 327.997 125.602H328.022Z" fill="#F0806C"/>
<path d="M329.995 122.934C330.468 123.538 329.92 124.77 329.92 124.77C329.92 124.77 328.595 125.02 328.116 124.411C327.992 124.291 327.895 124.146 327.832 123.986C327.768 123.825 327.739 123.653 327.747 123.481C327.756 123.308 327.801 123.14 327.879 122.986C327.958 122.832 328.068 122.697 328.203 122.59C328.338 122.482 328.494 122.405 328.661 122.363C328.828 122.321 329.003 122.315 329.172 122.346C329.342 122.376 329.503 122.443 329.645 122.541C329.787 122.639 329.906 122.767 329.995 122.915V122.934Z" fill="#F0806C"/>
<path d="M332.008 124.615C331.315 124.28 330.234 125.083 330.234 125.083C330.234 125.083 330.279 126.43 330.972 126.77C331.115 126.871 331.279 126.939 331.452 126.971C331.625 127.002 331.803 126.995 331.973 126.951C332.143 126.907 332.301 126.826 332.437 126.714C332.573 126.602 332.683 126.462 332.759 126.304C332.835 126.145 332.876 125.972 332.878 125.796C332.881 125.62 332.845 125.446 332.774 125.285C332.702 125.124 332.597 124.981 332.465 124.865C332.332 124.75 332.176 124.664 332.008 124.615Z" fill="#F0806C"/>
<path d="M321.182 109.76C321.934 109.586 322.811 110.608 322.811 110.608C322.811 110.608 322.467 111.915 321.715 112.105C321.554 112.167 321.381 112.194 321.209 112.183C321.036 112.173 320.868 112.125 320.715 112.044C320.563 111.963 320.43 111.85 320.325 111.712C320.219 111.575 320.145 111.416 320.107 111.248C320.068 111.079 320.066 110.904 320.101 110.735C320.136 110.565 320.207 110.405 320.309 110.266C320.411 110.126 320.541 110.01 320.692 109.925C320.843 109.841 321.01 109.79 321.182 109.775V109.76Z" fill="#F0806C"/>
<path d="M324.366 108.847C324.366 109.62 323.196 110.264 323.196 110.264C323.196 110.264 321.995 109.66 321.98 108.887C321.953 108.716 321.962 108.542 322.008 108.375C322.054 108.208 322.135 108.053 322.246 107.92C322.357 107.788 322.495 107.68 322.651 107.606C322.807 107.531 322.977 107.491 323.15 107.488C323.323 107.486 323.494 107.52 323.653 107.589C323.811 107.658 323.953 107.761 324.068 107.89C324.183 108.019 324.27 108.171 324.321 108.336C324.373 108.501 324.388 108.676 324.366 108.847Z" fill="#F0806C"/>
<path d="M324.953 111.41C324.604 110.722 323.259 110.707 323.259 110.707C323.259 110.707 322.477 111.804 322.826 112.493C322.881 112.657 322.971 112.807 323.09 112.933C323.208 113.059 323.352 113.159 323.513 113.224C323.673 113.289 323.845 113.32 324.018 113.312C324.191 113.305 324.36 113.261 324.514 113.182C324.668 113.104 324.804 112.993 324.911 112.858C325.019 112.722 325.096 112.565 325.138 112.397C325.18 112.229 325.185 112.054 325.153 111.883C325.121 111.713 325.053 111.552 324.953 111.41Z" fill="#F0806C"/>
<path d="M355.616 126.221C354.903 126.51 353.877 125.632 353.877 125.632C353.877 125.632 354.006 124.291 354.724 124.001C354.874 123.91 355.042 123.853 355.216 123.834C355.391 123.814 355.567 123.833 355.734 123.888C355.9 123.944 356.053 124.035 356.18 124.156C356.308 124.276 356.408 124.423 356.474 124.586C356.539 124.749 356.568 124.924 356.56 125.1C356.551 125.275 356.504 125.447 356.422 125.602C356.34 125.758 356.226 125.894 356.087 126.001C355.948 126.107 355.787 126.183 355.616 126.221Z" fill="#F0806C"/>
<path d="M352.621 127.643C352.487 126.88 353.553 126.057 353.553 126.057C353.553 126.057 354.838 126.461 354.972 127.224C355.031 127.39 355.053 127.566 355.037 127.742C355.021 127.917 354.966 128.087 354.878 128.239C354.79 128.391 354.669 128.522 354.525 128.623C354.381 128.724 354.217 128.792 354.044 128.823C353.871 128.853 353.693 128.846 353.523 128.801C353.353 128.756 353.195 128.675 353.059 128.563C352.924 128.451 352.815 128.31 352.739 128.151C352.663 127.992 352.623 127.819 352.621 127.643Z" fill="#F0806C"/>
<path d="M351.634 125.224C352.087 125.847 353.422 125.648 353.422 125.648C353.422 125.648 354.02 124.441 353.567 123.817C353.488 123.66 353.376 123.522 353.238 123.413C353.101 123.304 352.942 123.226 352.771 123.185C352.601 123.143 352.423 123.139 352.251 123.173C352.079 123.208 351.916 123.279 351.774 123.382C351.632 123.485 351.514 123.618 351.429 123.772C351.343 123.925 351.292 124.095 351.279 124.27C351.266 124.446 351.29 124.622 351.352 124.786C351.413 124.951 351.509 125.1 351.634 125.224Z" fill="#F0806C"/>
<path d="M348.955 135.026C348.213 134.821 347.934 133.499 347.934 133.499C347.934 133.499 348.855 132.502 349.597 132.726C349.769 132.748 349.935 132.806 350.082 132.898C350.23 132.989 350.355 133.111 350.451 133.256C350.547 133.4 350.611 133.564 350.638 133.735C350.665 133.907 350.655 134.082 350.608 134.249C350.562 134.416 350.479 134.572 350.367 134.704C350.255 134.836 350.116 134.943 349.959 135.017C349.802 135.091 349.631 135.13 349.458 135.131C349.285 135.133 349.113 135.097 348.955 135.026Z" fill="#F0806C"/>
<path d="M345.717 134.327C346.07 133.639 347.42 133.639 347.42 133.639C347.42 133.639 348.193 134.741 347.834 135.429C347.777 135.593 347.685 135.742 347.566 135.867C347.446 135.992 347.301 136.09 347.14 136.153C346.98 136.217 346.807 136.246 346.634 136.237C346.462 136.228 346.293 136.182 346.14 136.102C345.986 136.022 345.852 135.91 345.745 135.774C345.639 135.638 345.563 135.48 345.523 135.311C345.483 135.143 345.48 134.968 345.513 134.798C345.546 134.628 345.616 134.468 345.717 134.327Z" fill="#F0806C"/>
<path d="M346.419 131.793C346.419 132.561 347.574 133.22 347.574 133.22C347.574 133.22 348.785 132.626 348.805 131.853C348.839 131.68 348.834 131.502 348.792 131.33C348.75 131.159 348.671 130.999 348.561 130.862C348.451 130.724 348.312 130.612 348.154 130.534C347.996 130.456 347.823 130.413 347.647 130.409C347.471 130.404 347.296 130.438 347.135 130.509C346.973 130.579 346.829 130.684 346.712 130.815C346.595 130.947 346.508 131.103 346.457 131.272C346.407 131.441 346.394 131.619 346.419 131.793Z" fill="#F0806C"/>
<path d="M343.689 126.486C343.644 127.254 342.413 127.813 342.413 127.813C342.413 127.813 341.263 127.115 341.307 126.346C341.292 126.174 341.314 126 341.372 125.836C341.43 125.673 341.523 125.524 341.643 125.399C341.764 125.275 341.91 125.178 342.072 125.115C342.233 125.052 342.406 125.025 342.579 125.035C342.752 125.045 342.92 125.093 343.073 125.174C343.226 125.255 343.36 125.369 343.465 125.506C343.571 125.644 343.645 125.803 343.684 125.972C343.722 126.141 343.724 126.316 343.689 126.486Z" fill="#F0806C"/>
<path d="M343.689 129.802C342.947 129.602 342.658 128.305 342.658 128.305C342.658 128.305 343.575 127.308 344.317 127.522C344.489 127.543 344.654 127.601 344.802 127.691C344.949 127.782 345.076 127.903 345.172 128.047C345.269 128.191 345.334 128.354 345.362 128.525C345.39 128.696 345.381 128.871 345.335 129.038C345.29 129.206 345.209 129.361 345.098 129.494C344.987 129.627 344.849 129.735 344.692 129.81C344.536 129.884 344.366 129.925 344.193 129.928C344.02 129.931 343.848 129.896 343.689 129.827V129.802Z" fill="#F0806C"/>
<path d="M341.063 129.652C341.825 129.507 342.218 128.216 342.218 128.216C342.218 128.216 341.382 127.158 340.624 127.303C340.452 127.31 340.283 127.355 340.129 127.433C339.975 127.512 339.84 127.622 339.732 127.758C339.625 127.893 339.548 128.05 339.506 128.218C339.465 128.386 339.46 128.56 339.491 128.73C339.523 128.9 339.591 129.062 339.69 129.203C339.789 129.345 339.918 129.463 340.067 129.55C340.216 129.638 340.382 129.692 340.554 129.71C340.726 129.727 340.899 129.708 341.063 129.652Z" fill="#F0806C"/>
<path d="M311.333 192.285H350.164C350.298 192.285 350.431 192.315 350.552 192.373C350.674 192.431 350.78 192.516 350.864 192.621C350.949 192.725 351.008 192.848 351.039 192.979C351.069 193.11 351.07 193.246 351.041 193.378L350.543 195.792C350.498 195.993 350.387 196.173 350.226 196.302C350.066 196.43 349.866 196.5 349.661 196.5H312.264C312.081 196.501 311.902 196.445 311.752 196.341C311.601 196.236 311.486 196.088 311.422 195.917L310.516 193.502C310.465 193.368 310.447 193.223 310.463 193.081C310.479 192.938 310.529 192.801 310.61 192.682C310.69 192.563 310.797 192.464 310.923 192.395C311.049 192.326 311.189 192.289 311.333 192.285V192.285Z" stroke="black" stroke-miterlimit="10"/>
<path d="M314.417 200.301C314.845 200.301 347.569 196.5 347.569 196.5H314.023L314.417 200.301Z" fill="black"/>
<path d="M213.676 129.064H222.757C222.857 129.065 222.957 129.086 223.048 129.127C223.14 129.168 223.222 129.228 223.289 129.302C223.356 129.377 223.407 129.465 223.438 129.561C223.469 129.657 223.48 129.758 223.469 129.858L222.573 138.747C222.55 138.975 222.444 139.186 222.275 139.34C222.105 139.494 221.885 139.579 221.656 139.58H214.567C214.334 139.58 214.11 139.493 213.939 139.334C213.768 139.176 213.663 138.959 213.646 138.727L212.953 129.838C212.946 129.738 212.959 129.639 212.992 129.545C213.025 129.451 213.077 129.365 213.145 129.292C213.213 129.219 213.295 129.162 213.386 129.122C213.478 129.083 213.576 129.064 213.676 129.064V129.064Z" stroke="black" stroke-miterlimit="10"/>
<path d="M213.072 131.354H223.319L213.217 133.189L213.072 131.354Z" fill="black"/>
<path d="M222.308 126.72C222.302 127.043 222.211 127.358 222.045 127.634C221.879 127.911 221.643 128.139 221.362 128.296C220.401 128.815 219.314 129.055 218.224 128.99C216.336 128.99 215.235 128.526 214.707 127.837C214.42 127.444 214.296 126.956 214.36 126.474C214.424 125.992 214.671 125.553 215.05 125.248C215.653 124.75 216.679 124.445 218.224 124.445C219.977 124.445 221.133 124.844 221.755 125.443C221.93 125.607 222.069 125.804 222.164 126.024C222.259 126.244 222.308 126.481 222.308 126.72V126.72Z" stroke="black" stroke-miterlimit="10"/>
<path d="M221.844 121.182C221.941 121.384 221.983 121.608 221.966 121.831C221.95 122.054 221.875 122.269 221.75 122.454C221.314 123.075 220.716 123.563 220.021 123.866C218.85 124.46 218.028 124.514 217.48 124.25C217.181 124.096 216.952 123.832 216.842 123.513C216.732 123.195 216.748 122.846 216.888 122.539C217.28 121.864 217.884 121.338 218.606 121.043C219.687 120.494 220.529 120.379 221.097 120.544C221.259 120.593 221.409 120.675 221.537 120.785C221.666 120.895 221.77 121.03 221.844 121.182V121.182Z" stroke="black" stroke-miterlimit="10"/>
<path d="M219.982 118.639C220.056 118.623 220.134 118.626 220.206 118.649C220.279 118.672 220.344 118.713 220.396 118.769C220.568 118.958 220.683 119.191 220.729 119.442C220.784 119.583 220.806 119.734 220.794 119.884C220.782 120.035 220.736 120.18 220.66 120.31C220.601 120.385 220.518 120.436 220.426 120.455C220.361 120.472 220.294 120.474 220.229 120.46C220.164 120.446 220.103 120.417 220.052 120.375C219.859 120.196 219.733 119.957 219.693 119.697C219.595 119.417 219.606 119.111 219.723 118.839C219.751 118.79 219.788 118.747 219.833 118.713C219.877 118.679 219.928 118.654 219.982 118.639Z" fill="black"/>
<path d="M198.85 139.58L213.555 137.555V139.769L198.85 139.58Z" fill="black"/>
<path d="M24.4153 143.474C-24.3494 106.382 7.6572 -7.72249 96.4837 6.11472C185.31 19.9519 292.718 219.783 410.776 0.128906" stroke="#F0806C" stroke-miterlimit="10"/>
</g>
<defs>
<clipPath id="clip0_1173_24934">
<rect width="411" height="230" fill="white"/>
</clipPath>
</defs>
</svg>
