<svg width="142" height="89" viewBox="0 0 142 89" fill="none" xmlns="http://www.w3.org/2000/svg">
<g clip-path="url(#clip0_57917_290)">
<path d="M141.281 86.0351C140.992 86.0444 140.704 86.0723 140.416 86.0723C135.832 86.1003 131.247 86.1375 126.663 86.1562C119.847 86.1934 113.031 86.1934 106.215 86.2586C101.603 86.3052 96.9813 86.4635 92.3691 86.5194C89.7375 86.5473 87.1059 86.4542 84.4651 86.4542C83.8607 86.4542 83.2377 86.566 82.6518 86.7336C80.3364 87.4228 78.0675 88.261 75.6591 88.5963C73.4739 88.8944 71.2887 89.062 69.0849 88.7267C68.8431 88.6895 68.5921 88.6429 68.3596 88.5777C67.2437 88.2517 66.9741 87.9351 66.816 86.6777C66.5649 86.6777 66.2953 86.6684 66.0256 86.6777C63.6079 86.7429 61.1902 86.8081 58.7819 86.864C58.382 86.8733 57.9915 86.9385 57.6753 86.5567C57.5637 86.4263 57.2755 86.4076 57.0709 86.4076C55.611 86.3983 54.1604 86.389 52.7005 86.417C52.4401 86.417 52.1518 86.5194 51.9287 86.6591C50.6733 87.4601 49.418 87.3483 48.1255 86.7336C47.7256 86.538 47.2514 86.4263 46.805 86.3983C45.9681 86.3424 45.1312 86.3797 44.2944 86.389C44.0526 86.389 43.8201 86.4356 43.5133 86.4635C43.7736 87.3297 44.313 87.8978 45.0476 88.1493C45.7078 88.3821 46.4517 88.3914 47.2421 88.5125C47.084 88.6243 46.9631 88.7919 46.8236 88.8012C46.3959 88.8385 45.9495 88.8944 45.5404 88.8105C44.6198 88.6336 43.8294 88.112 43.411 87.2924C43.0018 86.4728 42.3974 86.3611 41.607 86.3611C36.6787 86.3424 31.7503 86.2959 26.8312 86.2493C25.8735 86.24 24.9157 86.1841 23.9486 86.1469C23.6604 86.1375 23.3721 86.0817 22.9537 86.0351C23.2791 85.5974 23.5953 85.7091 23.8742 85.7091C26.6918 85.7557 29.5093 85.8395 32.3268 85.8674C35.4233 85.8954 38.5198 85.8861 41.6256 85.8954C41.8953 85.8954 42.1649 85.8674 42.509 85.8488C42.4253 85.3831 42.3602 84.9827 42.2765 84.5077C42.788 84.6101 42.788 84.964 42.8623 85.2341C43.0111 85.7184 43.2715 85.9326 43.8015 85.914C44.843 85.8768 45.8845 85.9047 47.0282 85.9047C46.9073 85.5415 46.8515 85.3086 46.7585 85.0851C46.1076 83.5763 45.4288 82.0768 44.8151 80.5587C44.5826 79.9906 44.2851 79.7577 43.6434 79.7577C35.7116 79.7763 27.7797 79.767 19.8479 79.7763C19.6061 79.7763 19.3643 79.8136 19.0761 79.8322C19.0017 80.3258 18.9273 80.7822 18.8343 81.3969C18.3229 80.8753 18.7041 80.2979 18.3229 79.8136C18.0625 79.8043 17.737 79.767 17.4023 79.767C14.7056 79.767 12.009 79.767 9.31234 79.7577C8.99618 79.7577 8.68002 79.7111 8.26158 79.6832C8.58703 79.1616 8.95898 79.3013 9.26584 79.3013C11.9625 79.292 14.6591 79.292 17.3558 79.292C17.6905 79.292 18.0253 79.292 18.3322 79.292C18.5553 78.5563 18.6204 68.5255 18.4251 67.0539C18.0811 67.0353 17.7277 67.0074 17.3651 66.998C13.6177 66.998 9.87027 66.998 6.11356 66.9887C5.7974 66.9887 5.48124 66.9515 5.16508 66.9235C5.15578 66.8583 5.15578 66.7838 5.14648 66.7186C5.29526 66.6628 5.44405 66.5696 5.59283 66.551C5.89969 66.523 6.21584 66.5417 6.5227 66.5417C16.9931 66.5417 27.4636 66.5417 37.9433 66.5417C38.3338 66.5417 38.7244 66.5137 39.2358 66.4951C39.1149 66.0853 39.0405 65.7873 38.9383 65.5079C36.7437 59.4168 34.5492 53.3163 32.3454 47.2252C32.1873 46.7968 31.9735 46.3684 31.7224 45.9865C29.7511 42.9782 27.8076 39.9513 25.7619 36.9895C24.4415 35.0803 22.9815 33.2641 21.596 31.4014C20.7963 30.3303 20.9265 29.3244 21.9308 28.4583C22.0238 28.3838 22.1075 28.2999 22.2469 28.1789C21.7262 27.4617 21.1683 26.7725 21.4937 25.8132C21.8192 24.8539 22.5538 24.5 23.5395 24.4255C23.5581 23.6897 23.3907 22.926 23.9393 22.302C24.488 21.6686 25.1947 21.5662 26.0315 21.6686C26.0966 21.4265 26.1617 21.203 26.2268 20.9794C26.6453 19.5544 28.161 19.0608 29.3326 19.9829C29.5465 20.1505 29.7418 20.3647 29.9277 20.5696C31.3505 22.125 32.7639 23.6897 34.1866 25.2451C34.3912 25.4686 34.605 25.6921 34.884 25.9808C35.0235 25.7573 35.1444 25.599 35.228 25.422C35.5907 24.6397 35.9069 23.8294 36.316 23.0564C36.5113 22.6838 36.8181 22.3299 37.1529 22.0784C38.1572 21.3147 39.4404 21.8829 39.5334 23.1402C39.5799 23.7456 39.4869 24.3789 39.3846 24.9843C39.1242 26.4186 38.8081 27.8343 38.5384 29.2686C38.3989 30.0043 38.4454 30.7401 38.6593 31.4759C39.3288 33.7484 39.7287 36.0582 39.803 38.4332C39.8402 39.6532 40.082 40.8361 40.5934 41.9537C40.7515 42.289 40.9096 42.6336 41.1328 42.9223C44.3501 47.188 47.084 51.7703 49.7248 56.3991C49.8736 56.6599 50.0503 56.9114 50.2549 57.2281C50.5989 56.9952 50.8779 56.8089 51.1476 56.6134C55.2483 53.7354 59.5816 51.286 64.3146 49.5909C67.1043 48.5943 69.959 47.9237 72.9253 47.8492C73.4088 47.8399 73.7343 47.663 74.0133 47.2811C74.7758 46.2752 75.3337 45.1762 75.6313 43.9561C75.8265 43.1552 75.9381 42.3263 76.1148 41.4135C75.6684 41.3856 75.3337 41.3763 75.0082 41.3483C73.2043 41.1714 71.6979 40.5008 70.954 38.7219C70.7401 38.2096 70.2845 38.2562 69.9032 38.1351C70.2752 36.3097 70.6285 34.5587 71.0005 32.7239C70.3588 32.7239 69.8195 32.7239 69.1872 32.7239C69.2523 32.4445 69.2802 32.2489 69.3546 32.0626C70.0334 30.4048 70.9168 28.9053 72.3023 27.7225C76.8587 23.8108 83.2656 25.4593 85.3485 31.1033C85.925 32.6587 86.0273 34.242 85.6181 35.8533C85.4229 36.6356 85.2276 37.418 85.0695 38.2096C84.8092 39.5508 85.2462 40.6591 86.2784 41.5253C86.7061 41.8792 87.171 42.1959 87.6267 42.5218C88.0823 42.8478 88.5473 43.1552 88.9936 43.4905C90.0444 44.2914 90.7418 45.3159 90.9928 46.6291C91.03 46.8434 91.0951 47.0483 91.1602 47.337C91.7553 47.4487 92.3598 47.5512 92.9549 47.663C97.1207 48.3894 100.989 49.9448 104.709 51.91C107.266 53.2605 109.702 54.7786 112.045 56.4643C112.473 56.7717 112.882 57.079 113.077 57.6099C113.189 57.9173 113.449 58.178 113.645 58.4575C115.291 60.8231 116.964 63.1701 118.564 65.5731C119.057 66.3088 119.605 66.551 120.47 66.551C127.072 66.5137 133.665 66.5324 140.267 66.5417C140.611 66.5417 140.992 66.4206 141.364 66.7466C141.067 67.0726 140.713 66.9701 140.407 66.9701C137.896 66.9794 135.385 66.9794 132.875 66.9794C131.545 66.9794 130.206 66.9794 128.876 66.9794C128.579 66.9794 128.272 67.0167 127.946 67.0353C127.946 71.1333 127.946 75.1382 127.946 79.2734C128.374 79.2734 128.737 79.2734 129.099 79.2734C132.884 79.2734 136.659 79.2734 140.444 79.2827C140.741 79.2827 141.113 79.143 141.429 79.6553C140.462 79.8136 139.579 79.7205 138.714 79.7298C137.812 79.7484 136.92 79.7298 136.018 79.7298C135.153 79.7298 134.279 79.7298 133.414 79.7298C132.512 79.7298 131.619 79.7298 130.717 79.7298C129.825 79.7298 128.932 79.7298 128.03 79.7298C127.77 80.5401 127.937 81.2851 127.881 82.0116C127.825 82.6915 128.021 83.39 127.677 84.2376C127.305 83.3993 127.491 82.7008 127.453 82.0302C127.416 81.3224 127.444 80.6146 127.444 79.8881C126.635 79.6459 126.04 79.6646 125.463 80.3165C124.143 81.8067 122.441 82.7753 120.628 83.5297C118.675 84.3493 116.657 84.9175 114.584 85.3366C114.342 85.3831 114.11 85.4483 113.719 85.5415C114.119 85.8209 114.444 85.7557 114.751 85.7557C118.527 85.7371 122.311 85.7184 126.086 85.6998C130.829 85.6812 135.571 85.6625 140.304 85.6439C140.63 85.6439 140.955 85.6719 141.271 85.6812C141.281 85.8023 141.281 85.914 141.281 86.0351ZM27.2869 33.3107C27.2125 33.3759 27.1288 33.4411 27.0544 33.5063C26.8219 33.2827 26.5802 33.0778 26.3663 32.8357C25.3062 31.6249 24.2555 30.3955 23.1954 29.1847C22.7026 28.6166 22.2841 28.6445 21.8657 29.2406C21.5309 29.7063 21.4658 30.2185 21.7541 30.7308C21.9029 31.0009 22.0982 31.243 22.2841 31.4945C23.586 33.2362 24.9436 34.9219 26.171 36.7101C28.2075 39.6719 30.1602 42.6988 32.1316 45.7071C32.4198 46.1448 32.6616 46.6198 32.8383 47.1135C35.0328 53.1766 37.2087 59.2491 39.4032 65.3123C40.612 68.6652 41.7837 72.0274 43.1041 75.3337C44.4059 78.5842 45.8752 81.7695 47.2607 84.9827C47.7628 86.1469 48.6927 86.6312 49.9015 86.7057C51.0453 86.7709 51.8264 86.2772 52.3843 85.2621C53.528 83.1665 54.7555 81.1175 55.9085 79.0312C56.1224 78.6401 56.2712 78.1651 56.2805 77.7273C56.3549 73.1078 57.322 68.6838 59.0329 64.4089C59.1538 64.1015 59.2654 63.7755 59.377 63.4868C58.7354 62.8721 51.7427 58.8207 50.9802 58.6251C50.8779 58.9045 50.7663 59.1932 50.6733 59.4819C49.9852 61.6055 49.3064 63.729 48.6276 65.8618C48.3393 66.7466 48.0604 67.6314 47.7628 68.5162C47.6884 68.7304 47.6512 69.0284 47.1584 68.8794C47.2328 68.572 47.2979 68.2554 47.3909 67.948C48.3021 65.0794 49.2134 62.2202 50.1526 59.3609C50.32 58.8486 50.3572 58.4016 49.9945 57.9638C49.8922 57.8428 49.8271 57.703 49.7527 57.5633C47.1863 52.8786 44.471 48.2963 41.2723 44.0213C40.0076 42.3356 39.4218 40.4822 39.3009 38.4238C39.2265 37.1293 39.0591 35.8347 38.8732 34.5401C38.7616 33.7577 38.5198 32.9847 38.3524 32.2303C38.0642 32.2303 37.8689 32.2303 37.6178 32.2303C37.7201 31.6528 37.8317 31.1406 37.8875 30.6283C38.0642 28.8308 38.3431 27.0612 38.8174 25.3196C38.9383 24.8725 39.0219 24.4068 39.0684 23.9505C39.1707 23.0191 38.9383 22.5069 38.3524 22.3113C37.8224 22.1343 37.3296 22.3578 36.8553 23.1402C36.4462 23.8294 36.0835 24.5559 35.8046 25.3103C35.3768 26.4372 35.0514 27.6107 34.6608 28.7563C34.5585 29.045 34.5678 29.4455 34.0285 29.548C34.0285 29.3244 33.9913 29.1475 34.0378 28.9985C34.1959 28.4303 34.354 27.8622 34.5678 27.3127C34.7538 26.8377 34.6422 26.5117 34.3075 26.1485C32.9591 24.6956 31.6294 23.2147 30.2997 21.7525C29.9277 21.3427 29.5651 20.9049 29.1559 20.5231C28.5329 19.9363 27.7053 19.9084 27.1381 20.402C26.6267 20.849 26.4872 21.7525 27.0451 22.4137C27.8355 23.3358 28.5794 24.2765 29.3512 25.2078C29.8255 25.7853 30.3183 26.3441 30.7739 26.9215C30.8762 27.0519 30.8762 27.2475 30.9227 27.4151C30.8483 27.4617 30.7832 27.499 30.7088 27.5455C30.4857 27.3127 30.2439 27.0985 30.0393 26.8563C28.9979 25.6269 27.9657 24.3882 26.9242 23.1588C26.7011 22.898 26.4779 22.6373 26.2082 22.4324C25.6875 22.0319 24.9715 22.0784 24.4879 22.4789C24.0044 22.8887 23.837 23.5872 24.1346 24.1647C24.2741 24.4348 24.488 24.6769 24.6925 24.9005C25.7712 26.1019 26.8591 27.2848 27.9378 28.4862C28.0866 28.6539 28.1889 28.8588 28.3283 29.0637C27.8448 29.3896 27.6867 29.045 27.4915 28.8401C26.5709 27.8343 25.6596 26.8191 24.7297 25.8132C24.5437 25.6083 24.3485 25.4034 24.116 25.2544C23.5302 24.8632 22.777 24.9377 22.3213 25.3941C21.8192 25.8877 21.7541 26.6421 22.1819 27.2568C22.3585 27.5083 22.5817 27.7318 22.7863 27.9646C24.1904 29.5759 25.6038 31.1778 27.0079 32.7984C27.1474 32.9381 27.2032 33.1337 27.2869 33.3107ZM112.399 57.6472C111.171 58.1222 104.643 61.9221 104.16 62.453C104.616 63.4123 105.071 64.3902 105.536 65.3682C105.982 66.3182 106.447 67.2681 106.884 68.2274C107.321 69.1961 107.87 70.1274 108.223 71.2264C107.693 71.3661 107.275 71.4686 106.866 71.571C103.648 72.3627 100.431 73.1543 97.2044 73.9274C96.7023 74.0485 96.3303 74.2627 96.0142 74.7097C93.5965 78.1744 89.0773 79.3013 85.2927 77.3827C84.7813 77.122 84.3163 77.0754 83.7863 77.2151C82.3171 77.5969 80.8293 77.9229 79.3694 78.3234C78.7742 78.4911 78.3 78.4072 77.8072 78.0719C76.4774 77.1685 75.0919 76.3396 73.7994 75.3896C72.4976 74.4396 71.1213 74.1323 69.5963 74.6166C68.2108 75.0543 66.8625 75.6225 65.4584 76.0043C63.3011 76.5911 62.148 78.3048 60.8555 79.8695C60.5021 80.2886 60.5951 80.7822 60.9485 81.1361C61.3018 81.4807 61.7761 81.5273 62.2224 81.2293C62.3991 81.1082 62.5479 80.9499 62.7059 80.8008C63.1802 80.3538 63.6358 79.8974 64.1287 79.4597C64.3053 79.3013 64.5192 79.143 64.7517 79.0871C65.9605 78.817 67.1694 78.5749 68.3875 78.3514C68.5456 78.3234 68.7223 78.4072 68.8989 78.4352C68.9082 78.519 68.9082 78.5935 68.9175 78.6773C68.6107 78.7891 68.3131 78.9102 68.0063 79.0033C66.9183 79.3572 65.8117 79.6646 64.7331 80.0557C64.2867 80.2234 63.8776 80.5307 63.487 80.8288C63.1151 81.1175 63.1244 81.5087 63.3104 81.9185C63.5521 82.4493 63.9241 82.7846 64.5192 82.7567C64.9841 82.7288 65.4491 82.7008 65.8954 82.5984C67.346 82.2817 68.7967 81.9371 70.2473 81.6018C70.4332 81.5552 70.6285 81.5552 70.9447 81.5273C70.5541 82.0954 70.0799 82.3283 69.5963 82.5052C68.5177 82.8964 67.4204 83.2317 66.3418 83.6229C65.9047 83.7812 65.477 83.9582 65.0864 84.2096C64.575 84.5356 64.4262 84.9547 64.5657 85.3925C64.7052 85.8581 65.1329 86.1841 65.7188 86.1562C66.1744 86.1282 66.6393 86.0258 67.0764 85.8861C68.1085 85.5415 69.1128 85.1503 70.1357 84.7964C70.3124 84.7312 70.5169 84.7219 70.8238 84.666C70.5169 85.29 70.0706 85.5601 69.6056 85.8023C69.057 86.0817 68.4805 86.3238 67.9412 86.6312C67.7273 86.7522 67.439 87.041 67.4576 87.2179C67.4948 87.4694 67.7459 87.7861 67.9784 87.8885C68.4898 88.0934 69.0384 88.2517 69.587 88.3076C72.4511 88.5963 75.2872 88.3821 78.0582 87.5998C81.0338 86.7616 84.0559 86.0165 86.7154 84.3121C86.8084 84.2562 87.0037 84.3493 87.1524 84.3773C87.171 84.4425 87.1896 84.5077 87.2082 84.5729C86.5666 84.9827 85.9343 85.4018 85.2927 85.8116C85.6832 85.9885 86.018 86.0165 86.3527 86.0165C93.6988 86.1469 101.036 86.0072 108.372 85.616C110.557 85.4949 112.752 85.1689 114.909 84.7778C117.383 84.3307 119.773 83.5577 122.004 82.3655C123.213 81.7229 124.301 80.9033 125.25 79.9067C125.993 79.1244 126.207 78.2489 125.798 77.2617C125.566 76.6935 125.296 76.1254 124.952 75.6225C120.963 69.8666 116.955 64.1201 112.957 58.3643C112.761 58.1035 112.566 57.8707 112.399 57.6472ZM73.725 31.8205C74.0412 31.9136 74.2643 32.0254 74.5061 32.044C75.8172 32.1651 77.0726 32.4818 78.2256 33.1151C78.5418 33.292 78.7835 33.1617 79.0904 33.0778C80.1784 32.7798 81.1826 32.9381 81.9637 33.8509C82.7169 34.7357 82.9587 35.7322 82.4008 36.7753C82.1125 37.3062 82.159 37.744 82.3636 38.2562C82.8564 39.4483 82.8843 40.6964 82.4008 41.8885C81.8056 43.3787 81.1268 44.8409 80.448 46.3032C79.8157 47.6536 79.5088 49.0414 79.7227 50.5409C79.8994 51.8262 80.3829 52.981 80.9874 54.108C81.7127 55.4398 82.4752 56.7624 83.1261 58.1315C83.8886 59.7148 84.307 61.3912 84.0467 63.1795C83.8886 64.2133 83.4422 65.1353 82.8936 66.0015C81.9358 67.5103 81.6104 69.1588 81.8056 70.9005C82.0939 73.4151 83.247 75.4269 85.4973 76.6935C87.4779 77.8112 89.5515 77.8764 91.6903 77.1592C93.7918 76.4607 95.2517 75.073 96.1072 73.0612C96.9162 71.1799 96.972 69.1961 96.6279 67.2123C96.2281 64.9025 95.1122 62.9001 93.736 61.0373C92.9828 60.0128 92.1645 59.0442 91.4485 57.9918C90.3326 56.3526 89.8119 54.5457 90.0537 52.534C90.2303 51.0624 90.3884 49.5723 90.4163 48.0914C90.4535 46.2752 89.7282 44.785 88.1567 43.7606C87.4035 43.2669 86.6689 42.7454 85.9715 42.1866C84.772 41.2459 84.121 40.0258 84.3349 38.4611C84.4186 37.8185 84.586 37.1851 84.7441 36.5611C84.9951 35.5366 85.3206 34.5214 85.1811 33.4504C84.9021 31.1685 83.9072 29.2499 82.1032 27.8063C80.913 26.8563 79.546 26.2882 78.0024 26.2603C74.8595 26.1951 71.5398 28.4862 70.4146 31.4759C70.3774 31.5783 70.4053 31.7087 70.4053 31.8484C71.0284 32.044 71.5212 31.9043 71.9303 31.4293C72.4139 30.8612 72.9067 30.3024 73.4088 29.7622C73.6041 29.5573 73.8459 29.3989 74.0691 29.2127C74.1341 29.2499 74.1992 29.2965 74.2643 29.3338C74.0877 30.1347 73.911 30.9543 73.725 31.8205ZM33.0056 67.1005C31.5736 66.8863 19.6991 66.9515 19.0575 67.1471C18.8715 68.3485 18.9366 78.519 19.1412 79.2082C27.445 79.2082 35.7488 79.2082 44.0805 79.2082C42.509 75.1102 40.9747 71.0867 39.4032 66.9794C37.4412 67.0074 35.4791 66.9049 33.4427 67.0539C33.4427 67.827 33.4427 68.5069 33.4427 69.1867C33.4427 69.8387 33.4427 70.4907 33.4427 71.1426C33.4427 71.8225 33.4613 72.5117 33.4334 73.1916C33.4055 73.8342 33.5729 74.5048 33.1823 75.1195C32.9684 74.4769 33.0242 73.8156 33.0149 73.1637C33.0056 72.5117 33.0149 71.8598 33.0149 71.2078C33.0149 70.5279 33.0149 69.848 33.0149 69.1588C33.0056 68.4882 33.0056 67.8083 33.0056 67.1005ZM78.9881 34.6891C78.1233 33.7205 77.1377 33.292 76.0683 33.0778C75.25 32.9195 74.4131 32.8357 73.5948 32.7146C73.3345 32.6773 73.0741 32.6401 72.8044 32.6028C72.8044 32.2396 72.8044 31.9602 72.8044 31.569C72.4604 31.9416 72.2 32.2117 71.9582 32.4911C71.763 32.7146 71.484 32.9381 71.4189 33.2082C71.0656 34.6798 70.7587 36.1606 70.4332 37.6694C70.7401 37.7812 70.9912 37.8743 71.2236 37.9582C71.5398 39.2155 71.7723 38.9827 72.6742 38.7964C73.1113 38.7033 73.5297 38.5263 73.9389 38.3959C74.5154 39.1503 74.1899 39.9513 74.2457 40.7802C75.064 40.8454 75.8451 40.9106 76.6541 40.9758C76.3194 44.3939 75.3988 47.4301 72.4697 49.4419C73.6227 51.0904 77.6212 52.6644 79.3508 52.1521C78.4023 49.5909 79.0811 47.2345 80.3271 44.9527C80.7549 44.161 81.1547 43.3508 81.4616 42.5125C81.7127 41.8233 81.88 41.0875 81.9544 40.3518C82.0381 39.4856 81.8335 38.6474 81.3407 37.9116C79.8715 38.2841 79.8622 38.2841 79.3229 37.7998C80.0482 37.5949 80.8386 37.6694 81.3686 37.0641C81.9079 36.4494 82.0846 35.7601 81.8335 34.9964C81.4802 33.9067 80.448 33.4597 79.0997 33.8136C79.0625 34.0278 79.0346 34.2513 78.9881 34.6891ZM127.332 79.2175C127.518 78.1092 127.481 67.799 127.305 67.1098C126.319 66.9049 120.414 66.9515 119.717 67.175C119.893 67.4451 120.052 67.7059 120.228 67.948C121.8 70.2112 123.353 72.4838 124.952 74.7284C125.9 76.0602 126.691 77.4293 126.412 79.2175C126.756 79.2175 127.016 79.2175 127.332 79.2175ZM56.2805 79.7763C55.5738 80.4283 52.9236 85.1317 52.8399 85.8116C54.337 85.8116 55.8341 85.8116 57.3498 85.8116C56.9872 83.7905 56.6431 81.8346 56.2805 79.7763ZM72.0605 39.5042C72.4697 40.1003 72.916 40.3704 73.4646 40.4728C73.7994 39.8395 73.7994 39.8395 73.5669 39.1317C73.1113 39.2434 72.6556 39.3552 72.0605 39.5042Z" fill="black"/>
<path d="M121.753 49.5721C118.238 49.507 115.03 48.5383 112.073 46.6756C110.316 45.5673 108.549 44.4962 107.08 42.9874C103.611 39.4389 101.807 35.2012 101.687 30.2184C101.491 22.0038 107.164 13.7426 116.509 11.9637C122.451 10.8368 127.825 12.3642 132.354 16.4529C133.619 17.5892 134.809 18.8279 135.878 20.1504C144.368 30.6655 138.528 46.6197 125.268 49.1624C124.106 49.3952 122.925 49.4418 121.753 49.5721ZM117.82 12.2338C114.947 12.6064 112.436 13.5471 110.139 15.0838C106.903 17.2539 104.578 20.169 103.239 23.8386C100.543 31.215 102.933 39.3924 109.163 44.1796C115.319 48.9109 123.892 49.0972 130.252 44.6266C133.442 42.382 135.683 39.4017 136.938 35.7042C137.608 33.739 137.98 31.7179 137.822 29.5199C134.744 29.818 131.796 30.1346 128.839 30.3861C125.863 30.6376 122.897 31.0101 119.875 31.1777C119.187 24.8165 118.508 18.5764 117.82 12.2338ZM137.877 29.0729C137.394 23.2984 134.939 18.8186 130.429 15.447C126.245 12.3177 120.21 11.6005 118.285 12.3829C118.936 18.4367 119.596 24.5185 120.275 30.74C126.161 30.1812 131.945 29.6317 137.877 29.0729Z" fill="black"/>
<path d="M96.2652 5.12749C96.2652 6.23581 96.2652 7.30688 96.2652 8.51765C97.0649 8.06128 97.4369 7.37207 97.9576 6.84119C98.4783 6.31963 98.9619 5.7515 99.4733 5.21131C100.003 4.64318 100.543 4.08436 101.082 3.53486C101.603 3.00398 102.133 2.48242 102.672 1.97017C103.23 1.43929 103.807 0.936358 104.374 0.414795C104.43 0.452049 104.485 0.47999 104.541 0.517245C104.402 0.78734 104.262 1.06675 104.113 1.32753C101.975 4.96916 99.5291 8.38726 96.9161 11.6936C96.4512 12.2897 96.2001 12.8671 96.2373 13.6308C96.2931 14.7671 96.2559 15.9127 96.2559 17.17C95.6794 17.1886 95.168 17.2073 94.6565 17.2259C93.8847 17.2538 93.0385 17.0955 92.3783 17.3842C91.7553 17.6636 91.3369 18.4087 90.8254 18.9489C90.5744 19.2097 90.3326 19.4798 89.9978 19.8337C89.6724 19.0886 89.3748 18.4832 89.133 17.8499C88.9471 17.3656 88.6495 17.2073 88.1474 17.2166C86.7247 17.2445 85.3019 17.2259 83.8792 17.2259C83.5445 17.2259 83.2004 17.2259 82.8843 17.2259C82.6332 16.546 82.5402 6.88776 82.7448 5.15543C83.3771 4.94122 95.0564 4.88533 96.2652 5.12749ZM95.791 5.55591C94.6658 5.3417 83.8606 5.37896 83.1632 5.59317C83.1632 9.28136 83.1632 12.9789 83.1632 16.7881C84.9951 16.7881 86.7526 16.8813 88.6123 16.7229C87.7103 14.4132 86.8084 12.2524 86.269 9.95194C87.8126 11.824 89.0494 13.9009 90.3512 15.9499C90.5279 15.8195 90.6116 15.773 90.6673 15.7078C92.276 13.7053 93.8847 11.7029 95.4748 9.68185C95.6329 9.47695 95.7724 9.18823 95.7817 8.93676C95.8096 7.82844 95.791 6.72012 95.791 5.55591ZM95.7631 16.7416C95.8096 15.6053 95.8375 14.5715 95.7538 13.5377C95.6887 13.5097 95.6236 13.4818 95.5492 13.4539C94.6751 14.497 93.801 15.5401 92.8061 16.7323C93.9033 16.7416 94.7774 16.7416 95.7631 16.7416Z" fill="black"/>
<path d="M42.2752 4.16828C41.9218 4.16828 41.5685 4.16828 41.2151 4.16828C38.7974 4.1776 36.3797 4.10309 33.9714 4.21485C30.9772 4.36387 28.0945 5.07171 25.4165 6.48738C23.473 7.52119 21.7993 8.87166 20.5346 10.6878C20.3672 10.93 20.2278 11.2001 20.0418 11.5074C20.3672 11.6751 20.6183 11.7868 20.8508 11.9265C21.4831 12.3084 22.1526 12.6623 22.7384 13.1094C23.1941 13.4633 23.6125 13.901 23.9473 14.376C24.7284 15.4936 24.6819 16.6858 23.8822 17.5333C23.0639 18.4088 21.6226 18.6323 20.5439 18.0363C19.4281 17.4123 18.8794 16.4064 18.7028 15.177C18.5819 14.3388 18.7028 13.5098 18.9724 12.6996C19.0561 12.4388 19.1491 12.178 19.2514 11.8613C19.0282 11.7682 18.8422 11.6564 18.647 11.6099C13.1607 10.4364 8.52989 12.0104 4.82898 16.1642C2.27181 19.0328 1.08157 22.5347 0.68172 26.3254C0.170287 31.2057 1.30474 35.7601 3.30398 40.1468C4.57791 42.9502 6.1959 45.558 7.98126 48.0634C8.16724 48.3242 8.33462 48.5943 8.502 48.8644C8.4462 48.9109 8.39971 48.9668 8.34392 49.0134C8.21373 48.9389 8.02776 48.8923 7.95337 48.7805C4.32684 43.7791 1.36983 38.4704 0.402757 32.2768C-0.322548 27.62 0.216781 23.1215 2.42059 18.9024C5.32181 13.3515 10.9104 10.278 16.9546 10.8555C17.6334 10.9207 18.2936 11.0883 18.9631 11.2373C19.3258 11.3211 19.6047 11.3118 19.8372 10.9486C22.32 7.11139 26.0581 5.2021 30.3727 4.26142C34.1573 3.43251 38.007 3.54427 41.8474 3.73986C42.0055 3.74917 42.1636 3.84231 42.331 3.89819C42.3031 3.99133 42.2938 4.07515 42.2752 4.16828ZM19.8093 11.9638C19.27 12.9697 19.0003 13.9103 19.1119 14.9162C19.2421 16.1083 19.7256 17.1142 20.8601 17.6823C21.79 18.148 22.9895 17.8966 23.6404 17.1235C24.2076 16.4436 24.1983 15.5588 23.5939 14.6368C23.5288 14.5343 23.4544 14.4319 23.38 14.3388C22.4409 13.2304 21.2227 12.5412 19.8093 11.9638Z" fill="black"/>
<path d="M100.515 48.7339C100.013 48.3707 99.5203 47.9702 98.9995 47.6442C98.4788 47.3182 97.9302 47.0202 97.3629 46.7873C96.7678 46.5452 96.1355 46.3589 95.5032 46.2192C94.9174 46.0888 94.3129 46.0329 93.6992 45.7815C93.8108 45.7163 93.9224 45.5859 94.0247 45.5952C96.5167 45.7349 98.7206 46.5918 100.562 48.3148C100.618 48.3707 100.627 48.4731 100.664 48.5569C100.608 48.6128 100.562 48.678 100.515 48.7339Z" fill="black"/>
<path d="M80.9041 24.118C79.8719 24.0528 79.0164 23.9038 78.1702 23.9597C77.3148 24.0156 76.45 24.1832 75.6317 24.444C74.8413 24.6955 74.1067 25.1146 73.1582 25.543C73.8184 24.5837 75.4085 23.8479 77.0358 23.6058C78.7933 23.345 80.1044 23.4847 80.9041 24.118Z" fill="black"/>
<path d="M20.5995 32.4258C20.9808 34.1302 21.8828 35.3223 23.5844 36.086C23.2218 36.1978 23.073 36.3002 22.9893 36.263C21.5573 35.6017 20.6646 34.4841 20.3206 32.938C20.3113 32.8821 20.3113 32.8076 20.3299 32.7611C20.3485 32.7052 20.395 32.6679 20.5995 32.4258Z" fill="black"/>
<path d="M40.9448 25.0959C41.512 26.3626 41.2051 28.5513 40.3031 29.7993C40.2381 29.6317 40.1265 29.4827 40.1637 29.4082C40.7216 28.1415 40.8983 26.819 40.7867 25.4499C40.7867 25.366 40.8611 25.2915 40.9448 25.0959Z" fill="black"/>
<path d="M125.547 81.8625C125.417 83.2968 123.78 84.7684 122.59 84.6101C123.213 84.163 123.817 83.8277 124.31 83.3714C124.775 82.9336 125.138 82.3655 125.547 81.8625Z" fill="black"/>
<path d="M27.2865 33.3106C27.2028 33.1337 27.147 32.9381 27.0262 32.7984C25.622 31.1871 24.2179 29.5759 22.8045 27.9646C22.5999 27.7318 22.3768 27.5082 22.2001 27.2568C21.7723 26.6328 21.8374 25.8877 22.3396 25.3941C22.8045 24.9377 23.5484 24.8632 24.1342 25.2544C24.3667 25.4034 24.562 25.6176 24.748 25.8132C25.6685 26.819 26.5798 27.8342 27.5097 28.8401C27.6957 29.045 27.8631 29.3896 28.3466 29.0636C28.2071 28.8587 28.1048 28.6538 27.956 28.4862C26.8774 27.2847 25.7894 26.1019 24.7108 24.9004C24.5062 24.6676 24.2923 24.4348 24.1528 24.1647C23.8553 23.5872 24.0227 22.8887 24.5062 22.4789C24.9897 22.0691 25.7057 22.0318 26.2265 22.4323C26.4961 22.6372 26.7193 22.898 26.9425 23.1588C27.9839 24.3882 29.0161 25.6269 30.0576 26.8563C30.2621 27.0984 30.5039 27.322 30.7271 27.5455C30.8015 27.4989 30.8666 27.4617 30.9409 27.4151C30.8945 27.2475 30.8945 27.0426 30.7922 26.9215C30.3272 26.3347 29.8437 25.7759 29.3695 25.2078C28.5977 24.2764 27.8445 23.3264 27.0634 22.4137C26.5054 21.7617 26.6449 20.849 27.1563 20.402C27.7236 19.9083 28.5512 19.9363 29.1742 20.523C29.5833 20.9049 29.9367 21.3333 30.3179 21.7524C31.657 23.224 32.9774 24.6955 34.3257 26.1485C34.6605 26.5117 34.772 26.8377 34.5861 27.3127C34.3722 27.8622 34.2141 28.4303 34.056 28.9984C34.0095 29.1474 34.0467 29.3244 34.0467 29.5479C34.5768 29.4455 34.5768 29.045 34.6791 28.7563C35.0696 27.6107 35.3951 26.4465 35.8228 25.3102C36.1018 24.5651 36.4644 23.8294 36.8736 23.1402C37.3478 22.3485 37.8406 22.1343 38.3707 22.3112C38.9472 22.4975 39.189 23.0191 39.0867 23.9504C39.0309 24.4068 38.9565 24.8725 38.8356 25.3195C38.3614 27.0612 38.0824 28.8308 37.9057 30.6283C37.8499 31.1406 37.7384 31.6528 37.6361 32.2303C37.8871 32.2303 38.0731 32.2303 38.3707 32.2303C38.5474 32.9847 38.7798 33.7577 38.8914 34.54C39.0774 35.8253 39.2448 37.1199 39.3191 38.4238C39.44 40.4914 40.0259 42.3355 41.2905 44.0213C44.4893 48.2963 47.2138 52.8879 49.771 57.5633C49.8454 57.703 49.9105 57.8427 50.0127 57.9638C50.3754 58.4015 50.3382 58.8486 50.1708 59.3608C49.2317 62.2201 48.3204 65.0887 47.4091 67.948C47.3161 68.2553 47.251 68.572 47.1766 68.8794C47.6695 69.0284 47.7067 68.7303 47.781 68.5161C48.0786 67.6313 48.3576 66.7465 48.6458 65.8617C49.3246 63.7382 50.0127 61.6147 50.6916 59.4819C50.7845 59.1932 50.8961 58.9045 50.9984 58.6251C51.7609 58.83 58.7443 62.8814 59.3952 63.4868C59.2836 63.7755 59.1813 64.1015 59.0512 64.4088C57.3402 68.6838 56.3731 73.1077 56.2987 77.7273C56.2894 78.165 56.1406 78.6493 55.9268 79.0312C54.7737 81.1175 53.5463 83.1758 52.4025 85.262C51.8446 86.2772 51.0635 86.7708 49.9198 86.7056C48.7109 86.6404 47.781 86.1468 47.2789 84.9826C45.8934 81.7694 44.4242 78.5842 43.1224 75.3337C41.8019 72.0274 40.6303 68.6558 39.4214 65.3122C37.2269 59.2491 35.051 53.1766 32.8565 47.1134C32.6798 46.6198 32.4381 46.1448 32.1498 45.7071C30.1784 42.6988 28.2257 39.6812 26.1893 36.7101C24.9618 34.9219 23.6042 33.2268 22.3024 31.4945C22.1164 31.243 21.9211 31.0009 21.7724 30.7308C21.4841 30.2185 21.5492 29.7156 21.8839 29.2406C22.3117 28.6445 22.7208 28.6259 23.2137 29.1847C24.2737 30.3955 25.3245 31.6249 26.3845 32.8356C26.5984 33.0778 26.8402 33.2827 27.0727 33.5062C27.1284 33.441 27.2121 33.3758 27.2865 33.3106ZM34.0188 37.4831C34.0653 37.241 34.1304 37.1106 34.0932 37.0175C33.3586 35.0337 33.2935 33.0312 33.9073 31.0102C33.9445 30.8705 33.8608 30.6935 33.8236 30.4793C32.6147 31.6807 32.717 36.2072 34.0188 37.4831Z" fill="white"/>
<path d="M112.399 57.6471C112.575 57.8706 112.771 58.1035 112.938 58.3549C116.946 64.1014 120.944 69.8479 124.933 75.6131C125.277 76.116 125.547 76.6841 125.78 77.2523C126.189 78.2395 125.984 79.115 125.231 79.8973C124.282 80.8939 123.194 81.7042 121.986 82.3561C119.754 83.5483 117.364 84.3213 114.891 84.7684C112.733 85.1595 110.548 85.4948 108.354 85.6066C101.017 86.0071 93.6801 86.1468 86.3341 86.0071C85.9993 85.9978 85.6646 85.9698 85.274 85.8022C85.9156 85.3924 86.5479 84.9733 87.1896 84.5635C87.171 84.4983 87.1524 84.4331 87.1338 84.3679C86.985 84.3399 86.7897 84.2468 86.6967 84.3027C84.0466 86.0071 81.0245 86.7522 78.0489 87.5904C75.2778 88.3727 72.4417 88.587 69.5777 88.2982C69.029 88.2423 68.4804 88.0933 67.969 87.8791C67.7272 87.786 67.4854 87.46 67.4482 87.2085C67.4203 87.0409 67.7179 86.7522 67.9318 86.6218C68.4618 86.3144 69.0383 86.0723 69.5963 85.7929C70.0612 85.5507 70.4982 85.2806 70.8144 84.6566C70.5075 84.7125 70.303 84.7218 70.1263 84.787C69.1034 85.1502 68.0899 85.5414 67.067 85.8767C66.6299 86.0257 66.165 86.1282 65.7094 86.1468C65.1235 86.1747 64.6958 85.8487 64.5563 85.3831C64.4261 84.9453 64.5656 84.5262 65.0771 84.2002C65.4583 83.9488 65.8953 83.7718 66.3324 83.6135C67.411 83.2223 68.5083 82.887 69.587 82.4958C70.0705 82.3189 70.5447 82.0954 70.9353 81.5179C70.6191 81.5552 70.4239 81.5552 70.2379 81.5924C68.7873 81.9184 67.346 82.2723 65.886 82.589C65.4397 82.6914 64.9655 82.7194 64.5098 82.7473C63.9054 82.7753 63.5335 82.44 63.301 81.9091C63.115 81.4993 63.1057 81.0988 63.4777 80.8194C63.8682 80.5214 64.2681 80.214 64.7237 80.0464C65.8024 79.6552 66.8996 79.3385 67.9969 78.9939C68.3037 78.8915 68.6013 78.7797 68.9082 78.6679C68.8989 78.5841 68.8989 78.5096 68.8896 78.4258C68.7222 78.3978 68.5362 78.314 68.3781 78.342C67.16 78.5748 65.9511 78.817 64.7423 79.0777C64.5191 79.1243 64.296 79.292 64.1193 79.4503C63.6357 79.888 63.1708 80.3444 62.6966 80.7915C62.5385 80.9405 62.3897 81.0988 62.213 81.2199C61.7667 81.5179 61.2924 81.4713 60.9391 81.1267C60.5857 80.7728 60.4928 80.2885 60.8461 79.8601C62.1386 78.2954 63.301 76.5724 65.449 75.9949C66.8531 75.6131 68.2014 75.0449 69.587 74.6072C71.112 74.1229 72.4882 74.4302 73.79 75.3802C75.0918 76.3302 76.4681 77.1685 77.7978 78.0626C78.2906 78.3979 78.7649 78.4724 79.36 78.314C80.8199 77.9042 82.3077 77.5783 83.7769 77.2057C84.3162 77.066 84.7812 77.1219 85.2833 77.3733C89.0679 79.292 93.5871 78.165 96.0048 74.7003C96.321 74.2533 96.6929 74.0391 97.195 73.918C100.412 73.145 103.63 72.344 106.856 71.5617C107.275 71.4592 107.684 71.3474 108.214 71.217C107.861 70.118 107.312 69.1867 106.875 68.2181C106.438 67.2588 105.982 66.3088 105.527 65.3588C105.062 64.3808 104.606 63.4029 104.151 62.4436C104.643 61.9314 111.171 58.1221 112.399 57.6471Z" fill="white"/>
<path d="M73.7244 31.8204C73.9104 30.9542 74.087 30.1346 74.2637 29.3057C74.1986 29.2684 74.1335 29.2219 74.0684 29.1846C73.8453 29.3616 73.6035 29.5292 73.4082 29.7341C72.9061 30.2743 72.4132 30.8424 71.9297 31.4013C71.5206 31.8762 71.037 32.016 70.4047 31.8204C70.4047 31.6807 70.3675 31.5503 70.414 31.4478C71.5392 28.4581 74.8588 26.167 78.0018 26.2322C79.5361 26.2694 80.9123 26.8283 82.1026 27.7783C83.9065 29.2219 84.9015 31.1312 85.1805 33.4223C85.3107 34.4934 84.9852 35.5086 84.7434 36.5331C84.5854 37.1664 84.418 37.7997 84.3343 38.433C84.1204 39.9977 84.7806 41.2178 85.9709 42.1585C86.6776 42.7173 87.4122 43.2389 88.1561 43.7325C89.7276 44.757 90.4529 46.2472 90.4157 48.0633C90.3878 49.5442 90.2204 51.0344 90.053 52.5059C89.8206 54.5177 90.332 56.3245 91.4479 57.9637C92.1639 59.0161 92.9822 59.9848 93.7354 61.0093C95.1116 62.872 96.2274 64.8744 96.6273 67.1842C96.9713 69.168 96.9155 71.1425 96.1065 73.0332C95.2418 75.0449 93.7911 76.4326 91.6896 77.1311C89.5509 77.839 87.4773 77.7738 85.4966 76.6655C83.2463 75.3988 82.0933 73.3871 81.805 70.8724C81.6004 69.1307 81.9352 67.4822 82.893 65.9734C83.4416 65.1073 83.8972 64.1852 84.046 63.1514C84.3064 61.3632 83.8879 59.696 83.1254 58.1034C82.4745 56.7343 81.7027 55.4211 80.9867 54.0799C80.3823 52.953 79.8988 51.7981 79.7221 50.5128C79.5175 49.0133 79.8244 47.6256 80.4474 46.2751C81.1262 44.8129 81.7957 43.3506 82.4001 41.8605C82.8837 40.6683 82.8558 39.4296 82.3629 38.2281C82.1491 37.7159 82.1119 37.2781 82.4001 36.7473C82.9581 35.7041 82.7256 34.7076 81.9631 33.8228C81.182 32.9101 80.1777 32.7517 79.0898 33.0498C78.7829 33.1336 78.5411 33.264 78.225 33.087C77.0719 32.4444 75.8166 32.1277 74.5055 32.016C74.273 32.0253 74.0405 31.9135 73.7244 31.8204Z" fill="white"/>
<path d="M33.0048 67.1005C33.0048 67.8083 33.0048 68.4789 33.0048 69.1588C33.0048 69.8387 33.0048 70.5186 33.0048 71.2078C33.0048 71.8597 32.9955 72.5117 33.0048 73.1637C33.0141 73.8156 32.9583 74.4769 33.1722 75.1195C33.572 74.5048 33.4047 73.8342 33.4233 73.1916C33.4511 72.5117 33.4325 71.8318 33.4325 71.1426C33.4325 70.4906 33.4325 69.8387 33.4325 69.1867C33.4325 68.5068 33.4325 67.827 33.4325 67.0539C35.469 66.9049 37.4403 67.0074 39.3931 66.9794C40.9646 71.0867 42.5082 75.1102 44.0704 79.2082C35.7386 79.2082 27.4255 79.2082 19.131 79.2082C18.9264 78.5097 18.8614 68.3392 19.0473 67.1471C19.6889 66.9515 31.5635 66.8863 33.0048 67.1005Z" fill="white"/>
<path d="M78.988 34.6889C79.0345 34.2512 79.0624 34.0277 79.0903 33.8042C80.4386 33.4502 81.4708 33.8973 81.8241 34.987C82.0752 35.76 81.8985 36.4399 81.3592 37.0546C80.8292 37.66 80.0388 37.5855 79.3135 37.7904C79.8621 38.2747 79.8621 38.2747 81.3313 37.9021C81.8241 38.6379 82.0287 39.4762 81.945 40.3423C81.8706 41.0688 81.7033 41.8139 81.4522 42.5031C81.1453 43.3413 80.7455 44.1609 80.3177 44.9432C79.0717 47.2251 78.3929 49.5814 79.3414 52.1427C77.6025 52.6549 73.604 51.0902 72.4603 49.4324C75.3801 47.4207 76.3007 44.3844 76.6447 40.9663C75.8357 40.9011 75.0546 40.8359 74.2363 40.7707C74.1712 39.9418 74.506 39.1409 73.9295 38.3865C73.5296 38.5168 73.1019 38.6938 72.6648 38.7869C71.7629 38.9732 71.5304 39.2061 71.2142 37.9487C70.9911 37.8649 70.74 37.7718 70.4238 37.66C70.7493 36.1512 71.0561 34.661 71.4095 33.1988C71.4746 32.9287 71.7536 32.7145 71.9488 32.4816C72.1906 32.2022 72.451 31.9321 72.795 31.5596C72.795 31.9507 72.795 32.2208 72.795 32.5934C73.074 32.6306 73.3343 32.6679 73.5854 32.7051C74.413 32.8262 75.2406 32.91 76.0589 33.0684C77.1376 33.2919 78.1232 33.7203 78.988 34.6889ZM80.3549 34.81C80.2712 34.7355 80.1875 34.6703 80.1039 34.5958C79.5645 34.9777 78.988 35.313 78.551 36.0115C79.174 36.0581 79.6575 36.5051 80.327 36.1326C80.0946 35.937 79.9272 35.788 79.7598 35.6389C79.9737 35.3502 80.1689 35.0801 80.3549 34.81ZM76.4959 37.2223C76.4773 36.7007 76.3193 36.4772 75.938 36.4585C75.5846 36.4399 75.3243 36.6727 75.3336 36.9987C75.3429 37.3526 75.659 37.6972 75.9938 37.6041C76.2077 37.5482 76.375 37.3154 76.4959 37.2223ZM74.6269 33.8787C74.4967 33.1708 74.0968 32.91 73.418 33.0777C73.1205 33.1522 72.8229 33.2453 72.9624 33.4968C73.604 33.6365 74.0875 33.7483 74.6269 33.8787ZM73.6133 34.9404C73.976 34.6144 73.976 34.335 73.604 34.0184C73.2693 34.3443 73.26 34.6144 73.6133 34.9404Z" fill="white"/>
<path d="M127.333 79.2173C127.016 79.2173 126.756 79.2173 126.412 79.2173C126.7 77.4384 125.91 76.0693 124.952 74.7282C123.353 72.4836 121.8 70.2111 120.228 67.9478C120.052 67.6964 119.893 67.4356 119.717 67.1748C120.414 66.942 126.31 66.9047 127.305 67.1096C127.481 67.7895 127.518 78.109 127.333 79.2173Z" fill="white"/>
<path d="M56.2804 79.7762C56.643 81.8346 56.9871 83.7904 57.3498 85.8115C55.8433 85.8115 54.3462 85.8115 52.8398 85.8115C52.9235 85.1316 55.5737 80.4375 56.2804 79.7762Z" fill="white"/>
<path d="M72.0586 39.5041C72.6537 39.3551 73.1094 39.2526 73.565 39.1409C73.7975 39.8487 73.7975 39.8487 73.4627 40.482C72.9141 40.3703 72.4677 40.1002 72.0586 39.5041Z" fill="white"/>
<path d="M117.818 12.2338C118.506 18.5763 119.185 24.8165 119.883 31.1777C122.905 31.01 125.871 30.6375 128.847 30.386C131.804 30.1345 134.751 29.8179 137.829 29.5199C137.987 31.7179 137.606 33.7389 136.946 35.7041C135.69 39.4016 133.45 42.382 130.26 44.6265C123.909 49.0971 115.326 48.9108 109.17 44.1795C102.94 39.3923 100.55 31.2149 103.247 23.8385C104.586 20.169 106.911 17.2631 110.147 15.0837C112.434 13.547 114.945 12.6063 117.818 12.2338Z" fill="white"/>
<path d="M137.878 29.0729C131.945 29.6317 126.171 30.1812 120.275 30.7401C119.606 24.5186 118.945 18.4368 118.285 12.3829C120.21 11.6006 126.245 12.3177 130.429 15.4471C134.939 18.8186 137.394 23.2985 137.878 29.0729Z" fill="white"/>
<path d="M95.7894 5.556C95.7894 6.71089 95.808 7.81921 95.7708 8.92753C95.7615 9.179 95.622 9.46772 95.4639 9.67262C93.8738 11.6937 92.2651 13.6961 90.6565 15.6985C90.6007 15.7637 90.517 15.8103 90.3403 15.9407C89.0385 13.8917 87.8017 11.8148 86.2581 9.94272C86.7975 12.2432 87.6994 14.4039 88.6014 16.7137C86.7417 16.8627 84.9842 16.7789 83.1523 16.7789C83.1523 12.9696 83.1523 9.27214 83.1523 5.58394C83.8683 5.38836 94.6642 5.34179 95.7894 5.556Z" fill="white"/>
<path d="M95.7617 16.7417C94.776 16.7417 93.9019 16.7417 92.8047 16.7417C93.7997 15.5495 94.6737 14.5064 95.5478 13.4633C95.6129 13.4912 95.678 13.5191 95.7524 13.5471C95.8361 14.5623 95.8082 15.5961 95.7617 16.7417Z" fill="white"/>
<path d="M19.8091 11.9637C21.2226 12.5412 22.4407 13.2211 23.3706 14.3387C23.445 14.4319 23.5194 14.5343 23.5844 14.6368C24.1796 15.5495 24.1982 16.4436 23.6309 17.1235C22.98 17.8965 21.7805 18.148 20.8506 17.6823C19.7254 17.1142 19.2419 16.099 19.1024 14.9162C18.9908 13.9103 19.2698 12.9696 19.8091 11.9637Z" fill="white"/>
<path d="M34.019 37.4831C32.7172 36.2071 32.6149 31.6807 33.8237 30.4792C33.8609 30.6935 33.9539 30.8704 33.9074 31.0101C33.2937 33.0405 33.3495 35.0336 34.0934 37.0174C34.1306 37.1105 34.0655 37.2409 34.019 37.4831Z" fill="black"/>
<path d="M80.3533 34.81C80.158 35.0801 79.972 35.3502 79.7674 35.639C79.9348 35.788 80.1022 35.9277 80.3347 36.1326C79.6652 36.5144 79.1816 36.0674 78.5586 36.0115C78.9956 35.313 79.5722 34.9777 80.1115 34.5958C80.1952 34.6703 80.2696 34.7448 80.3533 34.81Z" fill="black"/>
<path d="M76.4946 37.2223C76.3737 37.3154 76.2064 37.5483 75.9925 37.6041C75.6577 37.688 75.3416 37.3527 75.3323 36.9988C75.323 36.6635 75.5833 36.4306 75.9367 36.4586C76.3086 36.4772 76.476 36.7007 76.4946 37.2223Z" fill="black"/>
<path d="M74.6276 33.8788C74.0883 33.7484 73.6047 33.6366 72.9631 33.4876C72.8329 33.2361 73.1305 33.143 73.4188 33.0685C74.0976 32.9101 74.4974 33.1709 74.6276 33.8788Z" fill="black"/>
<path d="M73.6123 34.9405C73.2589 34.6145 73.2682 34.3444 73.603 34.0184C73.975 34.3444 73.975 34.6145 73.6123 34.9405Z" fill="black"/>
</g>
<defs>
<clipPath id="clip0_57917_290">
<rect width="141.323" height="88.498" fill="white" transform="translate(0.0976562 0.414795)"/>
</clipPath>
</defs>
</svg>
