<svg width="815" height="815" viewBox="0 0 815 815" fill="none" xmlns="http://www.w3.org/2000/svg">
<g opacity="0.3" filter="url(#filter0_d_1238_19053)">
<circle cx="416.674" cy="393.679" r="221.276" fill="white"/>
</g>
<g filter="url(#filter1_d_1238_19053)">
<circle cx="416.674" cy="393.682" r="248.741" stroke="white" stroke-width="2.28895" shape-rendering="crispEdges"/>
</g>
<g filter="url(#filter2_d_1238_19053)">
<circle cx="416.675" cy="393.679" r="279.138" stroke="white" stroke-width="2.28895" shape-rendering="crispEdges"/>
</g>
<g filter="url(#filter3_d_1238_19053)">
<circle cx="416.674" cy="393.68" r="309.536" stroke="white" stroke-width="2.28895" shape-rendering="crispEdges"/>
</g>
<path d="M724.81 104.133C723.28 104.133 722.034 102.887 722.034 101.357C722.034 99.8271 723.28 98.5806 724.81 98.5806C726.34 98.5806 727.586 99.8271 727.586 101.357C727.586 102.896 726.34 104.133 724.81 104.133ZM727.586 117.967C727.586 116.438 726.34 115.191 724.81 115.191C723.28 115.191 722.034 116.438 722.034 117.967C722.034 119.497 723.28 120.744 724.81 120.744C726.34 120.744 727.586 119.507 727.586 117.967ZM727.586 134.578C727.586 133.048 726.34 131.802 724.81 131.802C723.28 131.802 722.034 133.048 722.034 134.578C722.034 136.108 723.28 137.354 724.81 137.354C726.34 137.364 727.586 136.117 727.586 134.578ZM727.586 151.198C727.586 149.668 726.34 148.422 724.81 148.422C723.28 148.422 722.034 149.668 722.034 151.198C722.034 152.728 723.28 153.974 724.81 153.974C726.34 153.974 727.586 152.728 727.586 151.198ZM727.586 167.808C727.586 166.279 726.34 165.032 724.81 165.032C723.28 165.032 722.034 166.279 722.034 167.808C722.034 169.338 723.28 170.585 724.81 170.585C726.34 170.585 727.586 169.338 727.586 167.808ZM710.976 101.357C710.976 99.8271 709.729 98.5806 708.199 98.5806C706.67 98.5806 705.423 99.8271 705.423 101.357C705.423 102.887 706.67 104.133 708.199 104.133C709.729 104.133 710.976 102.896 710.976 101.357ZM710.976 117.967C710.976 116.438 709.729 115.191 708.199 115.191C706.67 115.191 705.423 116.438 705.423 117.967C705.423 119.497 706.67 120.744 708.199 120.744C709.729 120.744 710.976 119.507 710.976 117.967ZM710.976 134.578C710.976 133.048 709.729 131.802 708.199 131.802C706.67 131.802 705.423 133.048 705.423 134.578C705.423 136.108 706.67 137.354 708.199 137.354C709.729 137.364 710.976 136.117 710.976 134.578ZM710.976 151.198C710.976 149.668 709.729 148.422 708.199 148.422C706.67 148.422 705.423 149.668 705.423 151.198C705.423 152.728 706.67 153.974 708.199 153.974C709.729 153.974 710.976 152.728 710.976 151.198ZM710.976 167.808C710.976 166.279 709.729 165.032 708.199 165.032C706.67 165.032 705.423 166.279 705.423 167.808C705.423 169.338 706.67 170.585 708.199 170.585C709.729 170.585 710.976 169.338 710.976 167.808ZM694.356 101.357C694.356 99.8271 693.109 98.5806 691.579 98.5806C690.05 98.5806 688.803 99.8271 688.803 101.357C688.803 102.887 690.05 104.133 691.579 104.133C693.119 104.133 694.356 102.896 694.356 101.357ZM694.356 117.967C694.356 116.438 693.109 115.191 691.579 115.191C690.05 115.191 688.803 116.438 688.803 117.967C688.803 119.497 690.05 120.744 691.579 120.744C693.119 120.744 694.356 119.507 694.356 117.967ZM694.356 134.578C694.356 133.048 693.109 131.802 691.579 131.802C690.05 131.802 688.803 133.048 688.803 134.578C688.803 136.108 690.05 137.354 691.579 137.354C693.119 137.364 694.356 136.117 694.356 134.578ZM694.356 151.198C694.356 149.668 693.109 148.422 691.579 148.422C690.05 148.422 688.803 149.668 688.803 151.198C688.803 152.728 690.05 153.974 691.579 153.974C693.119 153.974 694.356 152.728 694.356 151.198ZM694.356 167.808C694.356 166.279 693.109 165.032 691.579 165.032C690.05 165.032 688.803 166.279 688.803 167.808C688.803 169.338 690.05 170.585 691.579 170.585C693.119 170.585 694.356 169.338 694.356 167.808ZM677.745 101.357C677.745 99.8271 676.499 98.5806 674.969 98.5806C673.439 98.5806 672.193 99.8271 672.193 101.357C672.193 102.887 673.439 104.133 674.969 104.133C676.508 104.133 677.745 102.896 677.745 101.357ZM677.745 117.967C677.745 116.438 676.499 115.191 674.969 115.191C673.439 115.191 672.193 116.438 672.193 117.967C672.193 119.497 673.439 120.744 674.969 120.744C676.508 120.744 677.745 119.507 677.745 117.967ZM677.745 134.578C677.745 133.048 676.499 131.802 674.969 131.802C673.439 131.802 672.193 133.048 672.193 134.578C672.193 136.108 673.439 137.354 674.969 137.354C676.508 137.364 677.745 136.117 677.745 134.578ZM677.745 151.198C677.745 149.668 676.499 148.422 674.969 148.422C673.439 148.422 672.193 149.668 672.193 151.198C672.193 152.728 673.439 153.974 674.969 153.974C676.508 153.974 677.745 152.728 677.745 151.198ZM677.745 167.808C677.745 166.279 676.499 165.032 674.969 165.032C673.439 165.032 672.193 166.279 672.193 167.808C672.193 169.338 673.439 170.585 674.969 170.585C676.508 170.585 677.745 169.338 677.745 167.808ZM661.135 101.357C661.135 99.8271 659.888 98.5806 658.358 98.5806C656.829 98.5806 655.582 99.8271 655.582 101.357C655.582 102.887 656.829 104.133 658.358 104.133C659.888 104.133 661.135 102.896 661.135 101.357ZM661.135 117.967C661.135 116.438 659.888 115.191 658.358 115.191C656.829 115.191 655.582 116.438 655.582 117.967C655.582 119.497 656.829 120.744 658.358 120.744C659.888 120.744 661.135 119.507 661.135 117.967ZM661.135 134.578C661.135 133.048 659.888 131.802 658.358 131.802C656.829 131.802 655.582 133.048 655.582 134.578C655.582 136.108 656.829 137.354 658.358 137.354C659.888 137.354 661.135 136.117 661.135 134.578ZM661.135 151.198C661.135 149.668 659.888 148.422 658.358 148.422C656.829 148.422 655.582 149.668 655.582 151.198C655.582 152.728 656.829 153.974 658.358 153.974C659.888 153.974 661.135 152.728 661.135 151.198ZM661.135 167.808C661.135 166.279 659.888 165.032 658.358 165.032C656.829 165.032 655.582 166.279 655.582 167.808C655.582 169.338 656.829 170.585 658.358 170.585C659.888 170.585 661.135 169.338 661.135 167.808Z" fill="#F0806C"/>
<path d="M104.027 233.772C102.944 233.772 102.061 232.89 102.061 231.806C102.061 230.723 102.944 229.84 104.027 229.84C105.11 229.84 105.993 230.723 105.993 231.806C105.993 232.896 105.11 233.772 104.027 233.772ZM105.993 243.57C105.993 242.486 105.11 241.604 104.027 241.604C102.944 241.604 102.061 242.486 102.061 243.57C102.061 244.653 102.944 245.536 104.027 245.536C105.11 245.536 105.993 244.66 105.993 243.57ZM105.993 255.333C105.993 254.25 105.11 253.367 104.027 253.367C102.944 253.367 102.061 254.25 102.061 255.333C102.061 256.417 102.944 257.299 104.027 257.299C105.11 257.306 105.993 256.423 105.993 255.333ZM105.993 267.103C105.993 266.02 105.11 265.137 104.027 265.137C102.944 265.137 102.061 266.02 102.061 267.103C102.061 268.187 102.944 269.07 104.027 269.07C105.11 269.07 105.993 268.187 105.993 267.103ZM105.993 278.867C105.993 277.784 105.11 276.901 104.027 276.901C102.944 276.901 102.061 277.784 102.061 278.867C102.061 279.95 102.944 280.833 104.027 280.833C105.11 280.833 105.993 279.95 105.993 278.867ZM94.2295 231.806C94.2295 230.723 93.3468 229.84 92.2634 229.84C91.18 229.84 90.2972 230.723 90.2972 231.806C90.2972 232.89 91.18 233.772 92.2634 233.772C93.3468 233.772 94.2295 232.896 94.2295 231.806ZM94.2295 243.57C94.2295 242.486 93.3468 241.604 92.2634 241.604C91.18 241.604 90.2972 242.486 90.2972 243.57C90.2972 244.653 91.18 245.536 92.2634 245.536C93.3468 245.536 94.2295 244.66 94.2295 243.57ZM94.2295 255.333C94.2295 254.25 93.3468 253.367 92.2634 253.367C91.18 253.367 90.2972 254.25 90.2972 255.333C90.2972 256.417 91.18 257.299 92.2634 257.299C93.3468 257.306 94.2295 256.423 94.2295 255.333ZM94.2295 267.103C94.2295 266.02 93.3468 265.137 92.2634 265.137C91.18 265.137 90.2972 266.02 90.2972 267.103C90.2972 268.187 91.18 269.07 92.2634 269.07C93.3468 269.07 94.2295 268.187 94.2295 267.103ZM94.2295 278.867C94.2295 277.784 93.3468 276.901 92.2634 276.901C91.18 276.901 90.2972 277.784 90.2972 278.867C90.2972 279.95 91.18 280.833 92.2634 280.833C93.3468 280.833 94.2295 279.95 94.2295 278.867ZM82.4594 231.806C82.4594 230.723 81.5766 229.84 80.4932 229.84C79.4098 229.84 78.527 230.723 78.527 231.806C78.527 232.89 79.4098 233.772 80.4932 233.772C81.5833 233.772 82.4594 232.896 82.4594 231.806ZM82.4594 243.57C82.4594 242.486 81.5766 241.604 80.4932 241.604C79.4098 241.604 78.527 242.486 78.527 243.57C78.527 244.653 79.4098 245.536 80.4932 245.536C81.5833 245.536 82.4594 244.66 82.4594 243.57ZM82.4594 255.333C82.4594 254.25 81.5766 253.367 80.4932 253.367C79.4098 253.367 78.527 254.25 78.527 255.333C78.527 256.417 79.4098 257.299 80.4932 257.299C81.5833 257.306 82.4594 256.423 82.4594 255.333ZM82.4594 267.103C82.4594 266.02 81.5766 265.137 80.4932 265.137C79.4098 265.137 78.527 266.02 78.527 267.103C78.527 268.187 79.4098 269.07 80.4932 269.07C81.5833 269.07 82.4594 268.187 82.4594 267.103ZM82.4594 278.867C82.4594 277.784 81.5766 276.901 80.4932 276.901C79.4098 276.901 78.527 277.784 78.527 278.867C78.527 279.95 79.4098 280.833 80.4932 280.833C81.5833 280.833 82.4594 279.95 82.4594 278.867ZM70.6958 231.806C70.6958 230.723 69.813 229.84 68.7297 229.84C67.6463 229.84 66.7635 230.723 66.7635 231.806C66.7635 232.89 67.6463 233.772 68.7297 233.772C69.8197 233.772 70.6958 232.896 70.6958 231.806ZM70.6958 243.57C70.6958 242.486 69.813 241.604 68.7297 241.604C67.6463 241.604 66.7635 242.486 66.7635 243.57C66.7635 244.653 67.6463 245.536 68.7297 245.536C69.8197 245.536 70.6958 244.66 70.6958 243.57ZM70.6958 255.333C70.6958 254.25 69.813 253.367 68.7297 253.367C67.6463 253.367 66.7635 254.25 66.7635 255.333C66.7635 256.417 67.6463 257.299 68.7297 257.299C69.8197 257.306 70.6958 256.423 70.6958 255.333ZM70.6958 267.103C70.6958 266.02 69.813 265.137 68.7297 265.137C67.6463 265.137 66.7635 266.02 66.7635 267.103C66.7635 268.187 67.6463 269.07 68.7297 269.07C69.8197 269.07 70.6958 268.187 70.6958 267.103ZM70.6958 278.867C70.6958 277.784 69.813 276.901 68.7297 276.901C67.6463 276.901 66.7635 277.784 66.7635 278.867C66.7635 279.95 67.6463 280.833 68.7297 280.833C69.8197 280.833 70.6958 279.95 70.6958 278.867ZM58.9323 231.806C58.9323 230.723 58.0496 229.84 56.9662 229.84C55.8828 229.84 55 230.723 55 231.806C55 232.89 55.8828 233.772 56.9662 233.772C58.0496 233.772 58.9323 232.896 58.9323 231.806ZM58.9323 243.57C58.9323 242.486 58.0496 241.604 56.9662 241.604C55.8828 241.604 55 242.486 55 243.57C55 244.653 55.8828 245.536 56.9662 245.536C58.0496 245.536 58.9323 244.66 58.9323 243.57ZM58.9323 255.333C58.9323 254.25 58.0496 253.367 56.9662 253.367C55.8828 253.367 55 254.25 55 255.333C55 256.417 55.8828 257.299 56.9662 257.299C58.0496 257.299 58.9323 256.423 58.9323 255.333ZM58.9323 267.103C58.9323 266.02 58.0496 265.137 56.9662 265.137C55.8828 265.137 55 266.02 55 267.103C55 268.187 55.8828 269.07 56.9662 269.07C58.0496 269.07 58.9323 268.187 58.9323 267.103ZM58.9323 278.867C58.9323 277.784 58.0496 276.901 56.9662 276.901C55.8828 276.901 55 277.784 55 278.867C55 279.95 55.8828 280.833 56.9662 280.833C58.0496 280.833 58.9323 279.95 58.9323 278.867Z" fill="#F0806C"/>
<g clip-path="url(#clip0_1238_19053)">
<path d="M545.005 417.511C597.251 417.511 639.604 375.173 639.604 322.945C639.604 270.718 597.251 228.379 545.005 228.379C492.76 228.379 450.406 270.718 450.406 322.945C450.406 375.173 492.76 417.511 545.005 417.511Z" fill="#FFEEE3"/>
<path d="M599.6 260.53C599.6 267.825 605.546 273.769 612.843 273.769C620.141 273.769 626.087 267.825 626.087 260.53C626.087 253.235 620.141 247.29 612.843 247.29C605.546 247.02 599.6 253.235 599.6 260.53Z" fill="#F0806C"/>
<path d="M430.081 374.34C398.372 355.321 374.59 367.604 355.961 365.623C304.037 360.076 264.004 362.057 238.24 441.303C233.88 454.378 225.16 485.284 227.142 496.774C237.448 559.378 312.36 534.02 312.36 534.02C312.36 534.02 413.433 513.812 485.175 530.85C485.175 530.85 470.906 525.699 459.412 480.529C449.106 441.699 464.168 394.944 430.081 374.34Z" fill="#FB9B8A" stroke="#252D3B" stroke-width="1.82367" stroke-miterlimit="10" stroke-linecap="round"/>
<path d="M408.677 427.829C408.677 427.829 417.397 442.489 413.434 458.338C409.47 474.187 399.957 502.319 403.128 518.961" stroke="#252D3B" stroke-width="1.82367" stroke-miterlimit="10" stroke-linecap="round"/>
<path d="M376.571 490.434C376.571 490.434 312.359 459.528 280.254 474.981L376.571 490.434Z" fill="#FF907C"/>
<path d="M376.571 490.434C376.571 490.434 312.359 459.528 280.254 474.981" stroke="#252D3B" stroke-width="1.82367" stroke-miterlimit="10" stroke-linecap="round"/>
<path d="M314.35 435.75C314.35 435.75 303.252 447.637 297.307 470.618L314.35 435.75Z" fill="#FF907C"/>
<path d="M314.35 435.75C314.35 435.75 303.252 447.637 297.307 470.618" stroke="#252D3B" stroke-width="1.82367" stroke-miterlimit="10" stroke-linecap="round"/>
<path d="M377.358 338.676C324.642 365.223 363.089 342.638 350.802 345.412C334.155 350.167 310.769 332.337 317.904 322.431C327.416 309.752 307.995 317.676 313.94 300.638C315.129 297.469 318.696 296.28 318.696 292.714C318.696 283.997 322.264 279.242 330.191 273.695C345.649 262.601 355.955 275.676 355.955 275.676C355.955 275.676 357.144 269.733 368.638 270.921C382.115 272.11 382.115 283.601 389.249 287.563C401.537 294.299 392.42 313.318 379.34 322.431C371.809 327.978 372.206 336.299 377.358 338.676Z" fill="#343434"/>
<path d="M368.243 300.248C374.982 295.889 383.702 293.908 384.891 303.021C385.683 308.965 386.476 310.55 388.854 319.663C393.611 339.078 380.927 352.55 362.694 347.003C344.065 341.455 339.705 333.531 340.498 310.55C340.894 293.512 350.803 299.852 350.803 299.852C350.803 299.852 357.542 306.984 368.243 300.248Z" fill="white"/>
<path d="M382.109 312.127C382.109 313.712 381.316 314.9 380.92 314.9C380.127 314.9 379.73 313.712 379.73 312.127C379.73 310.542 380.523 309.353 380.92 309.353C381.712 309.353 382.109 310.542 382.109 312.127Z" fill="#252D3B"/>
<path d="M364.284 314.114C364.68 315.699 364.284 316.888 363.491 317.284C362.698 317.68 361.905 316.491 361.509 314.907C361.113 313.322 361.509 312.133 362.302 311.737C363.094 311.34 363.887 312.529 364.284 314.114Z" fill="#252D3B"/>
<path d="M376.468 342.876C376.468 342.876 375.022 357.499 380.412 364.551C380.412 364.551 396.623 366.754 380.412 376.586C379.229 379.929 373.312 381.044 369.367 378.815C358.711 377.771 353.421 381.737 331.379 360.584C331.379 360.584 352.539 383.059 343.726 330.618C343.332 330.897 374.101 341.762 376.468 342.876Z" fill="white"/>
<path d="M376.571 347.792C376.571 347.792 367.851 349.377 358.735 345.018C349.222 340.264 362.302 358.49 377.364 357.698C377.364 357.301 375.779 354.132 376.571 347.792Z" fill="#252D3B"/>
<path d="M376.572 303.814C376.572 303.814 380.536 303.418 384.103 305.002C387.274 306.984 379.743 297.87 376.572 303.814Z" fill="#252D3B"/>
<path d="M361.51 307.372C361.51 307.372 357.546 308.957 355.961 310.938C354.375 312.919 355.168 302.221 361.51 307.372Z" fill="#252D3B"/>
<path d="M345.654 322.431C345.654 322.431 340.898 316.884 335.745 318.072C330.592 319.261 334.556 334.714 345.258 331.544C355.563 328.374 345.654 322.431 345.654 322.431Z" fill="white"/>
<path d="M341.692 324.811C341.692 324.811 340.106 320.849 336.539 321.245" stroke="#252D3B" stroke-width="1.82367" stroke-miterlimit="10" stroke-linecap="round"/>
<path d="M340.499 318.076C340.499 318.076 350.805 312.529 350.805 294.699C350.805 276.869 324.248 296.68 340.499 318.076Z" fill="#3A3A3A"/>
<path d="M343.271 332.339C343.271 332.339 347.235 351.358 345.253 366.811" stroke="#252D3B" stroke-width="1.82367" stroke-miterlimit="10" stroke-linecap="round"/>
<path d="M376.572 348.581C376.572 353.336 378.95 364.43 381.329 366.411" stroke="#252D3B" stroke-width="1.82367" stroke-miterlimit="10" stroke-linecap="round"/>
<path d="M388.054 314.903C391.225 334.715 388.054 347.79 373.785 348.186" stroke="#252D3B" stroke-width="1.82367" stroke-miterlimit="10" stroke-linecap="round"/>
<path d="M368.647 332.734C368.647 332.734 367.854 337.488 374.196 337.885" stroke="#252D3B" stroke-width="1.82367" stroke-miterlimit="10" stroke-linecap="round"/>
<path d="M361.107 517.377C361.107 517.377 362.297 495.584 377.358 490.433C377.358 490.433 401.537 490.829 420.166 484.093C438.795 477.754 449.1 514.207 449.1 514.207C449.1 514.207 444.344 519.358 432.849 504.301C432.453 503.905 432.057 504.301 432.057 504.697L434.831 516.188" fill="white"/>
<path d="M361.107 517.377C361.107 517.377 362.297 495.584 377.358 490.433C377.358 490.433 401.537 490.829 420.166 484.093C438.795 477.754 449.1 514.207 449.1 514.207C449.1 514.207 444.344 519.358 432.849 504.301C432.453 503.905 432.057 504.301 432.057 504.697L434.831 516.188" stroke="#252D3B" stroke-width="1.82367" stroke-miterlimit="10" stroke-linecap="round"/>
<path d="M409.463 500.733C409.463 500.733 416.597 493.998 421.354 493.205C426.11 492.413 432.848 504.3 432.848 504.3" fill="white"/>
<path d="M409.463 500.733C409.463 500.733 416.597 493.998 421.354 493.205C426.11 492.413 432.848 504.3 432.848 504.3" stroke="#252D3B" stroke-width="1.82367" stroke-miterlimit="10" stroke-linecap="round"/>
<path d="M408.67 506.28C408.67 506.28 423.732 500.337 422.939 511.431L408.67 506.28Z" fill="white"/>
<path d="M408.67 506.28C408.67 506.28 423.732 500.337 422.939 511.431" stroke="#252D3B" stroke-width="1.82367" stroke-miterlimit="10" stroke-linecap="round"/>
<path d="M337.326 364.828C337.326 364.828 347.235 382.262 371.017 379.488C394.799 376.715 385.286 364.432 385.286 364.432" stroke="#252D3B" stroke-width="1.82367" stroke-miterlimit="10" stroke-linecap="round"/>
<path d="M344.074 269.337C329.408 267.356 310.779 276.865 320.292 297.469L344.074 269.337Z" fill="#343434"/>
<path d="M344.074 269.337C329.408 267.356 310.779 276.865 320.292 297.469" stroke="#3A3A3A" stroke-width="1.82367" stroke-miterlimit="10" stroke-linecap="round"/>
<path d="M388.85 287.563C388.85 287.563 397.57 292.318 397.57 299.846C397.57 306.978 392.417 311.337 392.417 311.337" fill="#343434"/>
<path d="M388.85 287.563C388.85 287.563 397.57 292.318 397.57 299.846C397.57 306.978 392.417 311.337 392.417 311.337" stroke="#3A3A3A" stroke-width="1.82367" stroke-miterlimit="10" stroke-linecap="round"/>
<path d="M489.138 511.428H397.974C396.388 511.428 395.199 512.617 395.199 514.202C395.199 515.786 396.388 516.975 397.974 516.975H489.138C490.723 516.975 491.912 515.786 491.912 514.202C491.912 513.013 490.723 511.428 489.138 511.428Z" fill="white" stroke="#252D3B" stroke-width="1.82367" stroke-miterlimit="10" stroke-linecap="round"/>
<path d="M312.753 558.977H259.244" stroke="white" stroke-width="1.82367" stroke-miterlimit="10" stroke-linecap="round"/>
<path d="M438.395 495.584H685.726C692.068 495.584 697.617 490.433 697.617 483.697L725.363 328.773C725.363 322.433 720.21 316.886 713.472 316.886H466.14C459.799 316.886 454.249 322.037 454.249 328.773L426.504 483.697C426.504 490.433 432.053 495.584 438.395 495.584Z" fill="#252D3B"/>
<path d="M446.319 495.584H693.65C699.992 495.584 703.956 490.433 705.541 483.697L733.287 328.773C733.287 322.433 728.134 316.886 721.396 316.886H473.668C467.326 316.886 461.777 322.037 461.777 328.773L434.031 483.697C434.428 490.433 439.58 495.584 446.319 495.584Z" fill="white" stroke="#252D3B" stroke-width="1.82367" stroke-miterlimit="10" stroke-linecap="round"/>
<path d="M532.729 459.918H625.875C628.253 459.918 630.235 457.937 630.235 455.56L640.54 397.315C640.54 394.937 638.559 392.956 636.18 392.956H543.035C540.656 392.956 538.675 394.937 538.675 397.315L528.369 455.56C528.369 457.937 530.351 459.918 532.729 459.918Z" fill="white" stroke="#252D3B" stroke-width="1.82367" stroke-miterlimit="10" stroke-linecap="round"/>
<path d="M544.221 508.655H598.523L615.17 425.448C616.359 420.297 613.981 416.335 608.828 416.335H570.381C565.228 416.335 561.264 420.297 561.264 425.448L544.221 508.655Z" fill="#F0806C"/>
<path d="M609.634 507.861H520.848C518.074 507.861 516.092 509.842 516.092 512.616C516.092 515.389 518.074 517.37 520.848 517.37H609.634C612.408 517.37 614.39 515.389 614.39 512.616C614.39 510.238 612.408 507.861 609.634 507.861Z" fill="#989898"/>
<path d="M312.357 535.602L360.714 516.979C360.714 516.979 370.227 526.093 385.289 520.546" fill="white"/>
<path d="M312.357 535.602L360.714 516.979C360.714 516.979 370.227 526.093 385.289 520.546" stroke="#252D3B" stroke-width="1.82367" stroke-miterlimit="10" stroke-linecap="round"/>
<path d="M217.237 532.451H762.045C770.372 532.451 777.509 529.954 777.509 526.723C777.509 523.638 770.768 520.994 762.045 520.994H217.237C208.911 520.994 201.773 523.491 201.773 526.723C201.773 529.954 208.514 532.451 217.237 532.451Z" fill="#686868"/>
<path d="M365.475 427.826C365.475 440.109 374.987 449.618 386.482 449.618C397.977 449.618 407.489 439.713 407.489 427.826C407.489 415.543 397.977 406.033 386.482 406.033C374.987 406.033 365.475 415.939 365.475 427.826Z" fill="#3A3A3A"/>
</g>
<defs>
<filter id="filter0_d_1238_19053" x="90.1068" y="90.0014" width="634.823" height="634.823" filterUnits="userSpaceOnUse" color-interpolation-filters="sRGB">
<feFlood flood-opacity="0" result="BackgroundImageFix"/>
<feColorMatrix in="SourceAlpha" type="matrix" values="0 0 0 0 0 0 0 0 0 0 0 0 0 0 0 0 0 0 127 0" result="hardAlpha"/>
<feOffset dx="-9.1558" dy="13.7337"/>
<feGaussianBlur stdDeviation="48.0679"/>
<feComposite in2="hardAlpha" operator="out"/>
<feColorMatrix type="matrix" values="0 0 0 0 0 0 0 0 0 0 0 0 0 0 0 0 0 0 0.08 0"/>
<feBlend mode="normal" in2="BackgroundImageFix" result="effect1_dropShadow_1238_19053"/>
<feBlend mode="normal" in="SourceGraphic" in2="effect1_dropShadow_1238_19053" result="shape"/>
</filter>
<filter id="filter1_d_1238_19053" x="61.4974" y="61.3947" width="692.041" height="692.042" filterUnits="userSpaceOnUse" color-interpolation-filters="sRGB">
<feFlood flood-opacity="0" result="BackgroundImageFix"/>
<feColorMatrix in="SourceAlpha" type="matrix" values="0 0 0 0 0 0 0 0 0 0 0 0 0 0 0 0 0 0 127 0" result="hardAlpha"/>
<feOffset dx="-9.1558" dy="13.7337"/>
<feGaussianBlur stdDeviation="48.0679"/>
<feComposite in2="hardAlpha" operator="out"/>
<feColorMatrix type="matrix" values="0 0 0 0 0 0 0 0 0 0 0 0 0 0 0 0 0 0 0.08 0"/>
<feBlend mode="normal" in2="BackgroundImageFix" result="effect1_dropShadow_1238_19053"/>
<feBlend mode="normal" in="SourceGraphic" in2="effect1_dropShadow_1238_19053" result="shape"/>
</filter>
<filter id="filter2_d_1238_19053" x="31.1009" y="30.9938" width="752.836" height="752.837" filterUnits="userSpaceOnUse" color-interpolation-filters="sRGB">
<feFlood flood-opacity="0" result="BackgroundImageFix"/>
<feColorMatrix in="SourceAlpha" type="matrix" values="0 0 0 0 0 0 0 0 0 0 0 0 0 0 0 0 0 0 127 0" result="hardAlpha"/>
<feOffset dx="-9.1558" dy="13.7337"/>
<feGaussianBlur stdDeviation="48.0679"/>
<feComposite in2="hardAlpha" operator="out"/>
<feColorMatrix type="matrix" values="0 0 0 0 0 0 0 0 0 0 0 0 0 0 0 0 0 0 0.08 0"/>
<feBlend mode="normal" in2="BackgroundImageFix" result="effect1_dropShadow_1238_19053"/>
<feBlend mode="normal" in="SourceGraphic" in2="effect1_dropShadow_1238_19053" result="shape"/>
</filter>
<filter id="filter3_d_1238_19053" x="0.702455" y="0.597811" width="813.631" height="813.632" filterUnits="userSpaceOnUse" color-interpolation-filters="sRGB">
<feFlood flood-opacity="0" result="BackgroundImageFix"/>
<feColorMatrix in="SourceAlpha" type="matrix" values="0 0 0 0 0 0 0 0 0 0 0 0 0 0 0 0 0 0 127 0" result="hardAlpha"/>
<feOffset dx="-9.1558" dy="13.7337"/>
<feGaussianBlur stdDeviation="48.0679"/>
<feComposite in2="hardAlpha" operator="out"/>
<feColorMatrix type="matrix" values="0 0 0 0 0 0 0 0 0 0 0 0 0 0 0 0 0 0 0.08 0"/>
<feBlend mode="normal" in2="BackgroundImageFix" result="effect1_dropShadow_1238_19053"/>
<feBlend mode="normal" in="SourceGraphic" in2="effect1_dropShadow_1238_19053" result="shape"/>
</filter>
<clipPath id="clip0_1238_19053">
<rect width="575.125" height="447.736" fill="white" transform="translate(201.771 112.037)"/>
</clipPath>
</defs>
</svg>
