<svg width="137" height="70" viewBox="0 0 137 70" fill="none" xmlns="http://www.w3.org/2000/svg">
<path d="M136.85 66.8708C136.56 66.8802 136.271 66.9083 135.981 66.9083C131.372 66.9363 126.764 66.9738 122.156 66.9925C115.304 67.03 108.452 67.03 101.6 67.0955C96.9636 67.1423 92.3178 67.3015 87.6813 67.3577C85.0359 67.3857 82.3905 67.2921 79.7358 67.2921C79.1282 67.2921 78.5019 67.4045 77.913 67.573C75.5854 68.2658 73.3046 69.1085 70.8835 69.4455C68.6868 69.7451 66.4901 69.9137 64.2747 69.5766C64.0317 69.5392 63.7793 69.4923 63.5456 69.4268C62.4239 69.0991 62.1528 68.7808 61.9939 67.5168C61.7415 67.5168 61.4704 67.5075 61.1993 67.5168C58.7689 67.5824 56.3385 67.6479 53.9175 67.7041C53.5155 67.7134 53.1229 67.779 52.8051 67.3951C52.6929 67.264 52.4032 67.2453 52.1975 67.2453C50.7299 67.2359 49.2717 67.2266 47.8041 67.2547C47.5424 67.2547 47.2526 67.3577 47.0282 67.4981C45.7663 68.3033 44.5044 68.1909 43.205 67.573C42.8031 67.3764 42.3263 67.264 41.8777 67.2359C41.0364 67.1798 40.1951 67.2172 39.3538 67.2266C39.1107 67.2266 38.877 67.2734 38.5686 67.3015C38.8303 68.1722 39.3725 68.7433 40.1109 68.9961C40.7746 69.2302 41.5224 69.2395 42.317 69.3613C42.1581 69.4736 42.0366 69.6421 41.8963 69.6515C41.4664 69.689 41.0177 69.7451 40.6064 69.6609C39.6809 69.483 38.8864 68.9587 38.4657 68.1348C38.0544 67.3108 37.4468 67.1985 36.6523 67.1985C31.698 67.1798 26.7437 67.133 21.7988 67.0861C20.836 67.0768 19.8732 67.0206 18.901 66.9832C18.6112 66.9738 18.3215 66.9176 17.9008 66.8708C18.228 66.4308 18.5458 66.5431 18.8262 66.5431C21.6586 66.5899 24.4909 66.6742 27.3233 66.7023C30.4361 66.7304 33.5489 66.721 36.671 66.7304C36.9421 66.7304 37.2132 66.7023 37.559 66.6836C37.4749 66.2154 37.4095 65.8128 37.3253 65.3353C37.8395 65.4383 37.8395 65.7941 37.9142 66.0656C38.0638 66.5525 38.3255 66.7678 38.8583 66.7491C39.9053 66.7116 40.9522 66.7397 42.102 66.7397C41.9805 66.3746 41.9244 66.1405 41.8309 65.9158C41.1766 64.3991 40.4942 62.8917 39.8772 61.3656C39.6436 60.7945 39.3444 60.5604 38.6994 60.5604C30.7259 60.5791 22.7523 60.5698 14.7787 60.5791C14.5357 60.5791 14.2926 60.6166 14.0028 60.6353C13.9281 61.1315 13.8533 61.5903 13.7598 62.2082C13.2457 61.6839 13.6289 61.1034 13.2457 60.6166C12.9839 60.6072 12.6568 60.5698 12.3203 60.5698C9.60943 60.5698 6.8986 60.5698 4.18777 60.5604C3.86994 60.5604 3.55212 60.5136 3.13148 60.4855C3.45865 59.9612 3.83255 60.1016 4.14103 60.1016C6.85186 60.0923 9.56269 60.0923 12.2735 60.0923C12.61 60.0923 12.9466 60.0923 13.255 60.0923C13.4794 59.3526 13.5448 49.2691 13.3485 47.7898C13.0026 47.7711 12.6474 47.743 12.2829 47.7336C8.51574 47.7336 4.74863 47.7336 0.97216 47.7243C0.654338 47.7243 0.336517 47.6868 0.0186955 47.6587C0.00934776 47.5932 0.00934769 47.5183 0 47.4528C0.149563 47.3966 0.299126 47.3029 0.448689 47.2842C0.757163 47.2561 1.07498 47.2749 1.38346 47.2749C11.909 47.2749 22.4345 47.2749 32.9693 47.2749C33.3619 47.2749 33.7545 47.2468 34.2686 47.228C34.1471 46.8161 34.0723 46.5165 33.9695 46.2356C31.7635 40.1125 29.5574 33.98 27.342 27.8568C27.1831 27.4261 26.9681 26.9954 26.7157 26.6116C24.734 23.5875 22.7803 20.5446 20.7238 17.5673C19.3965 15.648 17.9289 13.8223 16.5361 11.9497C15.7322 10.873 15.863 9.86188 16.8726 8.99115C16.9661 8.91625 17.0502 8.83199 17.1904 8.71027C16.6669 7.98935 16.1061 7.29652 16.4332 6.33217C16.7604 5.36782 17.4989 5.01204 18.4897 4.93714C18.5084 4.19749 18.3402 3.42976 18.8917 2.80247C19.4432 2.16581 20.1536 2.06282 20.9949 2.16581C21.0603 1.92238 21.1258 1.69768 21.1912 1.47298C21.6119 0.0404972 23.1355 -0.455721 24.3133 0.471178C24.5283 0.639705 24.7246 0.855043 24.9116 1.06102C26.3418 2.62458 27.7626 4.1975 29.1928 5.76105C29.3985 5.98575 29.6135 6.21046 29.8939 6.5007C30.0341 6.27599 30.1556 6.11683 30.2398 5.93894C30.6043 5.15248 30.9222 4.33794 31.3335 3.56084C31.5298 3.18633 31.8382 2.83056 32.1748 2.57776C33.1843 1.81003 34.4743 2.38115 34.5678 3.6451C34.6145 4.25367 34.521 4.89033 34.4182 5.4989C34.1565 6.94074 33.8386 8.36386 33.5676 9.8057C33.4273 10.5453 33.4741 11.285 33.6891 12.0246C34.3621 14.3091 34.7641 16.631 34.8388 19.0185C34.8762 20.245 35.1193 21.4341 35.6334 22.5576C35.7923 22.8946 35.9512 23.241 36.1756 23.5313C39.4099 27.8194 42.1581 32.4258 44.8128 37.079C44.9624 37.3411 45.14 37.5939 45.3456 37.9123C45.6915 37.6782 45.9719 37.4909 46.243 37.2943C50.3654 34.4013 54.7214 31.9389 59.4793 30.2349C62.2837 29.2331 65.1534 28.559 68.1353 28.4841C68.6214 28.4747 68.9486 28.2969 69.229 27.913C69.9955 26.9018 70.5564 25.797 70.8555 24.5705C71.0518 23.7653 71.164 22.9321 71.3416 22.0145C70.8929 21.9865 70.5564 21.9771 70.2292 21.949C68.4157 21.7711 66.9014 21.097 66.1536 19.3087C65.9386 18.7938 65.4806 18.8406 65.0973 18.7189C65.4712 16.8838 65.8264 15.1237 66.2003 13.2792C65.5553 13.2792 65.0132 13.2792 64.3775 13.2792C64.443 12.9983 64.471 12.8017 64.5458 12.6145C65.2282 10.9479 66.1162 9.44056 67.509 8.25151C72.0894 4.31921 78.5299 5.97639 80.6238 11.6501C81.2034 13.2137 81.3062 14.8053 80.8949 16.4251C80.6986 17.2115 80.5023 17.998 80.3434 18.7938C80.0817 20.142 80.521 21.2562 81.5586 22.1269C81.9886 22.4827 82.456 22.801 82.914 23.1287C83.372 23.4564 83.8394 23.7653 84.2881 24.1024C85.3444 24.9076 86.0455 25.9375 86.2979 27.2576C86.3353 27.4729 86.4007 27.6789 86.4661 27.9692C87.0644 28.0815 87.672 28.1845 88.2702 28.2968C92.458 29.0271 96.3466 30.5907 100.086 32.5662C102.656 33.9238 105.105 35.4499 107.461 37.1445C107.891 37.4535 108.302 37.7624 108.499 38.2961C108.611 38.6051 108.873 38.8672 109.069 39.1481C110.723 41.5262 112.406 43.8856 114.014 46.3011C114.509 47.0408 115.061 47.2842 115.93 47.2842C122.567 47.2468 129.194 47.2655 135.831 47.2749C136.177 47.2749 136.56 47.1532 136.934 47.4808C136.635 47.8085 136.28 47.7055 135.972 47.7055C133.448 47.7149 130.924 47.7149 128.4 47.7149C127.063 47.7149 125.717 47.7149 124.38 47.7149C124.081 47.7149 123.773 47.7524 123.446 47.7711C123.446 51.8906 123.446 55.9166 123.446 60.0736C123.876 60.0736 124.24 60.0736 124.605 60.0736C128.409 60.0736 132.204 60.0735 136.009 60.0829C136.308 60.0829 136.682 59.9425 137 60.4574C136.028 60.6166 135.14 60.523 134.27 60.5323C133.363 60.551 132.466 60.5323 131.559 60.5323C130.69 60.5323 129.811 60.5323 128.942 60.5323C128.035 60.5323 127.138 60.5323 126.231 60.5323C125.334 60.5323 124.436 60.5323 123.53 60.5323C123.268 61.3469 123.436 62.0959 123.38 62.8262C123.324 63.5096 123.52 64.2118 123.175 65.0638C122.801 64.2212 122.988 63.519 122.95 62.8449C122.913 62.1333 122.941 61.4218 122.941 60.6915C122.128 60.4481 121.529 60.4668 120.95 61.1222C119.622 62.6202 117.912 63.5939 116.089 64.3523C114.126 65.1762 112.097 65.7473 110.013 66.1686C109.77 66.2154 109.536 66.281 109.144 66.3746C109.546 66.6555 109.873 66.5899 110.181 66.5899C113.976 66.5712 117.781 66.5525 121.576 66.5338C126.343 66.515 131.111 66.4963 135.869 66.4776C136.196 66.4776 136.523 66.5057 136.841 66.515C136.85 66.6367 136.85 66.7491 136.85 66.8708ZM22.2568 13.8691C22.1821 13.9346 22.0979 14.0001 22.0232 14.0657C21.7895 13.841 21.5464 13.635 21.3314 13.3916C20.2658 12.1744 19.2095 10.9386 18.1439 9.72143C17.6484 9.15032 17.2278 9.1784 16.8071 9.77761C16.4706 10.2457 16.4052 10.7607 16.695 11.2756C16.8445 11.5471 17.0408 11.7906 17.2278 12.0434C18.5365 13.7942 19.9012 15.4888 21.1351 17.2864C23.1823 20.2637 25.1453 23.3066 27.127 26.3307C27.4168 26.7707 27.6598 27.2482 27.8374 27.7445C30.0435 33.8395 32.2308 39.9439 34.4369 46.039C35.6521 49.4095 36.8299 52.7894 38.1573 56.1132C39.466 59.3807 40.9429 62.5827 42.3357 65.8128C42.8405 66.9832 43.7752 67.47 44.9904 67.5449C46.1402 67.6105 46.9254 67.1142 47.4863 66.0937C48.636 63.9871 49.8699 61.9273 51.029 59.8301C51.244 59.4369 51.3936 58.9594 51.403 58.5194C51.4777 53.8755 52.4499 49.4283 54.1699 45.1308C54.2914 44.8219 54.4036 44.4942 54.5157 44.2039C53.8707 43.586 46.8413 39.5133 46.0748 39.3166C45.9719 39.5975 45.8598 39.8878 45.7663 40.178C45.0746 42.3127 44.3922 44.4474 43.7098 46.5914C43.42 47.4808 43.1396 48.3703 42.8405 49.2597C42.7657 49.4751 42.7283 49.7747 42.2329 49.6249C42.3076 49.3159 42.3731 48.9976 42.4666 48.6886C43.3826 45.8049 44.2987 42.9306 45.2428 40.0563C45.4111 39.5413 45.4485 39.0919 45.0839 38.6519C44.9811 38.5302 44.9157 38.3897 44.8409 38.2493C42.2609 33.5399 39.5314 28.9335 36.3158 24.6361C35.0445 22.9414 34.4556 21.0783 34.3341 19.0091C34.2593 17.7077 34.091 16.4063 33.9041 15.1049C33.7919 14.3185 33.5489 13.5414 33.3806 12.783C33.0908 12.783 32.8945 12.783 32.6421 12.783C32.745 12.2025 32.8571 11.6876 32.9132 11.1726C33.0908 9.36566 33.3713 7.58676 33.848 5.83595C33.9695 5.38655 34.0536 4.91842 34.1004 4.45965C34.2032 3.52339 33.9695 3.00844 33.3806 2.81183C32.8478 2.63394 32.3524 2.85864 31.8756 3.6451C31.4643 4.33793 31.0998 5.06822 30.8193 5.82659C30.3893 6.95946 30.0622 8.13915 29.6696 9.29075C29.5667 9.581 29.5761 9.98359 29.0339 10.0866C29.0339 9.86187 28.9965 9.68398 29.0433 9.53418C29.2022 8.96306 29.3611 8.39194 29.5761 7.83955C29.763 7.36206 29.6509 7.03437 29.3144 6.66922C27.9589 5.20866 26.6222 3.72 25.2855 2.25007C24.9116 1.83812 24.547 1.39807 24.1357 1.01421C23.5094 0.424363 22.6775 0.396277 22.1073 0.892495C21.5932 1.3419 21.4529 2.25007 22.0138 2.91482C22.8084 3.84172 23.5562 4.78734 24.332 5.7236C24.8088 6.30408 25.3042 6.86584 25.7622 7.44632C25.8651 7.5774 25.8651 7.77401 25.9118 7.94254C25.837 7.98935 25.7716 8.0268 25.6968 8.07361C25.4725 7.83955 25.2294 7.62421 25.0238 7.38078C23.9768 6.14492 22.9392 4.89969 21.8923 3.66383C21.6679 3.40167 21.4436 3.13952 21.1725 2.93354C20.649 2.53095 19.9293 2.57776 19.4432 2.98036C18.9571 3.39231 18.7889 4.09451 19.088 4.67499C19.2282 4.9465 19.4432 5.18993 19.6488 5.41463C20.7332 6.62241 21.8269 7.81146 22.9112 9.01924C23.0608 9.18777 23.1636 9.39374 23.3038 9.59972C22.8177 9.92741 22.6588 9.581 22.4625 9.37502C21.5371 8.36386 20.621 7.34333 19.6862 6.33217C19.4993 6.12619 19.303 5.92022 19.0693 5.77042C18.4804 5.37719 17.7232 5.45209 17.2652 5.91085C16.7604 6.40707 16.695 7.16544 17.125 7.78338C17.3026 8.03617 17.5269 8.26087 17.7326 8.49493C19.1441 10.1147 20.5649 11.725 21.9764 13.3541C22.1166 13.4946 22.1727 13.6912 22.2568 13.8691ZM107.816 38.3336C106.582 38.8111 100.02 42.631 99.5342 43.1647C99.9922 44.129 100.45 45.1121 100.918 46.0952C101.366 47.0502 101.834 48.0051 102.273 48.9695C102.712 49.9432 103.264 50.8795 103.619 51.9843C103.086 52.1247 102.666 52.2277 102.254 52.3307C99.0201 53.1265 95.7858 53.9223 92.5421 54.6994C92.0374 54.8211 91.6635 55.0365 91.3456 55.4859C88.9152 58.9688 84.3723 60.1016 80.5677 58.1729C80.0536 57.9108 79.5862 57.864 79.0534 58.0044C77.5765 58.3883 76.0808 58.716 74.6133 59.1186C74.015 59.2871 73.5383 59.2028 73.0428 58.8658C71.7061 57.9576 70.3133 57.1243 69.014 56.1693C67.7053 55.2144 66.3219 54.9054 64.7888 55.3922C63.396 55.8323 62.0406 56.4034 60.6291 56.7873C58.4605 57.3771 57.3013 59.0998 56.002 60.6728C55.6468 61.0941 55.7403 61.5903 56.0955 61.9461C56.4507 62.2925 56.9274 62.3393 57.3761 62.0397C57.5537 61.918 57.7033 61.7588 57.8622 61.609C58.3389 61.1596 58.797 60.7008 59.2924 60.2608C59.47 60.1016 59.685 59.9425 59.9187 59.8863C61.1339 59.6148 62.3491 59.3714 63.5736 59.1467C63.7326 59.1186 63.9102 59.2028 64.0878 59.2309C64.0971 59.3152 64.0971 59.3901 64.1065 59.4743C63.798 59.5867 63.4989 59.7084 63.1904 59.802C62.0967 60.1578 60.9843 60.4668 59.9 60.86C59.4513 61.0285 59.04 61.3375 58.6474 61.6371C58.2735 61.9273 58.2828 62.3206 58.4698 62.7325C58.7128 63.2662 59.0868 63.6033 59.685 63.5752C60.1524 63.5471 60.6198 63.519 61.0685 63.416C62.5267 63.0977 63.9849 62.7513 65.4432 62.4142C65.6301 62.3674 65.8264 62.3674 66.1443 62.3393C65.7517 62.9104 65.2749 63.1445 64.7888 63.3224C63.7045 63.7156 62.6015 64.0527 61.5172 64.4459C61.0778 64.6051 60.6478 64.7829 60.2552 65.0357C59.7411 65.3634 59.5915 65.7847 59.7317 66.2248C59.872 66.6929 60.302 67.0206 60.8909 66.9925C61.3489 66.9644 61.8163 66.8614 62.2556 66.721C63.2932 66.3746 64.3028 65.9814 65.331 65.6256C65.5086 65.56 65.7143 65.5507 66.0227 65.4945C65.7143 66.1218 65.2656 66.3933 64.7982 66.6367C64.2467 66.9176 63.6671 67.161 63.1249 67.47C62.91 67.5917 62.6202 67.882 62.6389 68.0599C62.6763 68.3126 62.9287 68.631 63.1623 68.734C63.6765 68.9399 64.228 69.0991 64.7795 69.1553C67.6586 69.4455 70.5096 69.2302 73.2952 68.4437C76.2865 67.6011 79.3245 66.8521 81.9979 65.1387C82.0914 65.0825 82.2877 65.1762 82.4373 65.2043C82.456 65.2698 82.4747 65.3353 82.4934 65.4009C81.8484 65.8128 81.2127 66.2342 80.5677 66.6461C80.9603 66.824 81.2969 66.8521 81.6334 66.8521C89.0181 66.9832 96.3934 66.8427 103.769 66.4495C105.965 66.3278 108.171 66.0001 110.34 65.6068C112.827 65.1574 115.229 64.3804 117.472 63.1819C118.688 62.5359 119.781 61.712 120.735 60.7102C121.483 59.9237 121.698 59.0437 121.286 58.0512C121.053 57.4801 120.781 56.909 120.436 56.4034C116.425 50.6173 112.397 44.8406 108.377 39.0545C108.181 38.7923 107.985 38.5583 107.816 38.3336ZM68.9392 12.3711C69.257 12.4647 69.4814 12.577 69.7244 12.5958C71.0424 12.7175 72.3044 13.0358 73.4635 13.6725C73.7813 13.8503 74.0244 13.7193 74.3328 13.635C75.4265 13.3354 76.4361 13.4946 77.2213 14.4121C77.9784 15.3016 78.2215 16.3033 77.6606 17.352C77.3708 17.8856 77.4176 18.3257 77.6232 18.8406C78.1186 20.039 78.1467 21.2936 77.6606 22.492C77.0624 23.9901 76.38 25.46 75.6976 26.9299C75.062 28.2875 74.7535 29.6825 74.9685 31.1899C75.1461 32.4819 75.6322 33.6429 76.2398 34.7758C76.9689 36.1146 77.7354 37.4441 78.3897 38.8204C79.1562 40.4121 79.5769 42.0973 79.3152 43.895C79.1562 44.9342 78.7076 45.8611 78.156 46.7318C77.1932 48.2486 76.8661 49.9058 77.0624 51.6566C77.3521 54.1845 78.5112 56.2068 80.7734 57.4801C82.7645 58.6036 84.849 58.6692 86.9989 57.9482C89.1115 57.246 90.5791 55.851 91.4391 53.8287C92.2524 51.9374 92.3084 49.9432 91.9626 47.949C91.5606 45.627 90.4389 43.6141 89.0554 41.7416C88.2983 40.7117 87.4757 39.738 86.7559 38.68C85.6342 37.0322 85.1107 35.2158 85.3538 33.1935C85.5314 31.7142 85.6903 30.2162 85.7183 28.7275C85.7557 26.9018 85.0266 25.4038 83.4468 24.3739C82.6897 23.8777 81.9512 23.3534 81.2501 22.7916C80.0443 21.846 79.3899 20.6195 79.6049 19.0466C79.6891 18.4006 79.8573 17.7639 80.0162 17.1366C80.2686 16.1067 80.5958 15.0862 80.4556 14.0095C80.1751 11.7157 79.1749 9.78697 77.3615 8.33577C76.165 7.38078 74.7909 6.80966 73.2392 6.78158C70.0796 6.71604 66.7425 9.01924 65.6114 12.0246C65.574 12.1276 65.6021 12.2587 65.6021 12.3991C66.2284 12.5958 66.7238 12.4553 67.1351 11.9778C67.6212 11.4067 68.1166 10.8449 68.6214 10.3019C68.8177 10.0959 69.0607 9.93678 69.2851 9.74952C69.3505 9.78697 69.4159 9.83379 69.4814 9.87124C69.3038 10.6764 69.1262 11.5003 68.9392 12.3711ZM28.0057 47.8366C26.5661 47.6213 14.6291 47.6868 13.9841 47.8834C13.7972 49.0912 13.8626 59.3152 14.0683 60.008C22.4158 60.008 30.7632 60.008 39.1388 60.008C37.559 55.8885 36.0167 51.8438 34.4369 47.7149C32.4645 47.743 30.4922 47.64 28.445 47.7898C28.445 48.5669 28.445 49.2504 28.445 49.9338C28.445 50.5892 28.445 51.2446 28.445 51.9C28.445 52.5835 28.4637 53.2763 28.4357 53.9598C28.4076 54.6058 28.5759 55.2799 28.1833 55.8978C27.9683 55.2518 28.0244 54.5871 28.015 53.9317C28.0057 53.2763 28.015 52.6209 28.015 51.9655C28.015 51.2821 28.015 50.5986 28.015 49.9058C28.0057 49.2316 28.0057 48.5482 28.0057 47.8366ZM74.23 15.2547C73.3607 14.281 72.3698 13.8503 71.2948 13.635C70.4722 13.4758 69.6309 13.3916 68.8084 13.2699C68.5466 13.2324 68.2849 13.195 68.0138 13.1575C68.0138 12.7924 68.0138 12.5115 68.0138 12.1183C67.6679 12.4928 67.4062 12.7643 67.1632 13.0452C66.9669 13.2699 66.6864 13.4946 66.621 13.7661C66.2658 15.2454 65.9573 16.734 65.6301 18.2508C65.9386 18.3631 66.191 18.4568 66.4247 18.541C66.7425 19.805 66.9762 19.5709 67.8829 19.3836C68.3223 19.29 68.7429 19.1121 69.1542 18.9811C69.7338 19.7394 69.4066 20.5446 69.4627 21.3779C70.2853 21.4434 71.0705 21.509 71.8837 21.5745C71.5472 25.0106 70.6218 28.0628 67.6773 30.0851C68.8364 31.7423 72.8559 33.3246 74.5946 32.8096C73.6411 30.2349 74.3235 27.8662 75.5761 25.5723C76.0061 24.7765 76.408 23.962 76.7165 23.1193C76.9689 22.4265 77.1371 21.6868 77.2119 20.9472C77.2961 20.0765 77.0904 19.2338 76.595 18.4942C75.118 18.8687 75.1087 18.8687 74.5665 18.3818C75.2956 18.1759 76.0902 18.2508 76.623 17.6422C77.1652 17.0243 77.3428 16.3314 77.0904 15.5637C76.7352 14.4683 75.6976 14.0189 74.3422 14.3747C74.3048 14.59 74.2767 14.8147 74.23 15.2547ZM122.829 60.0174C123.016 58.9032 122.978 48.5388 122.801 47.846C121.81 47.64 115.874 47.6868 115.173 47.9115C115.35 48.183 115.509 48.4452 115.687 48.6886C117.267 50.9637 118.828 53.2482 120.436 55.5046C121.389 56.8435 122.184 58.2198 121.903 60.0174C122.249 60.0174 122.511 60.0174 122.829 60.0174ZM51.403 60.5791C50.6925 61.2345 48.0284 65.9626 47.9443 66.6461C49.4493 66.6461 50.9543 66.6461 52.4779 66.6461C52.1134 64.6144 51.7675 62.6483 51.403 60.5791ZM67.266 20.0952C67.6773 20.6944 68.126 20.9659 68.6775 21.0689C69.014 20.4323 69.014 20.4323 68.7803 19.7207C68.3223 19.8331 67.8642 19.9454 67.266 20.0952Z" fill="black"/>
</svg>
